<?xml version="1.0" encoding="UTF-8" standalone="no"?>
<!DOCTYPE svg PUBLIC "-//W3C//DTD SVG 1.1//EN"
 "http://www.w3.org/Graphics/SVG/1.1/DTD/svg11.dtd">
<!-- Generated by graphviz version 14.0.5 (0)
 -->
<!-- Title: core/database.c Pages: 1 -->
<svg width="633pt" height="140pt"
 viewBox="0.00 0.00 633.00 140.00" xmlns="http://www.w3.org/2000/svg" xmlns:xlink="http://www.w3.org/1999/xlink">
<g id="graph0" class="graph" transform="scale(1 1) rotate(0) translate(4 136)">
<title>core/database.c</title>
<!-- Node1 -->
<g id="Node000001" class="node">
<title>Node1</title>
<g id="a_Node000001"><a xlink:title=" ">
<polygon fill="#999999" stroke="#666666" points="397.88,-132 312.12,-132 312.12,-112 397.88,-112 397.88,-132"/>
<text xml:space="preserve" text-anchor="middle" x="355" y="-118.5" font-family="Helvetica,sans-Serif" font-size="10.00">core/database.c</text>
</a>
</g>
</g>
<!-- Node2 -->
<g id="Node000002" class="node">
<title>Node2</title>
<g id="a_Node000002"><a xlink:href="database_8h.html" target="_top" xlink:title=" ">
<polygon fill="white" stroke="#666666" points="64,-76 0,-76 0,-56 64,-56 64,-76"/>
<text xml:space="preserve" text-anchor="middle" x="32" y="-62.5" font-family="Helvetica,sans-Serif" font-size="10.00">database.h</text>
</a>
</g>
</g>
<!-- Node1&#45;&gt;Node2 -->
<g id="edge1_Node000001_Node000002" class="edge">
<title>Node1&#45;&gt;Node2</title>
<g id="a_edge1_Node000001_Node000002"><a xlink:title=" ">
<path fill="none" stroke="#63b8ff" d="M311.87,-114.91C258.65,-107.22 165.14,-93.14 75.4,-76.36"/>
<polygon fill="#63b8ff" stroke="#63b8ff" points="76.16,-72.95 65.68,-74.53 74.86,-79.82 76.16,-72.95"/>
</a>
</g>
</g>
<!-- Node4 -->
<g id="Node000004" class="node">
<title>Node4</title>
<g id="a_Node000004"><a xlink:href="key__derivation_8h.html" target="_top" xlink:title=" ">
<polygon fill="white" stroke="#666666" points="169.62,-76 82.38,-76 82.38,-56 169.62,-56 169.62,-76"/>
<text xml:space="preserve" text-anchor="middle" x="126" y="-62.5" font-family="Helvetica,sans-Serif" font-size="10.00">key_derivation.h</text>
</a>
</g>
</g>
<!-- Node1&#45;&gt;Node4 -->
<g id="edge3_Node000001_Node000004" class="edge">
<title>Node1&#45;&gt;Node4</title>
<g id="a_edge3_Node000001_Node000004"><a xlink:title=" ">
<path fill="none" stroke="#63b8ff" d="M314.85,-111.53C276.54,-102.5 218.68,-88.85 177.1,-79.05"/>
<polygon fill="#63b8ff" stroke="#63b8ff" points="178.11,-75.69 167.58,-76.8 176.51,-82.51 178.11,-75.69"/>
</a>
</g>
</g>
<!-- Node6 -->
<g id="Node000006" class="node">
<title>Node6</title>
<g id="a_Node000006"><a xlink:title=" ">
<polygon fill="#e0e0e0" stroke="#999999" points="282.38,-76 187.62,-76 187.62,-56 282.38,-56 282.38,-76"/>
<text xml:space="preserve" text-anchor="middle" x="235" y="-62.5" font-family="Helvetica,sans-Serif" font-size="10.00">sqlcipher/sqlite3.h</text>
</a>
</g>
</g>
<!-- Node1&#45;&gt;Node6 -->
<g id="edge5_Node000001_Node000006" class="edge">
<title>Node1&#45;&gt;Node6</title>
<g id="a_edge5_Node000001_Node000006"><a xlink:title=" ">
<path fill="none" stroke="#63b8ff" d="M334.1,-111.59C315.37,-103.17 287.64,-90.69 266.28,-81.07"/>
<polygon fill="#63b8ff" stroke="#63b8ff" points="268,-78.01 257.45,-77.1 265.13,-84.4 268,-78.01"/>
</a>
</g>
</g>
<!-- Node7 -->
<g id="Node000007" class="node">
<title>Node7</title>
<g id="a_Node000007"><a xlink:title=" ">
<polygon fill="#e0e0e0" stroke="#999999" points="345.62,-76 300.38,-76 300.38,-56 345.62,-56 345.62,-76"/>
<text xml:space="preserve" text-anchor="middle" x="323" y="-62.5" font-family="Helvetica,sans-Serif" font-size="10.00">stdio.h</text>
</a>
</g>
</g>
<!-- Node1&#45;&gt;Node7 -->
<g id="edge6_Node000001_Node000007" class="edge">
<title>Node1&#45;&gt;Node7</title>
<g id="a_edge6_Node000001_Node000007"><a xlink:title=" ">
<path fill="none" stroke="#63b8ff" d="M349.43,-111.59C345.25,-104.55 339.4,-94.67 334.26,-86"/>
<polygon fill="#63b8ff" stroke="#63b8ff" points="337.39,-84.42 329.28,-77.6 331.37,-87.99 337.39,-84.42"/>
</a>
</g>
</g>
<!-- Node8 -->
<g id="Node000008" class="node">
<title>Node8</title>
<g id="a_Node000008"><a xlink:title=" ">
<polygon fill="#e0e0e0" stroke="#999999" points="410.75,-76 363.25,-76 363.25,-56 410.75,-56 410.75,-76"/>
<text xml:space="preserve" text-anchor="middle" x="387" y="-62.5" font-family="Helvetica,sans-Serif" font-size="10.00">stdlib.h</text>
</a>
</g>
</g>
<!-- Node1&#45;&gt;Node8 -->
<g id="edge7_Node000001_Node000008" class="edge">
<title>Node1&#45;&gt;Node8</title>
<g id="a_edge7_Node000001_Node000008"><a xlink:title=" ">
<path fill="none" stroke="#63b8ff" d="M360.57,-111.59C364.75,-104.55 370.6,-94.67 375.74,-86"/>
<polygon fill="#63b8ff" stroke="#63b8ff" points="378.63,-87.99 380.72,-77.6 372.61,-84.42 378.63,-87.99"/>
</a>
</g>
</g>
<!-- Node9 -->
<g id="Node000009" class="node">
<title>Node9</title>
<g id="a_Node000009"><a xlink:title=" ">
<polygon fill="#e0e0e0" stroke="#999999" points="477.12,-76 428.88,-76 428.88,-56 477.12,-56 477.12,-76"/>
<text xml:space="preserve" text-anchor="middle" x="453" y="-62.5" font-family="Helvetica,sans-Serif" font-size="10.00">string.h</text>
</a>
</g>
</g>
<!-- Node1&#45;&gt;Node9 -->
<g id="edge8_Node000001_Node000009" class="edge">
<title>Node1&#45;&gt;Node9</title>
<g id="a_edge8_Node000001_Node000009"><a xlink:title=" ">
<path fill="none" stroke="#63b8ff" d="M372.07,-111.59C386.88,-103.44 408.57,-91.48 425.77,-82"/>
<polygon fill="#63b8ff" stroke="#63b8ff" points="427.4,-85.1 434.47,-77.21 424.02,-78.97 427.4,-85.1"/>
</a>
</g>
</g>
<!-- Node10 -->
<g id="Node000010" class="node">
<title>Node10</title>
<g id="a_Node000010"><a xlink:title=" ">
<polygon fill="#e0e0e0" stroke="#999999" points="550.88,-76 495.12,-76 495.12,-56 550.88,-56 550.88,-76"/>
<text xml:space="preserve" text-anchor="middle" x="523" y="-62.5" font-family="Helvetica,sans-Serif" font-size="10.00">sodium.h</text>
</a>
</g>
</g>
<!-- Node1&#45;&gt;Node10 -->
<g id="edge9_Node000001_Node000010" class="edge">
<title>Node1&#45;&gt;Node10</title>
<g id="a_edge9_Node000001_Node000010"><a xlink:title=" ">
<path fill="none" stroke="#63b8ff" d="M384.26,-111.59C411.89,-102.71 453.52,-89.33 483.97,-79.55"/>
<polygon fill="#63b8ff" stroke="#63b8ff" points="484.74,-82.97 493.19,-76.58 482.6,-76.31 484.74,-82.97"/>
</a>
</g>
</g>
<!-- Node11 -->
<g id="Node000011" class="node">
<title>Node11</title>
<g id="a_Node000011"><a xlink:title=" ">
<polygon fill="#e0e0e0" stroke="#999999" points="624.88,-76 569.12,-76 569.12,-56 624.88,-56 624.88,-76"/>
<text xml:space="preserve" text-anchor="middle" x="597" y="-62.5" font-family="Helvetica,sans-Serif" font-size="10.00">stdbool.h</text>
</a>
</g>
</g>
<!-- Node1&#45;&gt;Node11 -->
<g id="edge10_Node000001_Node000011" class="edge">
<title>Node1&#45;&gt;Node11</title>
<g id="a_edge10_Node000001_Node000011"><a xlink:title=" ">
<path fill="none" stroke="#63b8ff" d="M398.26,-111.8C437.44,-103.4 497.03,-90.46 557.78,-76.48"/>
<polygon fill="#63b8ff" stroke="#63b8ff" points="558.3,-79.95 567.26,-74.29 556.73,-73.13 558.3,-79.95"/>
</a>
</g>
</g>
<!-- Node3 -->
<g id="Node000003" class="node">
<title>Node3</title>
<g id="a_Node000003"><a xlink:title=" ">
<polygon fill="#e0e0e0" stroke="#999999" points="57.62,-20 6.38,-20 6.38,0 57.62,0 57.62,-20"/>
<text xml:space="preserve" text-anchor="middle" x="32" y="-6.5" font-family="Helvetica,sans-Serif" font-size="10.00">stddef.h</text>
</a>
</g>
</g>
<!-- Node2&#45;&gt;Node3 -->
<g id="edge2_Node000002_Node000003" class="edge">
<title>Node2&#45;&gt;Node3</title>
<g id="a_edge2_Node000002_Node000003"><a xlink:title=" ">
<path fill="none" stroke="#63b8ff" d="M32,-55.59C32,-49.01 32,-39.96 32,-31.73"/>
<polygon fill="#63b8ff" stroke="#63b8ff" points="35.5,-31.81 32,-21.81 28.5,-31.81 35.5,-31.81"/>
</a>
</g>
</g>
<!-- Node5 -->
<g id="Node000005" class="node">
<title>Node5</title>
<g id="a_Node000005"><a xlink:title=" ">
<polygon fill="#e0e0e0" stroke="#999999" points="150.12,-20 101.88,-20 101.88,0 150.12,0 150.12,-20"/>
<text xml:space="preserve" text-anchor="middle" x="126" y="-6.5" font-family="Helvetica,sans-Serif" font-size="10.00">stdint.h</text>
</a>
</g>
</g>
<!-- Node4&#45;&gt;Node5 -->
<g id="edge4_Node000004_Node000005" class="edge">
<title>Node4&#45;&gt;Node5</title>
<g id="a_edge4_Node000004_Node000005"><a xlink:title=" ">
<path fill="none" stroke="#63b8ff" d="M126,-55.59C126,-49.01 126,-39.96 126,-31.73"/>
<polygon fill="#63b8ff" stroke="#63b8ff" points="129.5,-31.81 126,-21.81 122.5,-31.81 129.5,-31.81"/>
</a>
</g>
</g>
</g>
</svg>
