<?xml version="1.0" encoding="UTF-8" standalone="no"?>
<!DOCTYPE svg PUBLIC "-//W3C//DTD SVG 1.1//EN"
 "http://www.w3.org/Graphics/SVG/1.1/DTD/svg11.dtd">
<!-- Generated by graphviz version 14.0.5 (0)
 -->
<!-- Title: core/password_generator.c Pages: 1 -->
<svg width="326pt" height="140pt"
 viewBox="0.00 0.00 326.00 140.00" xmlns="http://www.w3.org/2000/svg" xmlns:xlink="http://www.w3.org/1999/xlink">
<g id="graph0" class="graph" transform="scale(1 1) rotate(0) translate(4 136)">
<title>core/password_generator.c</title>
<!-- Node1 -->
<g id="Node000001" class="node">
<title>Node1</title>
<g id="a_Node000001"><a xlink:title=" ">
<polygon fill="#999999" stroke="#666666" points="255.88,-132 122.12,-132 122.12,-112 255.88,-112 255.88,-132"/>
<text xml:space="preserve" text-anchor="middle" x="189" y="-118.5" font-family="Helvetica,sans-Serif" font-size="10.00">core/password_generator.c</text>
</a>
</g>
</g>
<!-- Node2 -->
<g id="Node000002" class="node">
<title>Node2</title>
<g id="a_Node000002"><a xlink:href="password__generator_8h.html" target="_top" xlink:title=" ">
<polygon fill="white" stroke="#666666" points="112,-76 0,-76 0,-56 112,-56 112,-76"/>
<text xml:space="preserve" text-anchor="middle" x="56" y="-62.5" font-family="Helvetica,sans-Serif" font-size="10.00">password_generator.h</text>
</a>
</g>
</g>
<!-- Node1&#45;&gt;Node2 -->
<g id="edge1_Node000001_Node000002" class="edge">
<title>Node1&#45;&gt;Node2</title>
<g id="a_edge1_Node000001_Node000002"><a xlink:title=" ">
<path fill="none" stroke="#63b8ff" d="M165.83,-111.59C144.79,-103.05 113.5,-90.35 89.7,-80.68"/>
<polygon fill="#63b8ff" stroke="#63b8ff" points="91.33,-77.57 80.75,-77.05 88.7,-84.05 91.33,-77.57"/>
</a>
</g>
</g>
<!-- Node4 -->
<g id="Node000004" class="node">
<title>Node4</title>
<g id="a_Node000004"><a xlink:title=" ">
<polygon fill="#e0e0e0" stroke="#999999" points="178.12,-76 129.88,-76 129.88,-56 178.12,-56 178.12,-76"/>
<text xml:space="preserve" text-anchor="middle" x="154" y="-62.5" font-family="Helvetica,sans-Serif" font-size="10.00">string.h</text>
</a>
</g>
</g>
<!-- Node1&#45;&gt;Node4 -->
<g id="edge3_Node000001_Node000004" class="edge">
<title>Node1&#45;&gt;Node4</title>
<g id="a_edge3_Node000001_Node000004"><a xlink:title=" ">
<path fill="none" stroke="#63b8ff" d="M182.9,-111.59C178.29,-104.47 171.79,-94.45 166.13,-85.72"/>
<polygon fill="#63b8ff" stroke="#63b8ff" points="169.23,-84.06 160.85,-77.57 163.35,-87.86 169.23,-84.06"/>
</a>
</g>
</g>
<!-- Node5 -->
<g id="Node000005" class="node">
<title>Node5</title>
<g id="a_Node000005"><a xlink:title=" ">
<polygon fill="#e0e0e0" stroke="#999999" points="251.88,-76 196.12,-76 196.12,-56 251.88,-56 251.88,-76"/>
<text xml:space="preserve" text-anchor="middle" x="224" y="-62.5" font-family="Helvetica,sans-Serif" font-size="10.00">sodium.h</text>
</a>
</g>
</g>
<!-- Node1&#45;&gt;Node5 -->
<g id="edge4_Node000001_Node000005" class="edge">
<title>Node1&#45;&gt;Node5</title>
<g id="a_edge4_Node000001_Node000005"><a xlink:title=" ">
<path fill="none" stroke="#63b8ff" d="M195.1,-111.59C199.71,-104.47 206.21,-94.45 211.87,-85.72"/>
<polygon fill="#63b8ff" stroke="#63b8ff" points="214.65,-87.86 217.15,-77.57 208.77,-84.06 214.65,-87.86"/>
</a>
</g>
</g>
<!-- Node6 -->
<g id="Node000006" class="node">
<title>Node6</title>
<g id="a_Node000006"><a xlink:title=" ">
<polygon fill="#e0e0e0" stroke="#999999" points="317.75,-76 270.25,-76 270.25,-56 317.75,-56 317.75,-76"/>
<text xml:space="preserve" text-anchor="middle" x="294" y="-62.5" font-family="Helvetica,sans-Serif" font-size="10.00">stdlib.h</text>
</a>
</g>
</g>
<!-- Node1&#45;&gt;Node6 -->
<g id="edge5_Node000001_Node000006" class="edge">
<title>Node1&#45;&gt;Node6</title>
<g id="a_edge5_Node000001_Node000006"><a xlink:title=" ">
<path fill="none" stroke="#63b8ff" d="M207.29,-111.59C223.3,-103.36 246.83,-91.26 265.34,-81.74"/>
<polygon fill="#63b8ff" stroke="#63b8ff" points="266.93,-84.86 274.22,-77.17 263.73,-78.63 266.93,-84.86"/>
</a>
</g>
</g>
<!-- Node3 -->
<g id="Node000003" class="node">
<title>Node3</title>
<g id="a_Node000003"><a xlink:title=" ">
<polygon fill="#e0e0e0" stroke="#999999" points="83.88,-20 28.13,-20 28.13,0 83.88,0 83.88,-20"/>
<text xml:space="preserve" text-anchor="middle" x="56" y="-6.5" font-family="Helvetica,sans-Serif" font-size="10.00">stdbool.h</text>
</a>
</g>
</g>
<!-- Node2&#45;&gt;Node3 -->
<g id="edge2_Node000002_Node000003" class="edge">
<title>Node2&#45;&gt;Node3</title>
<g id="a_edge2_Node000002_Node000003"><a xlink:title=" ">
<path fill="none" stroke="#63b8ff" d="M56,-55.59C56,-49.01 56,-39.96 56,-31.73"/>
<polygon fill="#63b8ff" stroke="#63b8ff" points="59.5,-31.81 56,-21.81 52.5,-31.81 59.5,-31.81"/>
</a>
</g>
</g>
</g>
</svg>
