<?xml version="1.0" encoding="UTF-8" standalone="no"?>
<!DOCTYPE svg PUBLIC "-//W3C//DTD SVG 1.1//EN"
 "http://www.w3.org/Graphics/SVG/1.1/DTD/svg11.dtd">
<!-- Generated by graphviz version 14.0.2 (0)
 -->
<!-- Title: core/pwned_check.c Pages: 1 -->
<svg width="460pt" height="84pt"
 viewBox="0.00 0.00 460.00 84.00" xmlns="http://www.w3.org/2000/svg" xmlns:xlink="http://www.w3.org/1999/xlink">
<g id="graph0" class="graph" transform="scale(1 1) rotate(0) translate(4 80)">
<title>core/pwned_check.c</title>
<!-- Node1 -->
<g id="Node000001" class="node">
<title>Node1</title>
<g id="a_Node000001"><a xlink:title=" ">
<polygon fill="#999999" stroke="#666666" points="316.12,-76 210.12,-76 210.12,-56 316.12,-56 316.12,-76"/>
<text xml:space="preserve" text-anchor="middle" x="263.12" y="-62.5" font-family="Helvetica,sans-Serif" font-size="10.00">core/pwned_check.c</text>
</a>
</g>
</g>
<!-- Node2 -->
<g id="Node000002" class="node">
<title>Node2</title>
<g id="a_Node000002"><a xlink:href="pwned__check_8h.html" target="_top" xlink:title=" ">
<polygon fill="white" stroke="#666666" points="84.25,-20 0,-20 0,0 84.25,0 84.25,-20"/>
<text xml:space="preserve" text-anchor="middle" x="42.12" y="-6.5" font-family="Helvetica,sans-Serif" font-size="10.00">pwned_check.h</text>
</a>
</g>
</g>
<!-- Node1&#45;&gt;Node2 -->
<g id="edge1_Node000001_Node000002" class="edge">
<title>Node1&#45;&gt;Node2</title>
<g id="a_edge1_Node000001_Node000002"><a xlink:title=" ">
<path fill="none" stroke="#63b8ff" d="M224.38,-55.53C187.57,-46.54 132.04,-32.97 91.96,-23.18"/>
<polygon fill="#63b8ff" stroke="#63b8ff" points="92.84,-19.79 82.3,-20.82 91.18,-26.59 92.84,-19.79"/>
</a>
</g>
</g>
<!-- Node3 -->
<g id="Node000003" class="node">
<title>Node3</title>
<g id="a_Node000003"><a xlink:title=" ">
<polygon fill="#e0e0e0" stroke="#999999" points="179.5,-20 102.75,-20 102.75,0 179.5,0 179.5,-20"/>
<text xml:space="preserve" text-anchor="middle" x="141.12" y="-6.5" font-family="Helvetica,sans-Serif" font-size="10.00">openssl/sha.h</text>
</a>
</g>
</g>
<!-- Node1&#45;&gt;Node3 -->
<g id="edge2_Node000001_Node000003" class="edge">
<title>Node1&#45;&gt;Node3</title>
<g id="a_edge2_Node000001_Node000003"><a xlink:title=" ">
<path fill="none" stroke="#63b8ff" d="M241.87,-55.59C222.84,-47.17 194.65,-34.69 172.92,-25.07"/>
<polygon fill="#63b8ff" stroke="#63b8ff" points="174.49,-21.94 163.93,-21.09 171.65,-28.34 174.49,-21.94"/>
</a>
</g>
</g>
<!-- Node4 -->
<g id="Node000004" class="node">
<title>Node4</title>
<g id="a_Node000004"><a xlink:title=" ">
<polygon fill="#e0e0e0" stroke="#999999" points="256.5,-20 197.75,-20 197.75,0 256.5,0 256.5,-20"/>
<text xml:space="preserve" text-anchor="middle" x="227.12" y="-6.5" font-family="Helvetica,sans-Serif" font-size="10.00">curl/curl.h</text>
</a>
</g>
</g>
<!-- Node1&#45;&gt;Node4 -->
<g id="edge3_Node000001_Node000004" class="edge">
<title>Node1&#45;&gt;Node4</title>
<g id="a_edge3_Node000001_Node000004"><a xlink:title=" ">
<path fill="none" stroke="#63b8ff" d="M256.85,-55.59C252.11,-48.47 245.43,-38.45 239.6,-29.72"/>
<polygon fill="#63b8ff" stroke="#63b8ff" points="242.62,-27.94 234.16,-21.56 236.8,-31.82 242.62,-27.94"/>
</a>
</g>
</g>
<!-- Node5 -->
<g id="Node000005" class="node">
<title>Node5</title>
<g id="a_Node000005"><a xlink:title=" ">
<polygon fill="#e0e0e0" stroke="#999999" points="323.25,-20 275,-20 275,0 323.25,0 323.25,-20"/>
<text xml:space="preserve" text-anchor="middle" x="299.12" y="-6.5" font-family="Helvetica,sans-Serif" font-size="10.00">string.h</text>
</a>
</g>
</g>
<!-- Node1&#45;&gt;Node5 -->
<g id="edge4_Node000001_Node000005" class="edge">
<title>Node1&#45;&gt;Node5</title>
<g id="a_edge4_Node000001_Node000005"><a xlink:title=" ">
<path fill="none" stroke="#63b8ff" d="M269.4,-55.59C274.14,-48.47 280.82,-38.45 286.65,-29.72"/>
<polygon fill="#63b8ff" stroke="#63b8ff" points="289.45,-31.82 292.09,-21.56 283.63,-27.94 289.45,-31.82"/>
</a>
</g>
</g>
<!-- Node6 -->
<g id="Node000006" class="node">
<title>Node6</title>
<g id="a_Node000006"><a xlink:title=" ">
<polygon fill="#e0e0e0" stroke="#999999" points="388.88,-20 341.38,-20 341.38,0 388.88,0 388.88,-20"/>
<text xml:space="preserve" text-anchor="middle" x="365.12" y="-6.5" font-family="Helvetica,sans-Serif" font-size="10.00">stdlib.h</text>
</a>
</g>
</g>
<!-- Node1&#45;&gt;Node6 -->
<g id="edge5_Node000001_Node000006" class="edge">
<title>Node1&#45;&gt;Node6</title>
<g id="a_edge5_Node000001_Node000006"><a xlink:title=" ">
<path fill="none" stroke="#63b8ff" d="M280.89,-55.59C296.45,-47.36 319.31,-35.26 337.29,-25.74"/>
<polygon fill="#63b8ff" stroke="#63b8ff" points="338.68,-28.96 345.88,-21.19 335.41,-22.77 338.68,-28.96"/>
</a>
</g>
</g>
<!-- Node7 -->
<g id="Node000007" class="node">
<title>Node7</title>
<g id="a_Node000007"><a xlink:title=" ">
<polygon fill="#e0e0e0" stroke="#999999" points="451.75,-20 406.5,-20 406.5,0 451.75,0 451.75,-20"/>
<text xml:space="preserve" text-anchor="middle" x="429.12" y="-6.5" font-family="Helvetica,sans-Serif" font-size="10.00">stdio.h</text>
</a>
</g>
</g>
<!-- Node1&#45;&gt;Node7 -->
<g id="edge6_Node000001_Node000007" class="edge">
<title>Node1&#45;&gt;Node7</title>
<g id="a_edge6_Node000001_Node000007"><a xlink:title=" ">
<path fill="none" stroke="#63b8ff" d="M292.04,-55.59C320.79,-46.24 364.86,-31.9 395.24,-22.02"/>
<polygon fill="#63b8ff" stroke="#63b8ff" points="396.28,-25.36 404.71,-18.94 394.12,-18.71 396.28,-25.36"/>
</a>
</g>
</g>
</g>
</svg>
