<?xml version="1.0" encoding="UTF-8" standalone="no"?>
<!DOCTYPE svg PUBLIC "-//W3C//DTD SVG 1.1//EN"
 "http://www.w3.org/Graphics/SVG/1.1/DTD/svg11.dtd">
<!-- Generated by graphviz version 2.43.0 (0)
 -->
<!-- Title: core/database.c Pages: 1 -->
<svg width="645pt" height="137pt"
 viewBox="0.00 0.00 644.50 137.00" xmlns="http://www.w3.org/2000/svg" xmlns:xlink="http://www.w3.org/1999/xlink">
<g id="graph0" class="graph" transform="scale(1 1) rotate(0) translate(4 133)">
<title>core/database.c</title>
<!-- Node1 -->
<g id="Node000001" class="node">
<title>Node1</title>
<g id="a_Node000001"><a xlink:title=" ">
<polygon fill="#999999" stroke="#666666" points="390.5,-129 296.5,-129 296.5,-110 390.5,-110 390.5,-129"/>
<text text-anchor="middle" x="343.5" y="-117" font-family="Helvetica,sans-Serif" font-size="10.00">core/database.c</text>
</a>
</g>
</g>
<!-- Node2 -->
<g id="Node000002" class="node">
<title>Node2</title>
<g id="a_Node000002"><a xlink:href="database_8h.html" target="_top" xlink:title=" ">
<polygon fill="white" stroke="#666666" points="71,-74 0,-74 0,-55 71,-55 71,-74"/>
<text text-anchor="middle" x="35.5" y="-62" font-family="Helvetica,sans-Serif" font-size="10.00">database.h</text>
</a>
</g>
</g>
<!-- Node1&#45;&gt;Node2 -->
<g id="edge1_Node000001_Node000002" class="edge">
<title>Node1&#45;&gt;Node2</title>
<g id="a_edge1_Node000001_Node000002"><a xlink:title=" ">
<path fill="none" stroke="#63b8ff" d="M296.42,-110.81C245.82,-102.49 162.75,-88.64 81.28,-74.11"/>
<polygon fill="#63b8ff" stroke="#63b8ff" points="81.81,-70.65 71.35,-72.34 80.58,-77.54 81.81,-70.65"/>
</a>
</g>
</g>
<!-- Node4 -->
<g id="Node000004" class="node">
<title>Node4</title>
<g id="a_Node000004"><a xlink:href="key__derivation_8h.html" target="_top" xlink:title=" ">
<polygon fill="white" stroke="#666666" points="187.5,-74 89.5,-74 89.5,-55 187.5,-55 187.5,-74"/>
<text text-anchor="middle" x="138.5" y="-62" font-family="Helvetica,sans-Serif" font-size="10.00">key_derivation.h</text>
</a>
</g>
</g>
<!-- Node1&#45;&gt;Node4 -->
<g id="edge3_Node000001_Node000004" class="edge">
<title>Node1&#45;&gt;Node4</title>
<g id="a_edge3_Node000001_Node000004"><a xlink:title=" ">
<path fill="none" stroke="#63b8ff" d="M310.56,-109.98C275.55,-100.93 220.03,-86.58 181.57,-76.64"/>
<polygon fill="#63b8ff" stroke="#63b8ff" points="182.25,-73.2 171.69,-74.08 180.5,-79.97 182.25,-73.2"/>
</a>
</g>
</g>
<!-- Node6 -->
<g id="Node000006" class="node">
<title>Node6</title>
<g id="a_Node000006"><a xlink:title=" ">
<polygon fill="#e0e0e0" stroke="#999999" points="265,-74 206,-74 206,-55 265,-55 265,-74"/>
<text text-anchor="middle" x="235.5" y="-62" font-family="Helvetica,sans-Serif" font-size="10.00">sqlite3.h</text>
</a>
</g>
</g>
<!-- Node1&#45;&gt;Node6 -->
<g id="edge5_Node000001_Node000006" class="edge">
<title>Node1&#45;&gt;Node6</title>
<g id="a_edge5_Node000001_Node000006"><a xlink:title=" ">
<path fill="none" stroke="#63b8ff" d="M326.15,-109.98C308.93,-101.54 282.3,-88.47 262.35,-78.68"/>
<polygon fill="#63b8ff" stroke="#63b8ff" points="263.69,-75.43 253.17,-74.17 260.6,-81.72 263.69,-75.43"/>
</a>
</g>
</g>
<!-- Node7 -->
<g id="Node000007" class="node">
<title>Node7</title>
<g id="a_Node000007"><a xlink:title=" ">
<polygon fill="#e0e0e0" stroke="#999999" points="333.5,-74 283.5,-74 283.5,-55 333.5,-55 333.5,-74"/>
<text text-anchor="middle" x="308.5" y="-62" font-family="Helvetica,sans-Serif" font-size="10.00">stdio.h</text>
</a>
</g>
</g>
<!-- Node1&#45;&gt;Node7 -->
<g id="edge6_Node000001_Node000007" class="edge">
<title>Node1&#45;&gt;Node7</title>
<g id="a_edge6_Node000001_Node000007"><a xlink:title=" ">
<path fill="none" stroke="#63b8ff" d="M337.72,-109.75C332.88,-102.42 325.82,-91.73 319.86,-82.7"/>
<polygon fill="#63b8ff" stroke="#63b8ff" points="322.6,-80.5 314.17,-74.09 316.76,-84.36 322.6,-80.5"/>
</a>
</g>
</g>
<!-- Node8 -->
<g id="Node000008" class="node">
<title>Node8</title>
<g id="a_Node000008"><a xlink:title=" ">
<polygon fill="#e0e0e0" stroke="#999999" points="405,-74 352,-74 352,-55 405,-55 405,-74"/>
<text text-anchor="middle" x="378.5" y="-62" font-family="Helvetica,sans-Serif" font-size="10.00">stdlib.h</text>
</a>
</g>
</g>
<!-- Node1&#45;&gt;Node8 -->
<g id="edge7_Node000001_Node000008" class="edge">
<title>Node1&#45;&gt;Node8</title>
<g id="a_edge7_Node000001_Node000008"><a xlink:title=" ">
<path fill="none" stroke="#63b8ff" d="M349.28,-109.75C354.12,-102.42 361.18,-91.73 367.14,-82.7"/>
<polygon fill="#63b8ff" stroke="#63b8ff" points="370.24,-84.36 372.83,-74.09 364.4,-80.5 370.24,-84.36"/>
</a>
</g>
</g>
<!-- Node9 -->
<g id="Node000009" class="node">
<title>Node9</title>
<g id="a_Node000009"><a xlink:title=" ">
<polygon fill="#e0e0e0" stroke="#999999" points="476,-74 423,-74 423,-55 476,-55 476,-74"/>
<text text-anchor="middle" x="449.5" y="-62" font-family="Helvetica,sans-Serif" font-size="10.00">string.h</text>
</a>
</g>
</g>
<!-- Node1&#45;&gt;Node9 -->
<g id="edge8_Node000001_Node000009" class="edge">
<title>Node1&#45;&gt;Node9</title>
<g id="a_edge8_Node000001_Node000009"><a xlink:title=" ">
<path fill="none" stroke="#63b8ff" d="M360.53,-109.98C377.43,-101.54 403.56,-88.47 423.14,-78.68"/>
<polygon fill="#63b8ff" stroke="#63b8ff" points="424.78,-81.77 432.16,-74.17 421.65,-75.51 424.78,-81.77"/>
</a>
</g>
</g>
<!-- Node10 -->
<g id="Node000010" class="node">
<title>Node10</title>
<g id="a_Node000010"><a xlink:title=" ">
<polygon fill="#e0e0e0" stroke="#999999" points="556.5,-74 494.5,-74 494.5,-55 556.5,-55 556.5,-74"/>
<text text-anchor="middle" x="525.5" y="-62" font-family="Helvetica,sans-Serif" font-size="10.00">sodium.h</text>
</a>
</g>
</g>
<!-- Node1&#45;&gt;Node10 -->
<g id="edge9_Node000001_Node000010" class="edge">
<title>Node1&#45;&gt;Node10</title>
<g id="a_edge9_Node000001_Node000010"><a xlink:title=" ">
<path fill="none" stroke="#63b8ff" d="M372.74,-109.98C403.56,-101.01 452.28,-86.82 486.39,-76.89"/>
<polygon fill="#63b8ff" stroke="#63b8ff" points="487.41,-80.24 496.03,-74.08 485.45,-73.52 487.41,-80.24"/>
</a>
</g>
</g>
<!-- Node11 -->
<g id="Node000011" class="node">
<title>Node11</title>
<g id="a_Node000011"><a xlink:title=" ">
<polygon fill="#e0e0e0" stroke="#999999" points="636.5,-74 574.5,-74 574.5,-55 636.5,-55 636.5,-74"/>
<text text-anchor="middle" x="605.5" y="-62" font-family="Helvetica,sans-Serif" font-size="10.00">stdbool.h</text>
</a>
</g>
</g>
<!-- Node1&#45;&gt;Node11 -->
<g id="edge10_Node000001_Node000011" class="edge">
<title>Node1&#45;&gt;Node11</title>
<g id="a_edge10_Node000001_Node000011"><a xlink:title=" ">
<path fill="none" stroke="#63b8ff" d="M386.92,-109.95C429.59,-101.51 496.85,-88.13 564.51,-74.19"/>
<polygon fill="#63b8ff" stroke="#63b8ff" points="565.41,-77.57 574.5,-72.12 564,-70.72 565.41,-77.57"/>
</a>
</g>
</g>
<!-- Node3 -->
<g id="Node000003" class="node">
<title>Node3</title>
<g id="a_Node000003"><a xlink:title=" ">
<polygon fill="#e0e0e0" stroke="#999999" points="63.5,-19 7.5,-19 7.5,0 63.5,0 63.5,-19"/>
<text text-anchor="middle" x="35.5" y="-7" font-family="Helvetica,sans-Serif" font-size="10.00">stddef.h</text>
</a>
</g>
</g>
<!-- Node2&#45;&gt;Node3 -->
<g id="edge2_Node000002_Node000003" class="edge">
<title>Node2&#45;&gt;Node3</title>
<g id="a_edge2_Node000002_Node000003"><a xlink:title=" ">
<path fill="none" stroke="#63b8ff" d="M35.5,-54.75C35.5,-47.8 35.5,-37.85 35.5,-29.13"/>
<polygon fill="#63b8ff" stroke="#63b8ff" points="39,-29.09 35.5,-19.09 32,-29.09 39,-29.09"/>
</a>
</g>
</g>
<!-- Node5 -->
<g id="Node000005" class="node">
<title>Node5</title>
<g id="a_Node000005"><a xlink:title=" ">
<polygon fill="#e0e0e0" stroke="#999999" points="165,-19 112,-19 112,0 165,0 165,-19"/>
<text text-anchor="middle" x="138.5" y="-7" font-family="Helvetica,sans-Serif" font-size="10.00">stdint.h</text>
</a>
</g>
</g>
<!-- Node4&#45;&gt;Node5 -->
<g id="edge4_Node000004_Node000005" class="edge">
<title>Node4&#45;&gt;Node5</title>
<g id="a_edge4_Node000004_Node000005"><a xlink:title=" ">
<path fill="none" stroke="#63b8ff" d="M138.5,-54.75C138.5,-47.8 138.5,-37.85 138.5,-29.13"/>
<polygon fill="#63b8ff" stroke="#63b8ff" points="142,-29.09 138.5,-19.09 135,-29.09 142,-29.09"/>
</a>
</g>
</g>
</g>
</svg>
