<?xml version="1.0" encoding="UTF-8" standalone="no"?>
<!DOCTYPE svg PUBLIC "-//W3C//DTD SVG 1.1//EN"
 "http://www.w3.org/Graphics/SVG/1.1/DTD/svg11.dtd">
<!-- Generated by graphviz version 14.0.2 (0)
 -->
<!-- Title: core/key_derivation.c Pages: 1 -->
<svg width="371pt" height="140pt"
 viewBox="0.00 0.00 371.00 140.00" xmlns="http://www.w3.org/2000/svg" xmlns:xlink="http://www.w3.org/1999/xlink">
<g id="graph0" class="graph" transform="scale(1 1) rotate(0) translate(4 136)">
<title>core/key_derivation.c</title>
<!-- Node1 -->
<g id="Node000001" class="node">
<title>Node1</title>
<g id="a_Node000001"><a xlink:title=" ">
<polygon fill="#999999" stroke="#666666" points="259.12,-132 150.12,-132 150.12,-112 259.12,-112 259.12,-132"/>
<text xml:space="preserve" text-anchor="middle" x="204.62" y="-118.5" font-family="Helvetica,sans-Serif" font-size="10.00">core/key_derivation.c</text>
</a>
</g>
</g>
<!-- Node2 -->
<g id="Node000002" class="node">
<title>Node2</title>
<g id="a_Node000002"><a xlink:href="key__derivation_8h.html" target="_top" xlink:title=" ">
<polygon fill="white" stroke="#666666" points="87.25,-76 0,-76 0,-56 87.25,-56 87.25,-76"/>
<text xml:space="preserve" text-anchor="middle" x="43.62" y="-62.5" font-family="Helvetica,sans-Serif" font-size="10.00">key_derivation.h</text>
</a>
</g>
</g>
<!-- Node1&#45;&gt;Node2 -->
<g id="edge1_Node000001_Node000002" class="edge">
<title>Node1&#45;&gt;Node2</title>
<g id="a_edge1_Node000001_Node000002"><a xlink:title=" ">
<path fill="none" stroke="#63b8ff" d="M176.58,-111.59C150.54,-102.86 111.52,-89.77 82.48,-80.03"/>
<polygon fill="#63b8ff" stroke="#63b8ff" points="83.92,-76.82 73.32,-76.96 81.69,-83.46 83.92,-76.82"/>
</a>
</g>
</g>
<!-- Node4 -->
<g id="Node000004" class="node">
<title>Node4</title>
<g id="a_Node000004"><a xlink:title=" ">
<polygon fill="#e0e0e0" stroke="#999999" points="158.38,-76 104.88,-76 104.88,-56 158.38,-56 158.38,-76"/>
<text xml:space="preserve" text-anchor="middle" x="131.62" y="-62.5" font-family="Helvetica,sans-Serif" font-size="10.00">argon2.h</text>
</a>
</g>
</g>
<!-- Node1&#45;&gt;Node4 -->
<g id="edge3_Node000001_Node000004" class="edge">
<title>Node1&#45;&gt;Node4</title>
<g id="a_edge3_Node000001_Node000004"><a xlink:title=" ">
<path fill="none" stroke="#63b8ff" d="M191.91,-111.59C181.23,-103.7 165.75,-92.24 153.14,-82.92"/>
<polygon fill="#63b8ff" stroke="#63b8ff" points="155.53,-80.33 145.41,-77.2 151.37,-85.96 155.53,-80.33"/>
</a>
</g>
</g>
<!-- Node5 -->
<g id="Node000005" class="node">
<title>Node5</title>
<g id="a_Node000005"><a xlink:title=" ">
<polygon fill="#e0e0e0" stroke="#999999" points="232.5,-76 176.75,-76 176.75,-56 232.5,-56 232.5,-76"/>
<text xml:space="preserve" text-anchor="middle" x="204.62" y="-62.5" font-family="Helvetica,sans-Serif" font-size="10.00">sodium.h</text>
</a>
</g>
</g>
<!-- Node1&#45;&gt;Node5 -->
<g id="edge4_Node000001_Node000005" class="edge">
<title>Node1&#45;&gt;Node5</title>
<g id="a_edge4_Node000001_Node000005"><a xlink:title=" ">
<path fill="none" stroke="#63b8ff" d="M204.62,-111.59C204.62,-105.01 204.62,-95.96 204.62,-87.73"/>
<polygon fill="#63b8ff" stroke="#63b8ff" points="208.13,-87.81 204.63,-77.81 201.13,-87.81 208.13,-87.81"/>
</a>
</g>
</g>
<!-- Node6 -->
<g id="Node000006" class="node">
<title>Node6</title>
<g id="a_Node000006"><a xlink:title=" ">
<polygon fill="#e0e0e0" stroke="#999999" points="296.25,-76 251,-76 251,-56 296.25,-56 296.25,-76"/>
<text xml:space="preserve" text-anchor="middle" x="273.62" y="-62.5" font-family="Helvetica,sans-Serif" font-size="10.00">stdio.h</text>
</a>
</g>
</g>
<!-- Node1&#45;&gt;Node6 -->
<g id="edge5_Node000001_Node000006" class="edge">
<title>Node1&#45;&gt;Node6</title>
<g id="a_edge5_Node000001_Node000006"><a xlink:title=" ">
<path fill="none" stroke="#63b8ff" d="M216.64,-111.59C226.64,-103.77 241.09,-92.46 252.93,-83.19"/>
<polygon fill="#63b8ff" stroke="#63b8ff" points="254.83,-86.15 260.55,-77.23 250.52,-80.64 254.83,-86.15"/>
</a>
</g>
</g>
<!-- Node7 -->
<g id="Node000007" class="node">
<title>Node7</title>
<g id="a_Node000007"><a xlink:title=" ">
<polygon fill="#e0e0e0" stroke="#999999" points="362.75,-76 314.5,-76 314.5,-56 362.75,-56 362.75,-76"/>
<text xml:space="preserve" text-anchor="middle" x="338.62" y="-62.5" font-family="Helvetica,sans-Serif" font-size="10.00">string.h</text>
</a>
</g>
</g>
<!-- Node1&#45;&gt;Node7 -->
<g id="edge6_Node000001_Node000007" class="edge">
<title>Node1&#45;&gt;Node7</title>
<g id="a_edge6_Node000001_Node000007"><a xlink:title=" ">
<path fill="none" stroke="#63b8ff" d="M227.97,-111.59C249.16,-103.05 280.69,-90.35 304.68,-80.68"/>
<polygon fill="#63b8ff" stroke="#63b8ff" points="305.73,-84.03 313.7,-77.05 303.11,-77.54 305.73,-84.03"/>
</a>
</g>
</g>
<!-- Node3 -->
<g id="Node000003" class="node">
<title>Node3</title>
<g id="a_Node000003"><a xlink:title=" ">
<polygon fill="#e0e0e0" stroke="#999999" points="67.75,-20 19.5,-20 19.5,0 67.75,0 67.75,-20"/>
<text xml:space="preserve" text-anchor="middle" x="43.62" y="-6.5" font-family="Helvetica,sans-Serif" font-size="10.00">stdint.h</text>
</a>
</g>
</g>
<!-- Node2&#45;&gt;Node3 -->
<g id="edge2_Node000002_Node000003" class="edge">
<title>Node2&#45;&gt;Node3</title>
<g id="a_edge2_Node000002_Node000003"><a xlink:title=" ">
<path fill="none" stroke="#63b8ff" d="M43.62,-55.59C43.62,-49.01 43.62,-39.96 43.62,-31.73"/>
<polygon fill="#63b8ff" stroke="#63b8ff" points="47.13,-31.81 43.63,-21.81 40.13,-31.81 47.13,-31.81"/>
</a>
</g>
</g>
</g>
</svg>
