<?xml version="1.0" encoding="UTF-8" standalone="no"?>
<!DOCTYPE svg PUBLIC "-//W3C//DTD SVG 1.1//EN"
 "http://www.w3.org/Graphics/SVG/1.1/DTD/svg11.dtd">
<!-- Generated by graphviz version 2.43.0 (0)
 -->
<!-- Title: gui/mainwindow.cpp Pages: 1 -->
<svg width="2856pt" height="192pt"
 viewBox="0.00 0.00 2855.50 192.00" xmlns="http://www.w3.org/2000/svg" xmlns:xlink="http://www.w3.org/1999/xlink">
<g id="graph0" class="graph" transform="scale(1 1) rotate(0) translate(4 188)">
<title>gui/mainwindow.cpp</title>
<!-- Node1 -->
<g id="Node000001" class="node">
<title>Node1</title>
<g id="a_Node000001"><a xlink:title=" ">
<polygon fill="#999999" stroke="#666666" points="1647,-184 1531,-184 1531,-165 1647,-165 1647,-184"/>
<text text-anchor="middle" x="1589" y="-172" font-family="Helvetica,sans-Serif" font-size="10.00">gui/mainwindow.cpp</text>
</a>
</g>
</g>
<!-- Node2 -->
<g id="Node000002" class="node">
<title>Node2</title>
<g id="a_Node000002"><a xlink:href="mainwindow_8h.html" target="_top" xlink:title=" ">
<polygon fill="white" stroke="#666666" points="412.5,-129 325.5,-129 325.5,-110 412.5,-110 412.5,-129"/>
<text text-anchor="middle" x="369" y="-117" font-family="Helvetica,sans-Serif" font-size="10.00">mainwindow.h</text>
</a>
</g>
</g>
<!-- Node1&#45;&gt;Node2 -->
<g id="edge1_Node000001_Node000002" class="edge">
<title>Node1&#45;&gt;Node2</title>
<g id="a_edge1_Node000001_Node000002"><a xlink:title=" ">
<path fill="none" stroke="#63b8ff" d="M1530.76,-171.56C1368.26,-166.05 896.08,-149.38 504,-129 477.32,-127.61 447.7,-125.78 423.01,-124.17"/>
<polygon fill="#63b8ff" stroke="#63b8ff" points="422.97,-120.66 412.76,-123.5 422.51,-127.65 422.97,-120.66"/>
</a>
</g>
</g>
<!-- Node6 -->
<g id="Node000006" class="node">
<title>Node6</title>
<g id="a_Node000006"><a xlink:href="passwordentry_8h.html" target="_top" xlink:title=" ">
<polygon fill="white" stroke="#666666" points="653,-74 557,-74 557,-55 653,-55 653,-74"/>
<text text-anchor="middle" x="605" y="-62" font-family="Helvetica,sans-Serif" font-size="10.00">passwordentry.h</text>
</a>
</g>
</g>
<!-- Node1&#45;&gt;Node6 -->
<g id="edge36_Node000001_Node000006" class="edge">
<title>Node1&#45;&gt;Node6</title>
<g id="a_edge36_Node000001_Node000006"><a xlink:title=" ">
<path fill="none" stroke="#63b8ff" d="M1530.87,-173.61C1338.34,-173.6 729.26,-170.26 652,-129 633.72,-119.24 620.64,-98.87 613,-83.82"/>
<polygon fill="#63b8ff" stroke="#63b8ff" points="616.01,-82 608.57,-74.45 609.68,-84.99 616.01,-82"/>
</a>
</g>
</g>
<!-- Node8 -->
<g id="Node000008" class="node">
<title>Node8</title>
<g id="a_Node000008"><a xlink:title=" ">
<polygon fill="#e0e0e0" stroke="#999999" points="50,-74 0,-74 0,-55 50,-55 50,-74"/>
<text text-anchor="middle" x="25" y="-62" font-family="Helvetica,sans-Serif" font-size="10.00">QLabel</text>
</a>
</g>
</g>
<!-- Node1&#45;&gt;Node8 -->
<g id="edge48_Node000001_Node000008" class="edge">
<title>Node1&#45;&gt;Node8</title>
<g id="a_edge48_Node000001_Node000008"><a xlink:title=" ">
<path fill="none" stroke="#63b8ff" d="M1530.71,-173.57C1305.56,-173.52 492.5,-170.42 238,-129 171.85,-118.23 97.42,-92.85 56.39,-77.64"/>
<polygon fill="#63b8ff" stroke="#63b8ff" points="57.54,-74.33 46.95,-74.09 55.08,-80.88 57.54,-74.33"/>
</a>
</g>
</g>
<!-- Node9 -->
<g id="Node000009" class="node">
<title>Node9</title>
<g id="a_Node000009"><a xlink:title=" ">
<polygon fill="#e0e0e0" stroke="#999999" points="151.5,-74 68.5,-74 68.5,-55 151.5,-55 151.5,-74"/>
<text text-anchor="middle" x="110" y="-62" font-family="Helvetica,sans-Serif" font-size="10.00">QProgressBar</text>
</a>
</g>
</g>
<!-- Node1&#45;&gt;Node9 -->
<g id="edge49_Node000001_Node000009" class="edge">
<title>Node1&#45;&gt;Node9</title>
<g id="a_edge49_Node000001_Node000009"><a xlink:title=" ">
<path fill="none" stroke="#63b8ff" d="M1530.76,-173.5C1314.03,-173.19 554.37,-169.18 316,-129 252.04,-118.22 180.27,-92.93 140.57,-77.72"/>
<polygon fill="#63b8ff" stroke="#63b8ff" points="141.79,-74.44 131.2,-74.09 139.26,-80.96 141.79,-74.44"/>
</a>
</g>
</g>
<!-- Node10 -->
<g id="Node000010" class="node">
<title>Node10</title>
<g id="a_Node000010"><a xlink:title=" ">
<polygon fill="#e0e0e0" stroke="#999999" points="465.5,-74 412.5,-74 412.5,-55 465.5,-55 465.5,-74"/>
<text text-anchor="middle" x="439" y="-62" font-family="Helvetica,sans-Serif" font-size="10.00">QTimer</text>
</a>
</g>
</g>
<!-- Node1&#45;&gt;Node10 -->
<g id="edge47_Node000001_Node000010" class="edge">
<title>Node1&#45;&gt;Node10</title>
<g id="a_edge47_Node000001_Node000010"><a xlink:title=" ">
<path fill="none" stroke="#63b8ff" d="M1530.87,-172.93C1350.47,-170.85 801.78,-161.89 627,-129 568.82,-118.05 504.04,-93.19 467.73,-78.03"/>
<polygon fill="#63b8ff" stroke="#63b8ff" points="468.85,-74.7 458.27,-74.03 466.12,-81.15 468.85,-74.7"/>
</a>
</g>
</g>
<!-- Node12 -->
<g id="Node000012" class="node">
<title>Node12</title>
<g id="a_Node000012"><a xlink:href="entrydialog_8h.html" target="_top" xlink:title=" ">
<polygon fill="white" stroke="#666666" points="1066.5,-129 985.5,-129 985.5,-110 1066.5,-110 1066.5,-129"/>
<text text-anchor="middle" x="1026" y="-117" font-family="Helvetica,sans-Serif" font-size="10.00">entrydialog.h</text>
</a>
</g>
</g>
<!-- Node1&#45;&gt;Node12 -->
<g id="edge11_Node000001_Node000012" class="edge">
<title>Node1&#45;&gt;Node12</title>
<g id="a_edge11_Node000001_Node000012"><a xlink:title=" ">
<path fill="none" stroke="#63b8ff" d="M1530.97,-169.67C1436.49,-163.15 1243.6,-148.66 1081,-129 1079.53,-128.82 1078.04,-128.64 1076.54,-128.44"/>
<polygon fill="#63b8ff" stroke="#63b8ff" points="1076.89,-124.96 1066.51,-127.07 1075.94,-131.89 1076.89,-124.96"/>
</a>
</g>
</g>
<!-- Node14 -->
<g id="Node000014" class="node">
<title>Node14</title>
<g id="a_Node000014"><a xlink:title=" ">
<polygon fill="#e0e0e0" stroke="#999999" points="847.5,-74 784.5,-74 784.5,-55 847.5,-55 847.5,-74"/>
<text text-anchor="middle" x="816" y="-62" font-family="Helvetica,sans-Serif" font-size="10.00">QLineEdit</text>
</a>
</g>
</g>
<!-- Node1&#45;&gt;Node14 -->
<g id="edge54_Node000001_Node000014" class="edge">
<title>Node1&#45;&gt;Node14</title>
<g id="a_edge54_Node000001_Node000014"><a xlink:title=" ">
<path fill="none" stroke="#63b8ff" d="M1530.75,-171.54C1398.81,-166.72 1080.53,-152.94 976,-129 926.84,-117.74 872.98,-93.74 841.96,-78.68"/>
<polygon fill="#63b8ff" stroke="#63b8ff" points="843.25,-75.41 832.73,-74.13 840.16,-81.69 843.25,-75.41"/>
</a>
</g>
</g>
<!-- Node18 -->
<g id="Node000018" class="node">
<title>Node18</title>
<g id="a_Node000018"><a xlink:title=" ">
<polygon fill="#e0e0e0" stroke="#999999" points="1333,-74 1247,-74 1247,-55 1333,-55 1333,-74"/>
<text text-anchor="middle" x="1290" y="-62" font-family="Helvetica,sans-Serif" font-size="10.00">QMessageBox</text>
</a>
</g>
</g>
<!-- Node1&#45;&gt;Node18 -->
<g id="edge42_Node000001_Node000018" class="edge">
<title>Node1&#45;&gt;Node18</title>
<g id="a_edge42_Node000001_Node000018"><a xlink:title=" ">
<path fill="none" stroke="#63b8ff" d="M1530.89,-171.95C1416.19,-168.28 1169.5,-157.17 1144,-129 1138.33,-122.74 1138.97,-116.79 1144,-110 1155.32,-94.72 1199.83,-82.59 1236.76,-74.88"/>
<polygon fill="#63b8ff" stroke="#63b8ff" points="1237.83,-78.23 1246.94,-72.82 1236.44,-71.37 1237.83,-78.23"/>
</a>
</g>
</g>
<!-- Node19 -->
<g id="Node000019" class="node">
<title>Node19</title>
<g id="a_Node000019"><a xlink:title=" ">
<polygon fill="#e0e0e0" stroke="#999999" points="1431,-74 1351,-74 1351,-55 1431,-55 1431,-74"/>
<text text-anchor="middle" x="1391" y="-62" font-family="Helvetica,sans-Serif" font-size="10.00">QPushButton</text>
</a>
</g>
</g>
<!-- Node1&#45;&gt;Node19 -->
<g id="edge55_Node000001_Node000019" class="edge">
<title>Node1&#45;&gt;Node19</title>
<g id="a_edge55_Node000001_Node000019"><a xlink:title=" ">
<path fill="none" stroke="#63b8ff" d="M1530.63,-171.82C1417.43,-167.97 1176.92,-156.59 1152,-129 1146.34,-122.73 1146.6,-116.49 1152,-110 1153.52,-108.17 1271.24,-86.88 1340.88,-74.43"/>
<polygon fill="#63b8ff" stroke="#63b8ff" points="1341.56,-77.86 1350.78,-72.65 1340.32,-70.97 1341.56,-77.86"/>
</a>
</g>
</g>
<!-- Node20 -->
<g id="Node000020" class="node">
<title>Node20</title>
<g id="a_Node000020"><a xlink:href="syncdialog_8h.html" target="_top" xlink:title=" ">
<polygon fill="white" stroke="#666666" points="1239,-129 1161,-129 1161,-110 1239,-110 1239,-129"/>
<text text-anchor="middle" x="1200" y="-117" font-family="Helvetica,sans-Serif" font-size="10.00">syncdialog.h</text>
</a>
</g>
</g>
<!-- Node1&#45;&gt;Node20 -->
<g id="edge20_Node000001_Node000020" class="edge">
<title>Node1&#45;&gt;Node20</title>
<g id="a_edge20_Node000001_Node000020"><a xlink:title=" ">
<path fill="none" stroke="#63b8ff" d="M1530.96,-166.74C1465.14,-158.89 1354.33,-145.13 1249.17,-129.12"/>
<polygon fill="#63b8ff" stroke="#63b8ff" points="1249.42,-125.62 1239.01,-127.56 1248.36,-132.54 1249.42,-125.62"/>
</a>
</g>
</g>
<!-- Node23 -->
<g id="Node000023" class="node">
<title>Node23</title>
<g id="a_Node000023"><a xlink:href="healthcheckdialog_8h.html" target="_top" xlink:title=" ">
<polygon fill="white" stroke="#666666" points="776.5,-129 661.5,-129 661.5,-110 776.5,-110 776.5,-129"/>
<text text-anchor="middle" x="719" y="-117" font-family="Helvetica,sans-Serif" font-size="10.00">healthcheckdialog.h</text>
</a>
</g>
</g>
<!-- Node1&#45;&gt;Node23 -->
<g id="edge24_Node000001_Node000023" class="edge">
<title>Node1&#45;&gt;Node23</title>
<g id="a_edge24_Node000001_Node000023"><a xlink:title=" ">
<path fill="none" stroke="#63b8ff" d="M1530.9,-169.96C1375.78,-160.51 952.4,-134.72 786.74,-124.63"/>
<polygon fill="#63b8ff" stroke="#63b8ff" points="786.87,-121.13 776.67,-124.01 786.44,-128.12 786.87,-121.13"/>
</a>
</g>
</g>
<!-- Node25 -->
<g id="Node000025" class="node">
<title>Node25</title>
<g id="a_Node000025"><a xlink:href="database_8h.html" target="_top" xlink:title=" ">
<polygon fill="white" stroke="#666666" points="1328.5,-129 1257.5,-129 1257.5,-110 1328.5,-110 1328.5,-129"/>
<text text-anchor="middle" x="1293" y="-117" font-family="Helvetica,sans-Serif" font-size="10.00">database.h</text>
</a>
</g>
</g>
<!-- Node1&#45;&gt;Node25 -->
<g id="edge29_Node000001_Node000025" class="edge">
<title>Node1&#45;&gt;Node25</title>
<g id="a_edge29_Node000001_Node000025"><a xlink:title=" ">
<path fill="none" stroke="#63b8ff" d="M1539.91,-164.97C1491.47,-156.5 1415.01,-143.05 1339.08,-129.18"/>
<polygon fill="#63b8ff" stroke="#63b8ff" points="1339.32,-125.67 1328.85,-127.31 1338.06,-132.55 1339.32,-125.67"/>
</a>
</g>
</g>
<!-- Node27 -->
<g id="Node000027" class="node">
<title>Node27</title>
<g id="a_Node000027"><a xlink:href="totp_8h.html" target="_top" xlink:title=" ">
<polygon fill="white" stroke="#666666" points="1510.5,-129 1465.5,-129 1465.5,-110 1510.5,-110 1510.5,-129"/>
<text text-anchor="middle" x="1488" y="-117" font-family="Helvetica,sans-Serif" font-size="10.00">totp.h</text>
</a>
</g>
</g>
<!-- Node1&#45;&gt;Node27 -->
<g id="edge31_Node000001_Node000027" class="edge">
<title>Node1&#45;&gt;Node27</title>
<g id="a_edge31_Node000001_Node000027"><a xlink:title=" ">
<path fill="none" stroke="#63b8ff" d="M1572.77,-164.98C1556.82,-156.61 1532.22,-143.7 1513.62,-133.95"/>
<polygon fill="#63b8ff" stroke="#63b8ff" points="1515,-130.72 1504.52,-129.17 1511.75,-136.92 1515,-130.72"/>
</a>
</g>
</g>
<!-- Node30 -->
<g id="Node000030" class="node">
<title>Node30</title>
<g id="a_Node000030"><a xlink:href="platform__paths_8h.html" target="_top" xlink:title=" ">
<polygon fill="white" stroke="#666666" points="1447,-129 1347,-129 1347,-110 1447,-110 1447,-129"/>
<text text-anchor="middle" x="1397" y="-117" font-family="Helvetica,sans-Serif" font-size="10.00">platform_paths.h</text>
</a>
</g>
</g>
<!-- Node1&#45;&gt;Node30 -->
<g id="edge34_Node000001_Node000030" class="edge">
<title>Node1&#45;&gt;Node30</title>
<g id="a_edge34_Node000001_Node000030"><a xlink:title=" ">
<path fill="none" stroke="#63b8ff" d="M1558.15,-164.98C1525.5,-155.97 1473.8,-141.7 1437.8,-131.76"/>
<polygon fill="#63b8ff" stroke="#63b8ff" points="1438.66,-128.37 1428.09,-129.08 1436.8,-135.12 1438.66,-128.37"/>
</a>
</g>
</g>
<!-- Node31 -->
<g id="Node000031" class="node">
<title>Node31</title>
<g id="a_Node000031"><a xlink:title=" ">
<polygon fill="#e0e0e0" stroke="#999999" points="1569.5,-129 1528.5,-129 1528.5,-110 1569.5,-110 1569.5,-129"/>
<text text-anchor="middle" x="1549" y="-117" font-family="Helvetica,sans-Serif" font-size="10.00">csv.h</text>
</a>
</g>
</g>
<!-- Node1&#45;&gt;Node31 -->
<g id="edge37_Node000001_Node000031" class="edge">
<title>Node1&#45;&gt;Node31</title>
<g id="a_edge37_Node000001_Node000031"><a xlink:title=" ">
<path fill="none" stroke="#63b8ff" d="M1582.39,-164.75C1576.74,-157.26 1568.46,-146.28 1561.55,-137.13"/>
<polygon fill="#63b8ff" stroke="#63b8ff" points="1564.3,-134.96 1555.48,-129.09 1558.71,-139.18 1564.3,-134.96"/>
</a>
</g>
</g>
<!-- Node32 -->
<g id="Node000032" class="node">
<title>Node32</title>
<g id="a_Node000032"><a xlink:title=" ">
<polygon fill="#e0e0e0" stroke="#999999" points="1670.5,-129 1587.5,-129 1587.5,-110 1670.5,-110 1670.5,-129"/>
<text text-anchor="middle" x="1629" y="-117" font-family="Helvetica,sans-Serif" font-size="10.00">QVBoxLayout</text>
</a>
</g>
</g>
<!-- Node1&#45;&gt;Node32 -->
<g id="edge38_Node000001_Node000032" class="edge">
<title>Node1&#45;&gt;Node32</title>
<g id="a_edge38_Node000001_Node000032"><a xlink:title=" ">
<path fill="none" stroke="#63b8ff" d="M1595.61,-164.75C1601.26,-157.26 1609.54,-146.28 1616.45,-137.13"/>
<polygon fill="#63b8ff" stroke="#63b8ff" points="1619.29,-139.18 1622.52,-129.09 1613.7,-134.96 1619.29,-139.18"/>
</a>
</g>
</g>
<!-- Node33 -->
<g id="Node000033" class="node">
<title>Node33</title>
<g id="a_Node000033"><a xlink:title=" ">
<polygon fill="#e0e0e0" stroke="#999999" points="1771.5,-129 1688.5,-129 1688.5,-110 1771.5,-110 1771.5,-129"/>
<text text-anchor="middle" x="1730" y="-117" font-family="Helvetica,sans-Serif" font-size="10.00">QHBoxLayout</text>
</a>
</g>
</g>
<!-- Node1&#45;&gt;Node33 -->
<g id="edge39_Node000001_Node000033" class="edge">
<title>Node1&#45;&gt;Node33</title>
<g id="a_edge39_Node000001_Node000033"><a xlink:title=" ">
<path fill="none" stroke="#63b8ff" d="M1611.65,-164.98C1634.85,-156.27 1671.12,-142.63 1697.4,-132.75"/>
<polygon fill="#63b8ff" stroke="#63b8ff" points="1698.8,-135.97 1706.93,-129.17 1696.34,-129.41 1698.8,-135.97"/>
</a>
</g>
</g>
<!-- Node34 -->
<g id="Node000034" class="node">
<title>Node34</title>
<g id="a_Node000034"><a xlink:title=" ">
<polygon fill="#e0e0e0" stroke="#999999" points="1850,-129 1790,-129 1790,-110 1850,-110 1850,-129"/>
<text text-anchor="middle" x="1820" y="-117" font-family="Helvetica,sans-Serif" font-size="10.00">QToolBar</text>
</a>
</g>
</g>
<!-- Node1&#45;&gt;Node34 -->
<g id="edge40_Node000001_Node000034" class="edge">
<title>Node1&#45;&gt;Node34</title>
<g id="a_edge40_Node000001_Node000034"><a xlink:title=" ">
<path fill="none" stroke="#63b8ff" d="M1626.11,-164.98C1668.27,-155.31 1736.79,-139.59 1780.07,-129.66"/>
<polygon fill="#63b8ff" stroke="#63b8ff" points="1781.01,-133.04 1789.97,-127.39 1779.44,-126.22 1781.01,-133.04"/>
</a>
</g>
</g>
<!-- Node35 -->
<g id="Node000035" class="node">
<title>Node35</title>
<g id="a_Node000035"><a xlink:title=" ">
<polygon fill="#e0e0e0" stroke="#999999" points="1923.5,-129 1868.5,-129 1868.5,-110 1923.5,-110 1923.5,-129"/>
<text text-anchor="middle" x="1896" y="-117" font-family="Helvetica,sans-Serif" font-size="10.00">QAction</text>
</a>
</g>
</g>
<!-- Node1&#45;&gt;Node35 -->
<g id="edge41_Node000001_Node000035" class="edge">
<title>Node1&#45;&gt;Node35</title>
<g id="a_edge41_Node000001_Node000035"><a xlink:title=" ">
<path fill="none" stroke="#63b8ff" d="M1647.12,-164.99C1699.68,-157.06 1779.42,-144.42 1858.08,-129.08"/>
<polygon fill="#63b8ff" stroke="#63b8ff" points="1859.02,-132.46 1868.16,-127.09 1857.67,-125.59 1859.02,-132.46"/>
</a>
</g>
</g>
<!-- Node36 -->
<g id="Node000036" class="node">
<title>Node36</title>
<g id="a_Node000036"><a xlink:title=" ">
<polygon fill="#e0e0e0" stroke="#999999" points="2014.5,-129 1941.5,-129 1941.5,-110 2014.5,-110 2014.5,-129"/>
<text text-anchor="middle" x="1978" y="-117" font-family="Helvetica,sans-Serif" font-size="10.00">QFileDialog</text>
</a>
</g>
</g>
<!-- Node1&#45;&gt;Node36 -->
<g id="edge43_Node000001_Node000036" class="edge">
<title>Node1&#45;&gt;Node36</title>
<g id="a_edge43_Node000001_Node000036"><a xlink:title=" ">
<path fill="none" stroke="#63b8ff" d="M1647.27,-167.01C1713.67,-159.37 1825.66,-145.79 1931.02,-129.24"/>
<polygon fill="#63b8ff" stroke="#63b8ff" points="1931.86,-132.65 1941.19,-127.63 1930.77,-125.74 1931.86,-132.65"/>
</a>
</g>
</g>
<!-- Node37 -->
<g id="Node000037" class="node">
<title>Node37</title>
<g id="a_Node000037"><a xlink:title=" ">
<polygon fill="#e0e0e0" stroke="#999999" points="2115.5,-129 2032.5,-129 2032.5,-110 2115.5,-110 2115.5,-129"/>
<text text-anchor="middle" x="2074" y="-117" font-family="Helvetica,sans-Serif" font-size="10.00">QHeaderView</text>
</a>
</g>
</g>
<!-- Node1&#45;&gt;Node37 -->
<g id="edge44_Node000001_Node000037" class="edge">
<title>Node1&#45;&gt;Node37</title>
<g id="a_edge44_Node000001_Node000037"><a xlink:title=" ">
<path fill="none" stroke="#63b8ff" d="M1647.19,-168.78C1728.81,-161.9 1882.14,-147.96 2022.23,-129.17"/>
<polygon fill="#63b8ff" stroke="#63b8ff" points="2022.85,-132.61 2032.29,-127.8 2021.91,-125.68 2022.85,-132.61"/>
</a>
</g>
</g>
<!-- Node38 -->
<g id="Node000038" class="node">
<title>Node38</title>
<g id="a_Node000038"><a xlink:title=" ">
<polygon fill="#e0e0e0" stroke="#999999" points="2204.5,-129 2133.5,-129 2133.5,-110 2204.5,-110 2204.5,-129"/>
<text text-anchor="middle" x="2169" y="-117" font-family="Helvetica,sans-Serif" font-size="10.00">QClipboard</text>
</a>
</g>
</g>
<!-- Node1&#45;&gt;Node38 -->
<g id="edge45_Node000001_Node000038" class="edge">
<title>Node1&#45;&gt;Node38</title>
<g id="a_edge45_Node000001_Node000038"><a xlink:title=" ">
<path fill="none" stroke="#63b8ff" d="M1647.13,-170.74C1743.92,-165.68 1944.4,-153.29 2122.93,-129.16"/>
<polygon fill="#63b8ff" stroke="#63b8ff" points="2123.6,-132.6 2133.03,-127.78 2122.65,-125.66 2123.6,-132.6"/>
</a>
</g>
</g>
<!-- Node39 -->
<g id="Node000039" class="node">
<title>Node39</title>
<g id="a_Node000039"><a xlink:title=" ">
<polygon fill="#e0e0e0" stroke="#999999" points="2301.5,-129 2222.5,-129 2222.5,-110 2301.5,-110 2301.5,-129"/>
<text text-anchor="middle" x="2262" y="-117" font-family="Helvetica,sans-Serif" font-size="10.00">QApplication</text>
</a>
</g>
</g>
<!-- Node1&#45;&gt;Node39 -->
<g id="edge46_Node000001_Node000039" class="edge">
<title>Node1&#45;&gt;Node39</title>
<g id="a_edge46_Node000001_Node000039"><a xlink:title=" ">
<path fill="none" stroke="#63b8ff" d="M1647.36,-171.38C1756.42,-166.96 1998.73,-155.07 2212.35,-129.08"/>
<polygon fill="#63b8ff" stroke="#63b8ff" points="2213,-132.53 2222.5,-127.83 2212.14,-125.58 2213,-132.53"/>
</a>
</g>
</g>
<!-- Node40 -->
<g id="Node000040" class="node">
<title>Node40</title>
<g id="a_Node000040"><a xlink:title=" ">
<polygon fill="#e0e0e0" stroke="#999999" points="2384,-129 2320,-129 2320,-110 2384,-110 2384,-129"/>
<text text-anchor="middle" x="2352" y="-117" font-family="Helvetica,sans-Serif" font-size="10.00">QSettings</text>
</a>
</g>
</g>
<!-- Node1&#45;&gt;Node40 -->
<g id="edge50_Node000001_Node000040" class="edge">
<title>Node1&#45;&gt;Node40</title>
<g id="a_edge50_Node000001_Node000040"><a xlink:title=" ">
<path fill="none" stroke="#63b8ff" d="M1647.3,-172.73C1768.79,-170.5 2058.02,-162.03 2309.78,-128.96"/>
<polygon fill="#63b8ff" stroke="#63b8ff" points="2310.39,-132.41 2319.85,-127.62 2309.47,-125.47 2310.39,-132.41"/>
</a>
</g>
</g>
<!-- Node41 -->
<g id="Node000041" class="node">
<title>Node41</title>
<g id="a_Node000041"><a xlink:title=" ">
<polygon fill="#e0e0e0" stroke="#999999" points="2443.5,-129 2402.5,-129 2402.5,-110 2443.5,-110 2443.5,-129"/>
<text text-anchor="middle" x="2423" y="-117" font-family="Helvetica,sans-Serif" font-size="10.00">QFile</text>
</a>
</g>
</g>
<!-- Node1&#45;&gt;Node41 -->
<g id="edge51_Node000001_Node000041" class="edge">
<title>Node1&#45;&gt;Node41</title>
<g id="a_edge51_Node000001_Node000041"><a xlink:title=" ">
<path fill="none" stroke="#63b8ff" d="M1647.21,-171.95C1803.44,-167.52 2230.46,-153.64 2392.21,-128.62"/>
<polygon fill="#63b8ff" stroke="#63b8ff" points="2393.17,-132.01 2402.48,-126.96 2392.05,-125.1 2393.17,-132.01"/>
</a>
</g>
</g>
<!-- Node42 -->
<g id="Node000042" class="node">
<title>Node42</title>
<g id="a_Node000042"><a xlink:title=" ">
<polygon fill="#e0e0e0" stroke="#999999" points="2500,-129 2462,-129 2462,-110 2500,-110 2500,-129"/>
<text text-anchor="middle" x="2481" y="-117" font-family="Helvetica,sans-Serif" font-size="10.00">QDir</text>
</a>
</g>
</g>
<!-- Node1&#45;&gt;Node42 -->
<g id="edge52_Node000001_Node000042" class="edge">
<title>Node1&#45;&gt;Node42</title>
<g id="a_edge52_Node000001_Node000042"><a xlink:title=" ">
<path fill="none" stroke="#63b8ff" d="M1647.02,-172.35C1811.35,-168.81 2278.72,-156.68 2451.88,-128.67"/>
<polygon fill="#63b8ff" stroke="#63b8ff" points="2452.59,-132.1 2461.87,-126.98 2451.43,-125.2 2452.59,-132.1"/>
</a>
</g>
</g>
<!-- Node43 -->
<g id="Node000043" class="node">
<title>Node43</title>
<g id="a_Node000043"><a xlink:title=" ">
<polygon fill="#e0e0e0" stroke="#999999" points="2598,-129 2518,-129 2518,-110 2598,-110 2598,-129"/>
<text text-anchor="middle" x="2558" y="-117" font-family="Helvetica,sans-Serif" font-size="10.00">QInputDialog</text>
</a>
</g>
</g>
<!-- Node1&#45;&gt;Node43 -->
<g id="edge53_Node000001_Node000043" class="edge">
<title>Node1&#45;&gt;Node43</title>
<g id="a_edge53_Node000001_Node000043"><a xlink:title=" ">
<path fill="none" stroke="#63b8ff" d="M1647.05,-173.17C1791.1,-171.83 2176.55,-164.99 2507.67,-128.99"/>
<polygon fill="#63b8ff" stroke="#63b8ff" points="2508.39,-132.43 2517.95,-127.86 2507.62,-125.48 2508.39,-132.43"/>
</a>
</g>
</g>
<!-- Node44 -->
<g id="Node000044" class="node">
<title>Node44</title>
<g id="a_Node000044"><a xlink:title=" ">
<polygon fill="#e0e0e0" stroke="#999999" points="2687.5,-129 2616.5,-129 2616.5,-110 2687.5,-110 2687.5,-129"/>
<text text-anchor="middle" x="2652" y="-117" font-family="Helvetica,sans-Serif" font-size="10.00">QStatusBar</text>
</a>
</g>
</g>
<!-- Node1&#45;&gt;Node44 -->
<g id="edge56_Node000001_Node000044" class="edge">
<title>Node1&#45;&gt;Node44</title>
<g id="a_edge56_Node000001_Node000044"><a xlink:title=" ">
<path fill="none" stroke="#63b8ff" d="M1647.19,-173.86C1801.81,-174.2 2235.74,-171.09 2606.1,-128.9"/>
<polygon fill="#63b8ff" stroke="#63b8ff" points="2606.67,-132.36 2616.21,-127.74 2605.87,-125.4 2606.67,-132.36"/>
</a>
</g>
</g>
<!-- Node45 -->
<g id="Node000045" class="node">
<title>Node45</title>
<g id="a_Node000045"><a xlink:title=" ">
<polygon fill="#e0e0e0" stroke="#999999" points="2782,-129 2706,-129 2706,-110 2782,-110 2782,-129"/>
<text text-anchor="middle" x="2744" y="-117" font-family="Helvetica,sans-Serif" font-size="10.00">QListWidget</text>
</a>
</g>
</g>
<!-- Node1&#45;&gt;Node45 -->
<g id="edge57_Node000001_Node000045" class="edge">
<title>Node1&#45;&gt;Node45</title>
<g id="a_edge57_Node000001_Node000045"><a xlink:title=" ">
<path fill="none" stroke="#63b8ff" d="M1647.18,-174C1810.85,-174.8 2289.26,-172.99 2695.66,-128.97"/>
<polygon fill="#63b8ff" stroke="#63b8ff" points="2696.28,-132.42 2705.85,-127.86 2695.52,-125.47 2696.28,-132.42"/>
</a>
</g>
</g>
<!-- Node46 -->
<g id="Node000046" class="node">
<title>Node46</title>
<g id="a_Node000046"><a xlink:title=" ">
<polygon fill="#e0e0e0" stroke="#999999" points="2847.5,-129 2800.5,-129 2800.5,-110 2847.5,-110 2847.5,-129"/>
<text text-anchor="middle" x="2824" y="-117" font-family="Helvetica,sans-Serif" font-size="10.00">vector</text>
</a>
</g>
</g>
<!-- Node1&#45;&gt;Node46 -->
<g id="edge58_Node000001_Node000046" class="edge">
<title>Node1&#45;&gt;Node46</title>
<g id="a_edge58_Node000001_Node000046"><a xlink:title=" ">
<path fill="none" stroke="#63b8ff" d="M1647.13,-173C1852.81,-170.99 2546.25,-161.97 2790.1,-128.7"/>
<polygon fill="#63b8ff" stroke="#63b8ff" points="2790.92,-132.11 2800.33,-127.25 2789.94,-125.18 2790.92,-132.11"/>
</a>
</g>
</g>
<!-- Node3 -->
<g id="Node000003" class="node">
<title>Node3</title>
<g id="a_Node000003"><a xlink:title=" ">
<polygon fill="#e0e0e0" stroke="#999999" points="256.5,-74 169.5,-74 169.5,-55 256.5,-55 256.5,-74"/>
<text text-anchor="middle" x="213" y="-62" font-family="Helvetica,sans-Serif" font-size="10.00">QMainWindow</text>
</a>
</g>
</g>
<!-- Node2&#45;&gt;Node3 -->
<g id="edge2_Node000002_Node000003" class="edge">
<title>Node2&#45;&gt;Node3</title>
<g id="a_edge2_Node000002_Node000003"><a xlink:title=" ">
<path fill="none" stroke="#63b8ff" d="M343.94,-109.98C317.97,-101.16 277.19,-87.31 248.04,-77.41"/>
<polygon fill="#63b8ff" stroke="#63b8ff" points="248.85,-73.99 238.26,-74.08 246.6,-80.61 248.85,-73.99"/>
</a>
</g>
</g>
<!-- Node4 -->
<g id="Node000004" class="node">
<title>Node4</title>
<g id="a_Node000004"><a xlink:title=" ">
<polygon fill="#e0e0e0" stroke="#999999" points="325,-74 275,-74 275,-55 325,-55 325,-74"/>
<text text-anchor="middle" x="300" y="-62" font-family="Helvetica,sans-Serif" font-size="10.00">cstdint</text>
</a>
</g>
</g>
<!-- Node2&#45;&gt;Node4 -->
<g id="edge3_Node000002_Node000004" class="edge">
<title>Node2&#45;&gt;Node4</title>
<g id="a_edge3_Node000002_Node000004"><a xlink:title=" ">
<path fill="none" stroke="#63b8ff" d="M357.91,-109.98C347.51,-102 331.74,-89.88 319.28,-80.31"/>
<polygon fill="#63b8ff" stroke="#63b8ff" points="321.35,-77.49 311.29,-74.17 317.09,-83.04 321.35,-77.49"/>
</a>
</g>
</g>
<!-- Node5 -->
<g id="Node000005" class="node">
<title>Node5</title>
<g id="a_Node000005"><a xlink:title=" ">
<polygon fill="#e0e0e0" stroke="#999999" points="538.5,-74 483.5,-74 483.5,-55 538.5,-55 538.5,-74"/>
<text text-anchor="middle" x="511" y="-62" font-family="Helvetica,sans-Serif" font-size="10.00">QVector</text>
</a>
</g>
</g>
<!-- Node2&#45;&gt;Node5 -->
<g id="edge4_Node000002_Node000005" class="edge">
<title>Node2&#45;&gt;Node5</title>
<g id="a_edge4_Node000002_Node000005"><a xlink:title=" ">
<path fill="none" stroke="#63b8ff" d="M391.81,-109.98C415.17,-101.27 451.7,-87.63 478.17,-77.75"/>
<polygon fill="#63b8ff" stroke="#63b8ff" points="479.63,-80.95 487.77,-74.17 477.18,-74.39 479.63,-80.95"/>
</a>
</g>
</g>
<!-- Node2&#45;&gt;Node6 -->
<g id="edge5_Node000002_Node000006" class="edge">
<title>Node2&#45;&gt;Node6</title>
<g id="a_edge5_Node000002_Node000006"><a xlink:title=" ">
<path fill="none" stroke="#63b8ff" d="M406.92,-109.98C447.65,-100.84 512.5,-86.27 556.82,-76.32"/>
<polygon fill="#63b8ff" stroke="#63b8ff" points="557.8,-79.69 566.79,-74.08 556.26,-72.86 557.8,-79.69"/>
</a>
</g>
</g>
<!-- Node2&#45;&gt;Node8 -->
<g id="edge7_Node000002_Node000008" class="edge">
<title>Node2&#45;&gt;Node8</title>
<g id="a_edge7_Node000002_Node000008"><a xlink:title=" ">
<path fill="none" stroke="#63b8ff" d="M325.38,-113.67C267.1,-106.9 160.46,-93.41 60.18,-74.05"/>
<polygon fill="#63b8ff" stroke="#63b8ff" points="60.67,-70.58 50.19,-72.1 59.33,-77.45 60.67,-70.58"/>
</a>
</g>
</g>
<!-- Node2&#45;&gt;Node9 -->
<g id="edge8_Node000002_Node000009" class="edge">
<title>Node2&#45;&gt;Node9</title>
<g id="a_edge8_Node000002_Node000009"><a xlink:title=" ">
<path fill="none" stroke="#63b8ff" d="M327.39,-109.98C282.26,-100.75 210.19,-86 161.52,-76.04"/>
<polygon fill="#63b8ff" stroke="#63b8ff" points="162.01,-72.57 151.51,-73.99 160.6,-79.43 162.01,-72.57"/>
</a>
</g>
</g>
<!-- Node2&#45;&gt;Node10 -->
<g id="edge9_Node000002_Node000010" class="edge">
<title>Node2&#45;&gt;Node10</title>
<g id="a_edge9_Node000002_Node000010"><a xlink:title=" ">
<path fill="none" stroke="#63b8ff" d="M380.25,-109.98C390.8,-102 406.8,-89.88 419.44,-80.31"/>
<polygon fill="#63b8ff" stroke="#63b8ff" points="421.69,-83 427.55,-74.17 417.46,-77.42 421.69,-83"/>
</a>
</g>
</g>
<!-- Node11 -->
<g id="Node000011" class="node">
<title>Node11</title>
<g id="a_Node000011"><a xlink:title=" ">
<polygon fill="#e0e0e0" stroke="#999999" points="394.5,-74 343.5,-74 343.5,-55 394.5,-55 394.5,-74"/>
<text text-anchor="middle" x="369" y="-62" font-family="Helvetica,sans-Serif" font-size="10.00">QMenu</text>
</a>
</g>
</g>
<!-- Node2&#45;&gt;Node11 -->
<g id="edge10_Node000002_Node000011" class="edge">
<title>Node2&#45;&gt;Node11</title>
<g id="a_edge10_Node000002_Node000011"><a xlink:title=" ">
<path fill="none" stroke="#63b8ff" d="M369,-109.75C369,-102.8 369,-92.85 369,-84.13"/>
<polygon fill="#63b8ff" stroke="#63b8ff" points="372.5,-84.09 369,-74.09 365.5,-84.09 372.5,-84.09"/>
</a>
</g>
</g>
<!-- Node7 -->
<g id="Node000007" class="node">
<title>Node7</title>
<g id="a_Node000007"><a xlink:title=" ">
<polygon fill="#e0e0e0" stroke="#999999" points="631.5,-19 578.5,-19 578.5,0 631.5,0 631.5,-19"/>
<text text-anchor="middle" x="605" y="-7" font-family="Helvetica,sans-Serif" font-size="10.00">QString</text>
</a>
</g>
</g>
<!-- Node6&#45;&gt;Node7 -->
<g id="edge6_Node000006_Node000007" class="edge">
<title>Node6&#45;&gt;Node7</title>
<g id="a_edge6_Node000006_Node000007"><a xlink:title=" ">
<path fill="none" stroke="#63b8ff" d="M605,-54.75C605,-47.8 605,-37.85 605,-29.13"/>
<polygon fill="#63b8ff" stroke="#63b8ff" points="608.5,-29.09 605,-19.09 601.5,-29.09 608.5,-29.09"/>
</a>
</g>
</g>
<!-- Node12&#45;&gt;Node6 -->
<g id="edge18_Node000012_Node000006" class="edge">
<title>Node12&#45;&gt;Node6</title>
<g id="a_edge18_Node000012_Node000006"><a xlink:title=" ">
<path fill="none" stroke="#63b8ff" d="M985.29,-113.88C919.73,-106.36 786.45,-90.75 663.18,-74.13"/>
<polygon fill="#63b8ff" stroke="#63b8ff" points="663.57,-70.65 653.19,-72.78 662.63,-77.59 663.57,-70.65"/>
</a>
</g>
</g>
<!-- Node13 -->
<g id="Node000013" class="node">
<title>Node13</title>
<g id="a_Node000013"><a xlink:title=" ">
<polygon fill="#e0e0e0" stroke="#999999" points="922,-74 866,-74 866,-55 922,-55 922,-74"/>
<text text-anchor="middle" x="894" y="-62" font-family="Helvetica,sans-Serif" font-size="10.00">QDialog</text>
</a>
</g>
</g>
<!-- Node12&#45;&gt;Node13 -->
<g id="edge12_Node000012_Node000013" class="edge">
<title>Node12&#45;&gt;Node13</title>
<g id="a_edge12_Node000012_Node000013"><a xlink:title=" ">
<path fill="none" stroke="#63b8ff" d="M1004.79,-109.98C983.27,-101.34 949.72,-87.87 925.17,-78.02"/>
<polygon fill="#63b8ff" stroke="#63b8ff" points="926.18,-74.65 915.59,-74.17 923.57,-81.14 926.18,-74.65"/>
</a>
</g>
</g>
<!-- Node12&#45;&gt;Node14 -->
<g id="edge13_Node000012_Node000014" class="edge">
<title>Node12&#45;&gt;Node14</title>
<g id="a_edge13_Node000012_Node000014"><a xlink:title=" ">
<path fill="none" stroke="#63b8ff" d="M992.26,-109.98C955.57,-100.72 896.9,-85.92 857.44,-75.96"/>
<polygon fill="#63b8ff" stroke="#63b8ff" points="858.15,-72.53 847.6,-73.47 856.43,-79.31 858.15,-72.53"/>
</a>
</g>
</g>
<!-- Node15 -->
<g id="Node000015" class="node">
<title>Node15</title>
<g id="a_Node000015"><a xlink:title=" ">
<polygon fill="#e0e0e0" stroke="#999999" points="1103.5,-74 1040.5,-74 1040.5,-55 1103.5,-55 1103.5,-74"/>
<text text-anchor="middle" x="1072" y="-62" font-family="Helvetica,sans-Serif" font-size="10.00">QTextEdit</text>
</a>
</g>
</g>
<!-- Node12&#45;&gt;Node15 -->
<g id="edge14_Node000012_Node000015" class="edge">
<title>Node12&#45;&gt;Node15</title>
<g id="a_edge14_Node000012_Node000015"><a xlink:title=" ">
<path fill="none" stroke="#63b8ff" d="M1033.6,-109.75C1040.16,-102.18 1049.82,-91.05 1057.81,-81.84"/>
<polygon fill="#63b8ff" stroke="#63b8ff" points="1060.63,-83.94 1064.55,-74.09 1055.35,-79.35 1060.63,-83.94"/>
</a>
</g>
</g>
<!-- Node16 -->
<g id="Node000016" class="node">
<title>Node16</title>
<g id="a_Node000016"><a xlink:title=" ">
<polygon fill="#e0e0e0" stroke="#999999" points="1228.5,-74 1121.5,-74 1121.5,-55 1228.5,-55 1228.5,-74"/>
<text text-anchor="middle" x="1175" y="-62" font-family="Helvetica,sans-Serif" font-size="10.00">QDialogButtonBox</text>
</a>
</g>
</g>
<!-- Node12&#45;&gt;Node16 -->
<g id="edge15_Node000012_Node000016" class="edge">
<title>Node12&#45;&gt;Node16</title>
<g id="a_edge15_Node000012_Node000016"><a xlink:title=" ">
<path fill="none" stroke="#63b8ff" d="M1049.94,-109.98C1074.56,-101.23 1113.12,-87.51 1140.92,-77.62"/>
<polygon fill="#63b8ff" stroke="#63b8ff" points="1142.38,-80.82 1150.62,-74.17 1140.03,-74.22 1142.38,-80.82"/>
</a>
</g>
</g>
<!-- Node17 -->
<g id="Node000017" class="node">
<title>Node17</title>
<g id="a_Node000017"><a xlink:title=" ">
<polygon fill="#e0e0e0" stroke="#999999" points="1022,-74 940,-74 940,-55 1022,-55 1022,-74"/>
<text text-anchor="middle" x="981" y="-62" font-family="Helvetica,sans-Serif" font-size="10.00">QFormLayout</text>
</a>
</g>
</g>
<!-- Node12&#45;&gt;Node17 -->
<g id="edge16_Node000012_Node000017" class="edge">
<title>Node12&#45;&gt;Node17</title>
<g id="a_edge16_Node000012_Node000017"><a xlink:title=" ">
<path fill="none" stroke="#63b8ff" d="M1018.57,-109.75C1012.15,-102.18 1002.69,-91.05 994.88,-81.84"/>
<polygon fill="#63b8ff" stroke="#63b8ff" points="997.43,-79.45 988.29,-74.09 992.1,-83.98 997.43,-79.45"/>
</a>
</g>
</g>
<!-- Node12&#45;&gt;Node18 -->
<g id="edge17_Node000012_Node000018" class="edge">
<title>Node12&#45;&gt;Node18</title>
<g id="a_edge17_Node000012_Node000018"><a xlink:title=" ">
<path fill="none" stroke="#63b8ff" d="M1066.67,-110.33C1112.54,-101.13 1187.28,-86.12 1237.52,-76.04"/>
<polygon fill="#63b8ff" stroke="#63b8ff" points="1238.42,-79.43 1247.53,-74.03 1237.04,-72.56 1238.42,-79.43"/>
</a>
</g>
</g>
<!-- Node12&#45;&gt;Node19 -->
<g id="edge19_Node000012_Node000019" class="edge">
<title>Node12&#45;&gt;Node19</title>
<g id="a_edge19_Node000012_Node000019"><a xlink:title=" ">
<path fill="none" stroke="#63b8ff" d="M1066.97,-113.15C1125.4,-105.44 1236.28,-90.45 1340.81,-74.14"/>
<polygon fill="#63b8ff" stroke="#63b8ff" points="1341.57,-77.57 1350.91,-72.56 1340.48,-70.65 1341.57,-77.57"/>
</a>
</g>
</g>
<!-- Node20&#45;&gt;Node13 -->
<g id="edge21_Node000020_Node000013" class="edge">
<title>Node20&#45;&gt;Node13</title>
<g id="a_edge21_Node000020_Node000013"><a xlink:title=" ">
<path fill="none" stroke="#63b8ff" d="M1160.66,-112.77C1110.08,-105.24 1019.33,-91.14 932.29,-74.15"/>
<polygon fill="#63b8ff" stroke="#63b8ff" points="932.73,-70.67 922.24,-72.18 931.38,-77.54 932.73,-70.67"/>
</a>
</g>
</g>
<!-- Node21 -->
<g id="Node000021" class="node">
<title>Node21</title>
<g id="a_Node000021"><a xlink:title=" ">
<polygon fill="#e0e0e0" stroke="#999999" points="1610.5,-74 1539.5,-74 1539.5,-55 1610.5,-55 1610.5,-74"/>
<text text-anchor="middle" x="1575" y="-62" font-family="Helvetica,sans-Serif" font-size="10.00">QTcpServer</text>
</a>
</g>
</g>
<!-- Node20&#45;&gt;Node21 -->
<g id="edge22_Node000020_Node000021" class="edge">
<title>Node20&#45;&gt;Node21</title>
<g id="a_edge22_Node000020_Node000021"><a xlink:title=" ">
<path fill="none" stroke="#63b8ff" d="M1239.01,-111.43C1242.05,-110.93 1245.07,-110.45 1248,-110 1369.74,-91.46 1403.5,-93.61 1529.16,-74.04"/>
<polygon fill="#63b8ff" stroke="#63b8ff" points="1529.84,-77.48 1539.17,-72.47 1528.75,-70.56 1529.84,-77.48"/>
</a>
</g>
</g>
<!-- Node22 -->
<g id="Node000022" class="node">
<title>Node22</title>
<g id="a_Node000022"><a xlink:title=" ">
<polygon fill="#e0e0e0" stroke="#999999" points="1521,-74 1449,-74 1449,-55 1521,-55 1521,-74"/>
<text text-anchor="middle" x="1485" y="-62" font-family="Helvetica,sans-Serif" font-size="10.00">QTcpSocket</text>
</a>
</g>
</g>
<!-- Node20&#45;&gt;Node22 -->
<g id="edge23_Node000020_Node000022" class="edge">
<title>Node20&#45;&gt;Node22</title>
<g id="a_edge23_Node000020_Node000022"><a xlink:title=" ">
<path fill="none" stroke="#63b8ff" d="M1239.08,-111.29C1284.55,-102.9 1362.16,-88.55 1438.39,-74.3"/>
<polygon fill="#63b8ff" stroke="#63b8ff" points="1439.47,-77.66 1448.65,-72.38 1438.18,-70.78 1439.47,-77.66"/>
</a>
</g>
</g>
<!-- Node23&#45;&gt;Node5 -->
<g id="edge26_Node000023_Node000005" class="edge">
<title>Node23&#45;&gt;Node5</title>
<g id="a_edge26_Node000023_Node000005"><a xlink:title=" ">
<path fill="none" stroke="#63b8ff" d="M685.58,-109.98C648.16,-100.45 587.65,-85.03 548.6,-75.08"/>
<polygon fill="#63b8ff" stroke="#63b8ff" points="549.23,-71.63 538.68,-72.55 547.51,-78.41 549.23,-71.63"/>
</a>
</g>
</g>
<!-- Node23&#45;&gt;Node6 -->
<g id="edge28_Node000023_Node000006" class="edge">
<title>Node23&#45;&gt;Node6</title>
<g id="a_edge28_Node000023_Node000006"><a xlink:title=" ">
<path fill="none" stroke="#63b8ff" d="M700.68,-109.98C682.34,-101.46 653.89,-88.23 632.77,-78.41"/>
<polygon fill="#63b8ff" stroke="#63b8ff" points="634.19,-75.21 623.65,-74.17 631.24,-81.56 634.19,-75.21"/>
</a>
</g>
</g>
<!-- Node23&#45;&gt;Node13 -->
<g id="edge25_Node000023_Node000013" class="edge">
<title>Node23&#45;&gt;Node13</title>
<g id="a_edge25_Node000023_Node000013"><a xlink:title=" ">
<path fill="none" stroke="#63b8ff" d="M747.12,-109.98C776.71,-101.02 823.47,-86.86 856.26,-76.93"/>
<polygon fill="#63b8ff" stroke="#63b8ff" points="857.4,-80.24 865.95,-73.99 855.37,-73.54 857.4,-80.24"/>
</a>
</g>
</g>
<!-- Node24 -->
<g id="Node000024" class="node">
<title>Node24</title>
<g id="a_Node000024"><a xlink:title=" ">
<polygon fill="#e0e0e0" stroke="#999999" points="766.5,-74 671.5,-74 671.5,-55 766.5,-55 766.5,-74"/>
<text text-anchor="middle" x="719" y="-62" font-family="Helvetica,sans-Serif" font-size="10.00">QFutureWatcher</text>
</a>
</g>
</g>
<!-- Node23&#45;&gt;Node24 -->
<g id="edge27_Node000023_Node000024" class="edge">
<title>Node23&#45;&gt;Node24</title>
<g id="a_edge27_Node000023_Node000024"><a xlink:title=" ">
<path fill="none" stroke="#63b8ff" d="M719,-109.75C719,-102.8 719,-92.85 719,-84.13"/>
<polygon fill="#63b8ff" stroke="#63b8ff" points="722.5,-84.09 719,-74.09 715.5,-84.09 722.5,-84.09"/>
</a>
</g>
</g>
<!-- Node26 -->
<g id="Node000026" class="node">
<title>Node26</title>
<g id="a_Node000026"><a xlink:title=" ">
<polygon fill="#e0e0e0" stroke="#999999" points="1685,-74 1629,-74 1629,-55 1685,-55 1685,-74"/>
<text text-anchor="middle" x="1657" y="-62" font-family="Helvetica,sans-Serif" font-size="10.00">stddef.h</text>
</a>
</g>
</g>
<!-- Node25&#45;&gt;Node26 -->
<g id="edge30_Node000025_Node000026" class="edge">
<title>Node25&#45;&gt;Node26</title>
<g id="a_edge30_Node000025_Node000026"><a xlink:title=" ">
<path fill="none" stroke="#63b8ff" d="M1328.83,-111.53C1331.93,-110.99 1335.02,-110.47 1338,-110 1459.63,-90.77 1493.88,-95.89 1618.82,-74.05"/>
<polygon fill="#63b8ff" stroke="#63b8ff" points="1619.54,-77.48 1628.78,-72.29 1618.32,-70.58 1619.54,-77.48"/>
</a>
</g>
</g>
<!-- Node28 -->
<g id="Node000028" class="node">
<title>Node28</title>
<g id="a_Node000028"><a xlink:title=" ">
<polygon fill="#e0e0e0" stroke="#999999" points="1822.5,-74 1769.5,-74 1769.5,-55 1822.5,-55 1822.5,-74"/>
<text text-anchor="middle" x="1796" y="-62" font-family="Helvetica,sans-Serif" font-size="10.00">stdint.h</text>
</a>
</g>
</g>
<!-- Node27&#45;&gt;Node28 -->
<g id="edge32_Node000027_Node000028" class="edge">
<title>Node27&#45;&gt;Node28</title>
<g id="a_edge32_Node000027_Node000028"><a xlink:title=" ">
<path fill="none" stroke="#63b8ff" d="M1510.65,-112.15C1513.78,-111.37 1516.96,-110.63 1520,-110 1622.52,-88.76 1652.35,-94.07 1759.41,-73.95"/>
<polygon fill="#63b8ff" stroke="#63b8ff" points="1760.15,-77.37 1769.32,-72.06 1758.84,-70.5 1760.15,-77.37"/>
</a>
</g>
</g>
<!-- Node29 -->
<g id="Node000029" class="node">
<title>Node29</title>
<g id="a_Node000029"><a xlink:title=" ">
<polygon fill="#e0e0e0" stroke="#999999" points="1751,-74 1703,-74 1703,-55 1751,-55 1751,-74"/>
<text text-anchor="middle" x="1727" y="-62" font-family="Helvetica,sans-Serif" font-size="10.00">time.h</text>
</a>
</g>
</g>
<!-- Node27&#45;&gt;Node29 -->
<g id="edge33_Node000027_Node000029" class="edge">
<title>Node27&#45;&gt;Node29</title>
<g id="a_edge33_Node000027_Node000029"><a xlink:title=" ">
<path fill="none" stroke="#63b8ff" d="M1510.69,-112.31C1513.81,-111.5 1516.98,-110.71 1520,-110 1593.86,-92.56 1615.41,-91.88 1693.12,-74.11"/>
<polygon fill="#63b8ff" stroke="#63b8ff" points="1693.93,-77.52 1702.88,-71.85 1692.35,-70.69 1693.93,-77.52"/>
</a>
</g>
</g>
<!-- Node30&#45;&gt;Node26 -->
<g id="edge35_Node000030_Node000026" class="edge">
<title>Node30&#45;&gt;Node26</title>
<g id="a_edge35_Node000030_Node000026"><a xlink:title=" ">
<path fill="none" stroke="#63b8ff" d="M1441.93,-109.93C1484.91,-101.64 1551.8,-88.51 1618.85,-74.2"/>
<polygon fill="#63b8ff" stroke="#63b8ff" points="1619.69,-77.6 1628.74,-72.08 1618.23,-70.75 1619.69,-77.6"/>
</a>
</g>
</g>
</g>
</svg>
