<?xml version="1.0" encoding="UTF-8" standalone="no"?>
<!DOCTYPE svg PUBLIC "-//W3C//DTD SVG 1.1//EN"
 "http://www.w3.org/Graphics/SVG/1.1/DTD/svg11.dtd">
<!-- Generated by graphviz version 2.43.0 (0)
 -->
<!-- Title: gui/main.cpp Pages: 1 -->
<svg width="836pt" height="192pt"
 viewBox="0.00 0.00 836.00 192.00" xmlns="http://www.w3.org/2000/svg" xmlns:xlink="http://www.w3.org/1999/xlink">
<g id="graph0" class="graph" transform="scale(1 1) rotate(0) translate(4 188)">
<title>gui/main.cpp</title>
<!-- Node1 -->
<g id="Node000001" class="node">
<title>Node1</title>
<g id="a_Node000001"><a xlink:title=" ">
<polygon fill="#999999" stroke="#666666" points="468,-184 388,-184 388,-165 468,-165 468,-184"/>
<text text-anchor="middle" x="428" y="-172" font-family="Helvetica,sans-Serif" font-size="10.00">gui/main.cpp</text>
</a>
</g>
</g>
<!-- Node2 -->
<g id="Node000002" class="node">
<title>Node2</title>
<g id="a_Node000002"><a xlink:title=" ">
<polygon fill="#e0e0e0" stroke="#999999" points="44,-129 0,-129 0,-110 44,-110 44,-129"/>
<text text-anchor="middle" x="22" y="-117" font-family="Helvetica,sans-Serif" font-size="10.00">QIcon</text>
</a>
</g>
</g>
<!-- Node1&#45;&gt;Node2 -->
<g id="edge1_Node000001_Node000002" class="edge">
<title>Node1&#45;&gt;Node2</title>
<g id="a_edge1_Node000001_Node000002"><a xlink:title=" ">
<path fill="none" stroke="#63b8ff" d="M387.74,-170.71C320.48,-165.61 180.97,-153.21 54.14,-128.95"/>
<polygon fill="#63b8ff" stroke="#63b8ff" points="54.74,-125.5 44.26,-127.03 53.41,-132.37 54.74,-125.5"/>
</a>
</g>
</g>
<!-- Node3 -->
<g id="Node000003" class="node">
<title>Node3</title>
<g id="a_Node000003"><a xlink:title=" ">
<polygon fill="#e0e0e0" stroke="#999999" points="141.5,-129 62.5,-129 62.5,-110 141.5,-110 141.5,-129"/>
<text text-anchor="middle" x="102" y="-117" font-family="Helvetica,sans-Serif" font-size="10.00">QApplication</text>
</a>
</g>
</g>
<!-- Node1&#45;&gt;Node3 -->
<g id="edge2_Node000001_Node000003" class="edge">
<title>Node1&#45;&gt;Node3</title>
<g id="a_edge2_Node000001_Node000003"><a xlink:title=" ">
<path fill="none" stroke="#63b8ff" d="M387.6,-167.17C335.54,-158.98 241.95,-144.14 151.45,-129.06"/>
<polygon fill="#63b8ff" stroke="#63b8ff" points="152.01,-125.6 141.57,-127.41 150.86,-132.51 152.01,-125.6"/>
</a>
</g>
</g>
<!-- Node4 -->
<g id="Node000004" class="node">
<title>Node4</title>
<g id="a_Node000004"><a xlink:title=" ">
<polygon fill="#e0e0e0" stroke="#999999" points="246,-129 160,-129 160,-110 246,-110 246,-129"/>
<text text-anchor="middle" x="203" y="-117" font-family="Helvetica,sans-Serif" font-size="10.00">QMessageBox</text>
</a>
</g>
</g>
<!-- Node1&#45;&gt;Node4 -->
<g id="edge3_Node000001_Node000004" class="edge">
<title>Node1&#45;&gt;Node4</title>
<g id="a_edge3_Node000001_Node000004"><a xlink:title=" ">
<path fill="none" stroke="#63b8ff" d="M391.85,-164.98C353.09,-155.86 291.45,-141.33 249.2,-131.38"/>
<polygon fill="#63b8ff" stroke="#63b8ff" points="249.97,-127.97 239.43,-129.08 248.36,-134.78 249.97,-127.97"/>
</a>
</g>
</g>
<!-- Node5 -->
<g id="Node000005" class="node">
<title>Node5</title>
<g id="a_Node000005"><a xlink:href="passworddialog_8h.html" target="_top" xlink:title=" ">
<polygon fill="white" stroke="#666666" points="366,-129 264,-129 264,-110 366,-110 366,-129"/>
<text text-anchor="middle" x="315" y="-117" font-family="Helvetica,sans-Serif" font-size="10.00">passworddialog.h</text>
</a>
</g>
</g>
<!-- Node1&#45;&gt;Node5 -->
<g id="edge4_Node000001_Node000005" class="edge">
<title>Node1&#45;&gt;Node5</title>
<g id="a_edge4_Node000001_Node000005"><a xlink:title=" ">
<path fill="none" stroke="#63b8ff" d="M409.84,-164.98C391.75,-156.5 363.72,-143.35 342.81,-133.54"/>
<polygon fill="#63b8ff" stroke="#63b8ff" points="344.03,-130.25 333.49,-129.17 341.05,-136.59 344.03,-130.25"/>
</a>
</g>
</g>
<!-- Node7 -->
<g id="Node000007" class="node">
<title>Node7</title>
<g id="a_Node000007"><a xlink:href="mainwindow_8h.html" target="_top" xlink:title=" ">
<polygon fill="white" stroke="#666666" points="471.5,-129 384.5,-129 384.5,-110 471.5,-110 471.5,-129"/>
<text text-anchor="middle" x="428" y="-117" font-family="Helvetica,sans-Serif" font-size="10.00">mainwindow.h</text>
</a>
</g>
</g>
<!-- Node1&#45;&gt;Node7 -->
<g id="edge6_Node000001_Node000007" class="edge">
<title>Node1&#45;&gt;Node7</title>
<g id="a_edge6_Node000001_Node000007"><a xlink:title=" ">
<path fill="none" stroke="#63b8ff" d="M428,-164.75C428,-157.8 428,-147.85 428,-139.13"/>
<polygon fill="#63b8ff" stroke="#63b8ff" points="431.5,-139.09 428,-129.09 424.5,-139.09 431.5,-139.09"/>
</a>
</g>
</g>
<!-- Node17 -->
<g id="Node000017" class="node">
<title>Node17</title>
<g id="a_Node000017"><a xlink:href="key__derivation_8h.html" target="_top" xlink:title=" ">
<polygon fill="white" stroke="#666666" points="588,-129 490,-129 490,-110 588,-110 588,-129"/>
<text text-anchor="middle" x="539" y="-117" font-family="Helvetica,sans-Serif" font-size="10.00">key_derivation.h</text>
</a>
</g>
</g>
<!-- Node1&#45;&gt;Node17 -->
<g id="edge16_Node000001_Node000017" class="edge">
<title>Node1&#45;&gt;Node17</title>
<g id="a_edge16_Node000001_Node000017"><a xlink:title=" ">
<path fill="none" stroke="#63b8ff" d="M445.83,-164.98C463.61,-156.5 491.15,-143.35 511.68,-133.54"/>
<polygon fill="#63b8ff" stroke="#63b8ff" points="513.33,-136.64 520.84,-129.17 510.31,-130.32 513.33,-136.64"/>
</a>
</g>
</g>
<!-- Node19 -->
<g id="Node000019" class="node">
<title>Node19</title>
<g id="a_Node000019"><a xlink:title=" ">
<polygon fill="#e0e0e0" stroke="#999999" points="668,-129 606,-129 606,-110 668,-110 668,-129"/>
<text text-anchor="middle" x="637" y="-117" font-family="Helvetica,sans-Serif" font-size="10.00">sodium.h</text>
</a>
</g>
</g>
<!-- Node1&#45;&gt;Node19 -->
<g id="edge18_Node000001_Node000019" class="edge">
<title>Node1&#45;&gt;Node19</title>
<g id="a_edge18_Node000001_Node000019"><a xlink:title=" ">
<path fill="none" stroke="#63b8ff" d="M461.58,-164.98C498.2,-155.7 556.82,-140.83 596.1,-130.87"/>
<polygon fill="#63b8ff" stroke="#63b8ff" points="597.06,-134.24 605.89,-128.39 595.34,-127.45 597.06,-134.24"/>
</a>
</g>
</g>
<!-- Node20 -->
<g id="Node000020" class="node">
<title>Node20</title>
<g id="a_Node000020"><a xlink:title=" ">
<polygon fill="#e0e0e0" stroke="#999999" points="751.5,-129 686.5,-129 686.5,-110 751.5,-110 751.5,-129"/>
<text text-anchor="middle" x="719" y="-117" font-family="Helvetica,sans-Serif" font-size="10.00">curl/curl.h</text>
</a>
</g>
</g>
<!-- Node1&#45;&gt;Node20 -->
<g id="edge19_Node000001_Node000020" class="edge">
<title>Node1&#45;&gt;Node20</title>
<g id="a_edge19_Node000001_Node000020"><a xlink:title=" ">
<path fill="none" stroke="#63b8ff" d="M468.16,-166.61C515.4,-158.45 596.45,-144.24 676.23,-129.11"/>
<polygon fill="#63b8ff" stroke="#63b8ff" points="677.29,-132.47 686.46,-127.16 675.98,-125.59 677.29,-132.47"/>
</a>
</g>
</g>
<!-- Node21 -->
<g id="Node000021" class="node">
<title>Node21</title>
<g id="a_Node000021"><a xlink:title=" ">
<polygon fill="#e0e0e0" stroke="#999999" points="828,-129 770,-129 770,-110 828,-110 828,-129"/>
<text text-anchor="middle" x="799" y="-117" font-family="Helvetica,sans-Serif" font-size="10.00">QThread</text>
</a>
</g>
</g>
<!-- Node1&#45;&gt;Node21 -->
<g id="edge20_Node000001_Node000021" class="edge">
<title>Node1&#45;&gt;Node21</title>
<g id="a_edge20_Node000001_Node000021"><a xlink:title=" ">
<path fill="none" stroke="#63b8ff" d="M468.16,-169.28C529.07,-162.63 648.65,-148.59 759.57,-129.12"/>
<polygon fill="#63b8ff" stroke="#63b8ff" points="760.36,-132.54 769.59,-127.34 759.13,-125.64 760.36,-132.54"/>
</a>
</g>
</g>
<!-- Node6 -->
<g id="Node000006" class="node">
<title>Node6</title>
<g id="a_Node000006"><a xlink:title=" ">
<polygon fill="#e0e0e0" stroke="#999999" points="68,-74 12,-74 12,-55 68,-55 68,-74"/>
<text text-anchor="middle" x="40" y="-62" font-family="Helvetica,sans-Serif" font-size="10.00">QDialog</text>
</a>
</g>
</g>
<!-- Node5&#45;&gt;Node6 -->
<g id="edge5_Node000005_Node000006" class="edge">
<title>Node5&#45;&gt;Node6</title>
<g id="a_edge5_Node000005_Node000006"><a xlink:title=" ">
<path fill="none" stroke="#63b8ff" d="M266.11,-109.96C220.08,-101.79 148.97,-88.82 78.23,-74.19"/>
<polygon fill="#63b8ff" stroke="#63b8ff" points="78.76,-70.73 68.26,-72.12 77.33,-77.58 78.76,-70.73"/>
</a>
</g>
</g>
<!-- Node8 -->
<g id="Node000008" class="node">
<title>Node8</title>
<g id="a_Node000008"><a xlink:title=" ">
<polygon fill="#e0e0e0" stroke="#999999" points="173.5,-74 86.5,-74 86.5,-55 173.5,-55 173.5,-74"/>
<text text-anchor="middle" x="130" y="-62" font-family="Helvetica,sans-Serif" font-size="10.00">QMainWindow</text>
</a>
</g>
</g>
<!-- Node7&#45;&gt;Node8 -->
<g id="edge7_Node000007_Node000008" class="edge">
<title>Node7&#45;&gt;Node8</title>
<g id="a_edge7_Node000007_Node000008"><a xlink:title=" ">
<path fill="none" stroke="#63b8ff" d="M384.35,-110.74C331.12,-101.27 241.18,-85.27 183.75,-75.06"/>
<polygon fill="#63b8ff" stroke="#63b8ff" points="184.23,-71.59 173.77,-73.28 183,-78.48 184.23,-71.59"/>
</a>
</g>
</g>
<!-- Node9 -->
<g id="Node000009" class="node">
<title>Node9</title>
<g id="a_Node000009"><a xlink:title=" ">
<polygon fill="#e0e0e0" stroke="#999999" points="242,-74 192,-74 192,-55 242,-55 242,-74"/>
<text text-anchor="middle" x="217" y="-62" font-family="Helvetica,sans-Serif" font-size="10.00">cstdint</text>
</a>
</g>
</g>
<!-- Node7&#45;&gt;Node9 -->
<g id="edge8_Node000007_Node000009" class="edge">
<title>Node7&#45;&gt;Node9</title>
<g id="a_edge8_Node000007_Node000009"><a xlink:title=" ">
<path fill="none" stroke="#63b8ff" d="M394.1,-109.98C355.09,-100.19 291.36,-84.18 251.92,-74.27"/>
<polygon fill="#63b8ff" stroke="#63b8ff" points="252.76,-70.87 242.21,-71.83 251.06,-77.66 252.76,-70.87"/>
</a>
</g>
</g>
<!-- Node10 -->
<g id="Node000010" class="node">
<title>Node10</title>
<g id="a_Node000010"><a xlink:title=" ">
<polygon fill="#e0e0e0" stroke="#999999" points="315.5,-74 260.5,-74 260.5,-55 315.5,-55 315.5,-74"/>
<text text-anchor="middle" x="288" y="-62" font-family="Helvetica,sans-Serif" font-size="10.00">QVector</text>
</a>
</g>
</g>
<!-- Node7&#45;&gt;Node10 -->
<g id="edge9_Node000007_Node000010" class="edge">
<title>Node7&#45;&gt;Node10</title>
<g id="a_edge9_Node000007_Node000010"><a xlink:title=" ">
<path fill="none" stroke="#63b8ff" d="M405.51,-109.98C382.48,-101.27 346.46,-87.63 320.37,-77.75"/>
<polygon fill="#63b8ff" stroke="#63b8ff" points="321.49,-74.44 310.9,-74.17 319.02,-80.98 321.49,-74.44"/>
</a>
</g>
</g>
<!-- Node11 -->
<g id="Node000011" class="node">
<title>Node11</title>
<g id="a_Node000011"><a xlink:href="passwordentry_8h.html" target="_top" xlink:title=" ">
<polygon fill="white" stroke="#666666" points="430,-74 334,-74 334,-55 430,-55 430,-74"/>
<text text-anchor="middle" x="382" y="-62" font-family="Helvetica,sans-Serif" font-size="10.00">passwordentry.h</text>
</a>
</g>
</g>
<!-- Node7&#45;&gt;Node11 -->
<g id="edge10_Node000007_Node000011" class="edge">
<title>Node7&#45;&gt;Node11</title>
<g id="a_edge10_Node000007_Node000011"><a xlink:title=" ">
<path fill="none" stroke="#63b8ff" d="M420.4,-109.75C413.84,-102.18 404.18,-91.05 396.19,-81.84"/>
<polygon fill="#63b8ff" stroke="#63b8ff" points="398.65,-79.35 389.45,-74.09 393.37,-83.94 398.65,-79.35"/>
</a>
</g>
</g>
<!-- Node13 -->
<g id="Node000013" class="node">
<title>Node13</title>
<g id="a_Node000013"><a xlink:title=" ">
<polygon fill="#e0e0e0" stroke="#999999" points="498,-74 448,-74 448,-55 498,-55 498,-74"/>
<text text-anchor="middle" x="473" y="-62" font-family="Helvetica,sans-Serif" font-size="10.00">QLabel</text>
</a>
</g>
</g>
<!-- Node7&#45;&gt;Node13 -->
<g id="edge12_Node000007_Node000013" class="edge">
<title>Node7&#45;&gt;Node13</title>
<g id="a_edge12_Node000007_Node000013"><a xlink:title=" ">
<path fill="none" stroke="#63b8ff" d="M435.43,-109.75C441.85,-102.18 451.31,-91.05 459.12,-81.84"/>
<polygon fill="#63b8ff" stroke="#63b8ff" points="461.9,-83.98 465.71,-74.09 456.57,-79.45 461.9,-83.98"/>
</a>
</g>
</g>
<!-- Node14 -->
<g id="Node000014" class="node">
<title>Node14</title>
<g id="a_Node000014"><a xlink:title=" ">
<polygon fill="#e0e0e0" stroke="#999999" points="599.5,-74 516.5,-74 516.5,-55 599.5,-55 599.5,-74"/>
<text text-anchor="middle" x="558" y="-62" font-family="Helvetica,sans-Serif" font-size="10.00">QProgressBar</text>
</a>
</g>
</g>
<!-- Node7&#45;&gt;Node14 -->
<g id="edge13_Node000007_Node000014" class="edge">
<title>Node7&#45;&gt;Node14</title>
<g id="a_edge13_Node000007_Node000014"><a xlink:title=" ">
<path fill="none" stroke="#63b8ff" d="M448.89,-109.98C470.08,-101.34 503.13,-87.87 527.3,-78.02"/>
<polygon fill="#63b8ff" stroke="#63b8ff" points="528.79,-81.19 536.73,-74.17 526.15,-74.7 528.79,-81.19"/>
</a>
</g>
</g>
<!-- Node15 -->
<g id="Node000015" class="node">
<title>Node15</title>
<g id="a_Node000015"><a xlink:title=" ">
<polygon fill="#e0e0e0" stroke="#999999" points="670.5,-74 617.5,-74 617.5,-55 670.5,-55 670.5,-74"/>
<text text-anchor="middle" x="644" y="-62" font-family="Helvetica,sans-Serif" font-size="10.00">QTimer</text>
</a>
</g>
</g>
<!-- Node7&#45;&gt;Node15 -->
<g id="edge14_Node000007_Node000015" class="edge">
<title>Node7&#45;&gt;Node15</title>
<g id="a_edge14_Node000007_Node000015"><a xlink:title=" ">
<path fill="none" stroke="#63b8ff" d="M462.7,-109.98C502.39,-100.25 567.08,-84.37 607.5,-74.46"/>
<polygon fill="#63b8ff" stroke="#63b8ff" points="608.35,-77.85 617.23,-72.07 606.68,-71.05 608.35,-77.85"/>
</a>
</g>
</g>
<!-- Node16 -->
<g id="Node000016" class="node">
<title>Node16</title>
<g id="a_Node000016"><a xlink:title=" ">
<polygon fill="#e0e0e0" stroke="#999999" points="739.5,-74 688.5,-74 688.5,-55 739.5,-55 739.5,-74"/>
<text text-anchor="middle" x="714" y="-62" font-family="Helvetica,sans-Serif" font-size="10.00">QMenu</text>
</a>
</g>
</g>
<!-- Node7&#45;&gt;Node16 -->
<g id="edge15_Node000007_Node000016" class="edge">
<title>Node7&#45;&gt;Node16</title>
<g id="a_edge15_Node000007_Node000016"><a xlink:title=" ">
<path fill="none" stroke="#63b8ff" d="M471.61,-111.18C528.86,-101.51 627.25,-84.66 678.53,-74.17"/>
<polygon fill="#63b8ff" stroke="#63b8ff" points="679.35,-77.57 688.42,-72.1 677.92,-70.72 679.35,-77.57"/>
</a>
</g>
</g>
<!-- Node12 -->
<g id="Node000012" class="node">
<title>Node12</title>
<g id="a_Node000012"><a xlink:title=" ">
<polygon fill="#e0e0e0" stroke="#999999" points="408.5,-19 355.5,-19 355.5,0 408.5,0 408.5,-19"/>
<text text-anchor="middle" x="382" y="-7" font-family="Helvetica,sans-Serif" font-size="10.00">QString</text>
</a>
</g>
</g>
<!-- Node11&#45;&gt;Node12 -->
<g id="edge11_Node000011_Node000012" class="edge">
<title>Node11&#45;&gt;Node12</title>
<g id="a_edge11_Node000011_Node000012"><a xlink:title=" ">
<path fill="none" stroke="#63b8ff" d="M382,-54.75C382,-47.8 382,-37.85 382,-29.13"/>
<polygon fill="#63b8ff" stroke="#63b8ff" points="385.5,-29.09 382,-19.09 378.5,-29.09 385.5,-29.09"/>
</a>
</g>
</g>
<!-- Node18 -->
<g id="Node000018" class="node">
<title>Node18</title>
<g id="a_Node000018"><a xlink:title=" ">
<polygon fill="#e0e0e0" stroke="#999999" points="810.5,-74 757.5,-74 757.5,-55 810.5,-55 810.5,-74"/>
<text text-anchor="middle" x="784" y="-62" font-family="Helvetica,sans-Serif" font-size="10.00">stdint.h</text>
</a>
</g>
</g>
<!-- Node17&#45;&gt;Node18 -->
<g id="edge17_Node000017_Node000018" class="edge">
<title>Node17&#45;&gt;Node18</title>
<g id="a_edge17_Node000017_Node000018"><a xlink:title=" ">
<path fill="none" stroke="#63b8ff" d="M580.92,-110C621.2,-101.74 684.06,-88.63 747.14,-74.38"/>
<polygon fill="#63b8ff" stroke="#63b8ff" points="748.29,-77.71 757.27,-72.08 746.74,-70.88 748.29,-77.71"/>
</a>
</g>
</g>
</g>
</svg>
