<?xml version="1.0" encoding="UTF-8" standalone="no"?>
<!DOCTYPE svg PUBLIC "-//W3C//DTD SVG 1.1//EN"
 "http://www.w3.org/Graphics/SVG/1.1/DTD/svg11.dtd">
<!-- Generated by graphviz version 2.43.0 (0)
 -->
<!-- Title: core/password_generator.c Pages: 1 -->
<svg width="356pt" height="137pt"
 viewBox="0.00 0.00 355.50 137.00" xmlns="http://www.w3.org/2000/svg" xmlns:xlink="http://www.w3.org/1999/xlink">
<g id="graph0" class="graph" transform="scale(1 1) rotate(0) translate(4 133)">
<title>core/password_generator.c</title>
<!-- Node1 -->
<g id="Node000001" class="node">
<title>Node1</title>
<g id="a_Node000001"><a xlink:title=" ">
<polygon fill="#999999" stroke="#666666" points="280.5,-129 133.5,-129 133.5,-110 280.5,-110 280.5,-129"/>
<text text-anchor="middle" x="207" y="-117" font-family="Helvetica,sans-Serif" font-size="10.00">core/password_generator.c</text>
</a>
</g>
</g>
<!-- Node2 -->
<g id="Node000002" class="node">
<title>Node2</title>
<g id="a_Node000002"><a xlink:href="password__generator_8h.html" target="_top" xlink:title=" ">
<polygon fill="white" stroke="#666666" points="124,-74 0,-74 0,-55 124,-55 124,-74"/>
<text text-anchor="middle" x="62" y="-62" font-family="Helvetica,sans-Serif" font-size="10.00">password_generator.h</text>
</a>
</g>
</g>
<!-- Node1&#45;&gt;Node2 -->
<g id="edge1_Node000001_Node000002" class="edge">
<title>Node1&#45;&gt;Node2</title>
<g id="a_edge1_Node000001_Node000002"><a xlink:title=" ">
<path fill="none" stroke="#63b8ff" d="M183.7,-109.98C159.75,-101.23 122.22,-87.51 95.17,-77.62"/>
<polygon fill="#63b8ff" stroke="#63b8ff" points="96.31,-74.32 85.72,-74.17 93.91,-80.89 96.31,-74.32"/>
</a>
</g>
</g>
<!-- Node4 -->
<g id="Node000004" class="node">
<title>Node4</title>
<g id="a_Node000004"><a xlink:title=" ">
<polygon fill="#e0e0e0" stroke="#999999" points="195.5,-74 142.5,-74 142.5,-55 195.5,-55 195.5,-74"/>
<text text-anchor="middle" x="169" y="-62" font-family="Helvetica,sans-Serif" font-size="10.00">string.h</text>
</a>
</g>
</g>
<!-- Node1&#45;&gt;Node4 -->
<g id="edge3_Node000001_Node000004" class="edge">
<title>Node1&#45;&gt;Node4</title>
<g id="a_edge3_Node000001_Node000004"><a xlink:title=" ">
<path fill="none" stroke="#63b8ff" d="M200.73,-109.75C195.41,-102.34 187.64,-91.5 181.12,-82.41"/>
<polygon fill="#63b8ff" stroke="#63b8ff" points="183.83,-80.18 175.16,-74.09 178.14,-84.26 183.83,-80.18"/>
</a>
</g>
</g>
<!-- Node5 -->
<g id="Node000005" class="node">
<title>Node5</title>
<g id="a_Node000005"><a xlink:title=" ">
<polygon fill="#e0e0e0" stroke="#999999" points="276,-74 214,-74 214,-55 276,-55 276,-74"/>
<text text-anchor="middle" x="245" y="-62" font-family="Helvetica,sans-Serif" font-size="10.00">sodium.h</text>
</a>
</g>
</g>
<!-- Node1&#45;&gt;Node5 -->
<g id="edge4_Node000001_Node000005" class="edge">
<title>Node1&#45;&gt;Node5</title>
<g id="a_edge4_Node000001_Node000005"><a xlink:title=" ">
<path fill="none" stroke="#63b8ff" d="M213.27,-109.75C218.59,-102.34 226.36,-91.5 232.88,-82.41"/>
<polygon fill="#63b8ff" stroke="#63b8ff" points="235.86,-84.26 238.84,-74.09 230.17,-80.18 235.86,-84.26"/>
</a>
</g>
</g>
<!-- Node6 -->
<g id="Node000006" class="node">
<title>Node6</title>
<g id="a_Node000006"><a xlink:title=" ">
<polygon fill="#e0e0e0" stroke="#999999" points="347.5,-74 294.5,-74 294.5,-55 347.5,-55 347.5,-74"/>
<text text-anchor="middle" x="321" y="-62" font-family="Helvetica,sans-Serif" font-size="10.00">stdlib.h</text>
</a>
</g>
</g>
<!-- Node1&#45;&gt;Node6 -->
<g id="edge5_Node000001_Node000006" class="edge">
<title>Node1&#45;&gt;Node6</title>
<g id="a_edge5_Node000001_Node000006"><a xlink:title=" ">
<path fill="none" stroke="#63b8ff" d="M225.32,-109.98C243.66,-101.46 272.11,-88.23 293.23,-78.41"/>
<polygon fill="#63b8ff" stroke="#63b8ff" points="294.76,-81.56 302.35,-74.17 291.81,-75.21 294.76,-81.56"/>
</a>
</g>
</g>
<!-- Node3 -->
<g id="Node000003" class="node">
<title>Node3</title>
<g id="a_Node000003"><a xlink:title=" ">
<polygon fill="#e0e0e0" stroke="#999999" points="93,-19 31,-19 31,0 93,0 93,-19"/>
<text text-anchor="middle" x="62" y="-7" font-family="Helvetica,sans-Serif" font-size="10.00">stdbool.h</text>
</a>
</g>
</g>
<!-- Node2&#45;&gt;Node3 -->
<g id="edge2_Node000002_Node000003" class="edge">
<title>Node2&#45;&gt;Node3</title>
<g id="a_edge2_Node000002_Node000003"><a xlink:title=" ">
<path fill="none" stroke="#63b8ff" d="M62,-54.75C62,-47.8 62,-37.85 62,-29.13"/>
<polygon fill="#63b8ff" stroke="#63b8ff" points="65.5,-29.09 62,-19.09 58.5,-29.09 65.5,-29.09"/>
</a>
</g>
</g>
</g>
</svg>
