<?xml version="1.0" encoding="UTF-8" standalone="no"?>
<!DOCTYPE svg PUBLIC "-//W3C//DTD SVG 1.1//EN"
 "http://www.w3.org/Graphics/SVG/1.1/DTD/svg11.dtd">
<!-- Generated by graphviz version 2.43.0 (0)
 -->
<!-- Title: gui/passworddialog.cpp Pages: 1 -->
<svg width="486pt" height="137pt"
 viewBox="0.00 0.00 486.00 137.00" xmlns="http://www.w3.org/2000/svg" xmlns:xlink="http://www.w3.org/1999/xlink">
<g id="graph0" class="graph" transform="scale(1 1) rotate(0) translate(4 133)">
<title>gui/passworddialog.cpp</title>
<!-- Node1 -->
<g id="Node000001" class="node">
<title>Node1</title>
<g id="a_Node000001"><a xlink:title=" ">
<polygon fill="#999999" stroke="#666666" points="320.5,-129 189.5,-129 189.5,-110 320.5,-110 320.5,-129"/>
<text text-anchor="middle" x="255" y="-117" font-family="Helvetica,sans-Serif" font-size="10.00">gui/passworddialog.cpp</text>
</a>
</g>
</g>
<!-- Node2 -->
<g id="Node000002" class="node">
<title>Node2</title>
<g id="a_Node000002"><a xlink:href="passworddialog_8h.html" target="_top" xlink:title=" ">
<polygon fill="white" stroke="#666666" points="102,-74 0,-74 0,-55 102,-55 102,-74"/>
<text text-anchor="middle" x="51" y="-62" font-family="Helvetica,sans-Serif" font-size="10.00">passworddialog.h</text>
</a>
</g>
</g>
<!-- Node1&#45;&gt;Node2 -->
<g id="edge1_Node000001_Node000002" class="edge">
<title>Node1&#45;&gt;Node2</title>
<g id="a_edge1_Node000001_Node000002"><a xlink:title=" ">
<path fill="none" stroke="#63b8ff" d="M222.22,-109.98C187.38,-100.93 132.13,-86.58 93.86,-76.64"/>
<polygon fill="#63b8ff" stroke="#63b8ff" points="94.59,-73.21 84.03,-74.08 92.83,-79.98 94.59,-73.21"/>
</a>
</g>
</g>
<!-- Node4 -->
<g id="Node000004" class="node">
<title>Node4</title>
<g id="a_Node000004"><a xlink:title=" ">
<polygon fill="#e0e0e0" stroke="#999999" points="183.5,-74 120.5,-74 120.5,-55 183.5,-55 183.5,-74"/>
<text text-anchor="middle" x="152" y="-62" font-family="Helvetica,sans-Serif" font-size="10.00">QLineEdit</text>
</a>
</g>
</g>
<!-- Node1&#45;&gt;Node4 -->
<g id="edge3_Node000001_Node000004" class="edge">
<title>Node1&#45;&gt;Node4</title>
<g id="a_edge3_Node000001_Node000004"><a xlink:title=" ">
<path fill="none" stroke="#63b8ff" d="M238.45,-109.98C222.11,-101.57 196.87,-88.59 177.87,-78.81"/>
<polygon fill="#63b8ff" stroke="#63b8ff" points="179.34,-75.63 168.85,-74.17 176.14,-81.86 179.34,-75.63"/>
</a>
</g>
</g>
<!-- Node5 -->
<g id="Node000005" class="node">
<title>Node5</title>
<g id="a_Node000005"><a xlink:title=" ">
<polygon fill="#e0e0e0" stroke="#999999" points="308.5,-74 201.5,-74 201.5,-55 308.5,-55 308.5,-74"/>
<text text-anchor="middle" x="255" y="-62" font-family="Helvetica,sans-Serif" font-size="10.00">QDialogButtonBox</text>
</a>
</g>
</g>
<!-- Node1&#45;&gt;Node5 -->
<g id="edge4_Node000001_Node000005" class="edge">
<title>Node1&#45;&gt;Node5</title>
<g id="a_edge4_Node000001_Node000005"><a xlink:title=" ">
<path fill="none" stroke="#63b8ff" d="M255,-109.75C255,-102.8 255,-92.85 255,-84.13"/>
<polygon fill="#63b8ff" stroke="#63b8ff" points="258.5,-84.09 255,-74.09 251.5,-84.09 258.5,-84.09"/>
</a>
</g>
</g>
<!-- Node6 -->
<g id="Node000006" class="node">
<title>Node6</title>
<g id="a_Node000006"><a xlink:title=" ">
<polygon fill="#e0e0e0" stroke="#999999" points="409.5,-74 326.5,-74 326.5,-55 409.5,-55 409.5,-74"/>
<text text-anchor="middle" x="368" y="-62" font-family="Helvetica,sans-Serif" font-size="10.00">QVBoxLayout</text>
</a>
</g>
</g>
<!-- Node1&#45;&gt;Node6 -->
<g id="edge5_Node000001_Node000006" class="edge">
<title>Node1&#45;&gt;Node6</title>
<g id="a_edge5_Node000001_Node000006"><a xlink:title=" ">
<path fill="none" stroke="#63b8ff" d="M273.16,-109.98C291.25,-101.5 319.28,-88.35 340.19,-78.54"/>
<polygon fill="#63b8ff" stroke="#63b8ff" points="341.95,-81.59 349.51,-74.17 338.97,-75.25 341.95,-81.59"/>
</a>
</g>
</g>
<!-- Node7 -->
<g id="Node000007" class="node">
<title>Node7</title>
<g id="a_Node000007"><a xlink:title=" ">
<polygon fill="#e0e0e0" stroke="#999999" points="478,-74 428,-74 428,-55 478,-55 478,-74"/>
<text text-anchor="middle" x="453" y="-62" font-family="Helvetica,sans-Serif" font-size="10.00">QLabel</text>
</a>
</g>
</g>
<!-- Node1&#45;&gt;Node7 -->
<g id="edge6_Node000001_Node000007" class="edge">
<title>Node1&#45;&gt;Node7</title>
<g id="a_edge6_Node000001_Node000007"><a xlink:title=" ">
<path fill="none" stroke="#63b8ff" d="M286.81,-109.98C322.68,-100.38 380.84,-84.82 417.98,-74.87"/>
<polygon fill="#63b8ff" stroke="#63b8ff" points="419.11,-78.2 427.86,-72.23 417.3,-71.43 419.11,-78.2"/>
</a>
</g>
</g>
<!-- Node3 -->
<g id="Node000003" class="node">
<title>Node3</title>
<g id="a_Node000003"><a xlink:title=" ">
<polygon fill="#e0e0e0" stroke="#999999" points="79,-19 23,-19 23,0 79,0 79,-19"/>
<text text-anchor="middle" x="51" y="-7" font-family="Helvetica,sans-Serif" font-size="10.00">QDialog</text>
</a>
</g>
</g>
<!-- Node2&#45;&gt;Node3 -->
<g id="edge2_Node000002_Node000003" class="edge">
<title>Node2&#45;&gt;Node3</title>
<g id="a_edge2_Node000002_Node000003"><a xlink:title=" ">
<path fill="none" stroke="#63b8ff" d="M51,-54.75C51,-47.8 51,-37.85 51,-29.13"/>
<polygon fill="#63b8ff" stroke="#63b8ff" points="54.5,-29.09 51,-19.09 47.5,-29.09 54.5,-29.09"/>
</a>
</g>
</g>
</g>
</svg>
