<?xml version="1.0" encoding="UTF-8" standalone="no"?>
<!DOCTYPE svg PUBLIC "-//W3C//DTD SVG 1.1//EN"
 "http://www.w3.org/Graphics/SVG/1.1/DTD/svg11.dtd">
<!-- Generated by graphviz version 14.0.2 (0)
 -->
<!-- Title: core/platform_paths.c Pages: 1 -->
<svg width="292pt" height="140pt"
 viewBox="0.00 0.00 292.00 140.00" xmlns="http://www.w3.org/2000/svg" xmlns:xlink="http://www.w3.org/1999/xlink">
<g id="graph0" class="graph" transform="scale(1 1) rotate(0) translate(4 136)">
<title>core/platform_paths.c</title>
<!-- Node1 -->
<g id="Node000001" class="node">
<title>Node1</title>
<g id="a_Node000001"><a xlink:title=" ">
<polygon fill="#999999" stroke="#666666" points="216.62,-132 106.12,-132 106.12,-112 216.62,-112 216.62,-132"/>
<text xml:space="preserve" text-anchor="middle" x="161.38" y="-118.5" font-family="Helvetica,sans-Serif" font-size="10.00">core/platform_paths.c</text>
</a>
</g>
</g>
<!-- Node2 -->
<g id="Node000002" class="node">
<title>Node2</title>
<g id="a_Node000002"><a xlink:href="platform__paths_8h.html" target="_top" xlink:title=" ">
<polygon fill="white" stroke="#666666" points="88.75,-76 0,-76 0,-56 88.75,-56 88.75,-76"/>
<text xml:space="preserve" text-anchor="middle" x="44.38" y="-62.5" font-family="Helvetica,sans-Serif" font-size="10.00">platform_paths.h</text>
</a>
</g>
</g>
<!-- Node1&#45;&gt;Node2 -->
<g id="edge1_Node000001_Node000002" class="edge">
<title>Node1&#45;&gt;Node2</title>
<g id="a_edge1_Node000001_Node000002"><a xlink:title=" ">
<path fill="none" stroke="#63b8ff" d="M141,-111.59C122.82,-103.21 95.95,-90.8 75.16,-81.21"/>
<polygon fill="#63b8ff" stroke="#63b8ff" points="76.83,-78.13 66.29,-77.11 73.9,-84.48 76.83,-78.13"/>
</a>
</g>
</g>
<!-- Node4 -->
<g id="Node000004" class="node">
<title>Node4</title>
<g id="a_Node000004"><a xlink:title=" ">
<polygon fill="#e0e0e0" stroke="#999999" points="152,-76 106.75,-76 106.75,-56 152,-56 152,-76"/>
<text xml:space="preserve" text-anchor="middle" x="129.38" y="-62.5" font-family="Helvetica,sans-Serif" font-size="10.00">stdio.h</text>
</a>
</g>
</g>
<!-- Node1&#45;&gt;Node4 -->
<g id="edge3_Node000001_Node000004" class="edge">
<title>Node1&#45;&gt;Node4</title>
<g id="a_edge3_Node000001_Node000004"><a xlink:title=" ">
<path fill="none" stroke="#63b8ff" d="M155.8,-111.59C151.63,-104.55 145.77,-94.67 140.63,-86"/>
<polygon fill="#63b8ff" stroke="#63b8ff" points="143.77,-84.42 135.66,-77.6 137.74,-87.99 143.77,-84.42"/>
</a>
</g>
</g>
<!-- Node5 -->
<g id="Node000005" class="node">
<title>Node5</title>
<g id="a_Node000005"><a xlink:title=" ">
<polygon fill="#e0e0e0" stroke="#999999" points="217.12,-76 169.62,-76 169.62,-56 217.12,-56 217.12,-76"/>
<text xml:space="preserve" text-anchor="middle" x="193.38" y="-62.5" font-family="Helvetica,sans-Serif" font-size="10.00">stdlib.h</text>
</a>
</g>
</g>
<!-- Node1&#45;&gt;Node5 -->
<g id="edge4_Node000001_Node000005" class="edge">
<title>Node1&#45;&gt;Node5</title>
<g id="a_edge4_Node000001_Node000005"><a xlink:title=" ">
<path fill="none" stroke="#63b8ff" d="M166.95,-111.59C171.12,-104.55 176.98,-94.67 182.12,-86"/>
<polygon fill="#63b8ff" stroke="#63b8ff" points="185.01,-87.99 187.09,-77.6 178.98,-84.42 185.01,-87.99"/>
</a>
</g>
</g>
<!-- Node6 -->
<g id="Node000006" class="node">
<title>Node6</title>
<g id="a_Node000006"><a xlink:title=" ">
<polygon fill="#e0e0e0" stroke="#999999" points="283.5,-76 235.25,-76 235.25,-56 283.5,-56 283.5,-76"/>
<text xml:space="preserve" text-anchor="middle" x="259.38" y="-62.5" font-family="Helvetica,sans-Serif" font-size="10.00">string.h</text>
</a>
</g>
</g>
<!-- Node1&#45;&gt;Node6 -->
<g id="edge5_Node000001_Node000006" class="edge">
<title>Node1&#45;&gt;Node6</title>
<g id="a_edge5_Node000001_Node000006"><a xlink:title=" ">
<path fill="none" stroke="#63b8ff" d="M178.45,-111.59C193.25,-103.44 214.94,-91.48 232.14,-82"/>
<polygon fill="#63b8ff" stroke="#63b8ff" points="233.78,-85.1 240.85,-77.21 230.4,-78.97 233.78,-85.1"/>
</a>
</g>
</g>
<!-- Node3 -->
<g id="Node000003" class="node">
<title>Node3</title>
<g id="a_Node000003"><a xlink:title=" ">
<polygon fill="#e0e0e0" stroke="#999999" points="70,-20 18.75,-20 18.75,0 70,0 70,-20"/>
<text xml:space="preserve" text-anchor="middle" x="44.38" y="-6.5" font-family="Helvetica,sans-Serif" font-size="10.00">stddef.h</text>
</a>
</g>
</g>
<!-- Node2&#45;&gt;Node3 -->
<g id="edge2_Node000002_Node000003" class="edge">
<title>Node2&#45;&gt;Node3</title>
<g id="a_edge2_Node000002_Node000003"><a xlink:title=" ">
<path fill="none" stroke="#63b8ff" d="M44.38,-55.59C44.38,-49.01 44.38,-39.96 44.38,-31.73"/>
<polygon fill="#63b8ff" stroke="#63b8ff" points="47.88,-31.81 44.38,-21.81 40.88,-31.81 47.88,-31.81"/>
</a>
</g>
</g>
</g>
</svg>
