<?xml version="1.0" encoding="UTF-8" standalone="no"?>
<!DOCTYPE svg PUBLIC "-//W3C//DTD SVG 1.1//EN"
 "http://www.w3.org/Graphics/SVG/1.1/DTD/svg11.dtd">
<!-- Generated by graphviz version 14.1.3 (0)
 -->
<!-- Title: core/platform_paths.c Pages: 1 -->
<svg width="506pt" height="140pt"
 viewBox="0.00 0.00 506.00 140.00" xmlns="http://www.w3.org/2000/svg" xmlns:xlink="http://www.w3.org/1999/xlink">
<g id="graph0" class="graph" transform="scale(1 1) rotate(0) translate(4 136)">
<title>core/platform_paths.c</title>
<!-- Node1 -->
<g id="Node000001" class="node">
<title>Node1</title>
<g id="a_Node000001"><a xlink:title=" ">
<polygon fill="#999999" stroke="#666666" points="314.62,-132 204.12,-132 204.12,-112 314.62,-112 314.62,-132"/>
<text xml:space="preserve" text-anchor="middle" x="259.38" y="-118.5" font-family="Helvetica,sans-Serif" font-size="10.00">core/platform_paths.c</text>
</a>
</g>
</g>
<!-- Node2 -->
<g id="Node000002" class="node">
<title>Node2</title>
<g id="a_Node000002"><a xlink:href="platform__paths_8h.html" target="_top" xlink:title=" ">
<polygon fill="white" stroke="#666666" points="88.75,-76 0,-76 0,-56 88.75,-56 88.75,-76"/>
<text xml:space="preserve" text-anchor="middle" x="44.38" y="-62.5" font-family="Helvetica,sans-Serif" font-size="10.00">platform_paths.h</text>
</a>
</g>
</g>
<!-- Node1&#45;&gt;Node2 -->
<g id="edge1_Node000001_Node000002" class="edge">
<title>Node1&#45;&gt;Node2</title>
<g id="a_edge1_Node000001_Node000002"><a xlink:title=" ">
<path fill="none" stroke="#63b8ff" d="M221.92,-111.59C186.23,-102.63 132.28,-89.08 93.22,-79.27"/>
<polygon fill="#63b8ff" stroke="#63b8ff" points="94.14,-75.89 83.59,-76.85 92.43,-82.68 94.14,-75.89"/>
</a>
</g>
</g>
<!-- Node4 -->
<g id="Node000004" class="node">
<title>Node4</title>
<g id="a_Node000004"><a xlink:title=" ">
<polygon fill="#e0e0e0" stroke="#999999" points="152,-76 106.75,-76 106.75,-56 152,-56 152,-76"/>
<text xml:space="preserve" text-anchor="middle" x="129.38" y="-62.5" font-family="Helvetica,sans-Serif" font-size="10.00">stdio.h</text>
</a>
</g>
</g>
<!-- Node1&#45;&gt;Node4 -->
<g id="edge3_Node000001_Node000004" class="edge">
<title>Node1&#45;&gt;Node4</title>
<g id="a_edge3_Node000001_Node000004"><a xlink:title=" ">
<path fill="none" stroke="#63b8ff" d="M236.73,-111.59C216.26,-103.09 185.86,-90.46 162.63,-80.81"/>
<polygon fill="#63b8ff" stroke="#63b8ff" points="164.17,-77.66 153.59,-77.06 161.49,-84.13 164.17,-77.66"/>
</a>
</g>
</g>
<!-- Node5 -->
<g id="Node000005" class="node">
<title>Node5</title>
<g id="a_Node000005"><a xlink:title=" ">
<polygon fill="#e0e0e0" stroke="#999999" points="217.12,-76 169.62,-76 169.62,-56 217.12,-56 217.12,-76"/>
<text xml:space="preserve" text-anchor="middle" x="193.38" y="-62.5" font-family="Helvetica,sans-Serif" font-size="10.00">stdlib.h</text>
</a>
</g>
</g>
<!-- Node1&#45;&gt;Node5 -->
<g id="edge4_Node000001_Node000005" class="edge">
<title>Node1&#45;&gt;Node5</title>
<g id="a_edge4_Node000001_Node000005"><a xlink:title=" ">
<path fill="none" stroke="#63b8ff" d="M247.88,-111.59C238.41,-103.85 224.77,-92.69 213.5,-83.47"/>
<polygon fill="#63b8ff" stroke="#63b8ff" points="215.87,-80.88 205.91,-77.26 211.43,-86.3 215.87,-80.88"/>
</a>
</g>
</g>
<!-- Node6 -->
<g id="Node000006" class="node">
<title>Node6</title>
<g id="a_Node000006"><a xlink:title=" ">
<polygon fill="#e0e0e0" stroke="#999999" points="283.5,-76 235.25,-76 235.25,-56 283.5,-56 283.5,-76"/>
<text xml:space="preserve" text-anchor="middle" x="259.38" y="-62.5" font-family="Helvetica,sans-Serif" font-size="10.00">string.h</text>
</a>
</g>
</g>
<!-- Node1&#45;&gt;Node6 -->
<g id="edge5_Node000001_Node000006" class="edge">
<title>Node1&#45;&gt;Node6</title>
<g id="a_edge5_Node000001_Node000006"><a xlink:title=" ">
<path fill="none" stroke="#63b8ff" d="M259.38,-111.59C259.38,-105.01 259.38,-95.96 259.38,-87.73"/>
<polygon fill="#63b8ff" stroke="#63b8ff" points="262.88,-87.81 259.38,-77.81 255.88,-87.81 262.88,-87.81"/>
</a>
</g>
</g>
<!-- Node7 -->
<g id="Node000007" class="node">
<title>Node7</title>
<g id="a_Node000007"><a xlink:title=" ">
<polygon fill="#e0e0e0" stroke="#999999" points="351.62,-76 301.12,-76 301.12,-56 351.62,-56 351.62,-76"/>
<text xml:space="preserve" text-anchor="middle" x="326.38" y="-62.5" font-family="Helvetica,sans-Serif" font-size="10.00">unistd.h</text>
</a>
</g>
</g>
<!-- Node1&#45;&gt;Node7 -->
<g id="edge6_Node000001_Node000007" class="edge">
<title>Node1&#45;&gt;Node7</title>
<g id="a_edge6_Node000001_Node000007"><a xlink:title=" ">
<path fill="none" stroke="#63b8ff" d="M271.05,-111.59C280.65,-103.85 294.5,-92.69 305.94,-83.47"/>
<polygon fill="#63b8ff" stroke="#63b8ff" points="308.07,-86.25 313.66,-77.25 303.68,-80.8 308.07,-86.25"/>
</a>
</g>
</g>
<!-- Node8 -->
<g id="Node000008" class="node">
<title>Node8</title>
<g id="a_Node000008"><a xlink:title=" ">
<polygon fill="#e0e0e0" stroke="#999999" points="436.88,-76 369.88,-76 369.88,-56 436.88,-56 436.88,-76"/>
<text xml:space="preserve" text-anchor="middle" x="403.38" y="-62.5" font-family="Helvetica,sans-Serif" font-size="10.00">sys/types.h</text>
</a>
</g>
</g>
<!-- Node1&#45;&gt;Node8 -->
<g id="edge7_Node000001_Node000008" class="edge">
<title>Node1&#45;&gt;Node8</title>
<g id="a_edge7_Node000001_Node000008"><a xlink:title=" ">
<path fill="none" stroke="#63b8ff" d="M284.46,-111.59C307.44,-102.97 341.73,-90.12 367.59,-80.42"/>
<polygon fill="#63b8ff" stroke="#63b8ff" points="368.54,-83.8 376.68,-77.01 366.09,-77.25 368.54,-83.8"/>
</a>
</g>
</g>
<!-- Node9 -->
<g id="Node000009" class="node">
<title>Node9</title>
<g id="a_Node000009"><a xlink:title=" ">
<polygon fill="#e0e0e0" stroke="#999999" points="497.5,-76 455.25,-76 455.25,-56 497.5,-56 497.5,-76"/>
<text xml:space="preserve" text-anchor="middle" x="476.38" y="-62.5" font-family="Helvetica,sans-Serif" font-size="10.00">pwd.h</text>
</a>
</g>
</g>
<!-- Node1&#45;&gt;Node9 -->
<g id="edge8_Node000001_Node000009" class="edge">
<title>Node1&#45;&gt;Node9</title>
<g id="a_edge8_Node000001_Node000009"><a xlink:title=" ">
<path fill="none" stroke="#63b8ff" d="M301.51,-111.56C337.14,-103.42 389.8,-91.04 443.94,-76.56"/>
<polygon fill="#63b8ff" stroke="#63b8ff" points="444.58,-80.01 453.32,-74.03 442.76,-73.25 444.58,-80.01"/>
</a>
</g>
</g>
<!-- Node3 -->
<g id="Node000003" class="node">
<title>Node3</title>
<g id="a_Node000003"><a xlink:title=" ">
<polygon fill="#e0e0e0" stroke="#999999" points="70,-20 18.75,-20 18.75,0 70,0 70,-20"/>
<text xml:space="preserve" text-anchor="middle" x="44.38" y="-6.5" font-family="Helvetica,sans-Serif" font-size="10.00">stddef.h</text>
</a>
</g>
</g>
<!-- Node2&#45;&gt;Node3 -->
<g id="edge2_Node000002_Node000003" class="edge">
<title>Node2&#45;&gt;Node3</title>
<g id="a_edge2_Node000002_Node000003"><a xlink:title=" ">
<path fill="none" stroke="#63b8ff" d="M44.38,-55.59C44.38,-49.01 44.38,-39.96 44.38,-31.73"/>
<polygon fill="#63b8ff" stroke="#63b8ff" points="47.88,-31.81 44.38,-21.81 40.88,-31.81 47.88,-31.81"/>
</a>
</g>
</g>
</g>
</svg>
