<?xml version="1.0" encoding="UTF-8" standalone="no"?>
<!DOCTYPE svg PUBLIC "-//W3C//DTD SVG 1.1//EN"
 "http://www.w3.org/Graphics/SVG/1.1/DTD/svg11.dtd">
<!-- Generated by graphviz version 14.0.5 (0)
 -->
<!-- Title: core/pwned_check.c Pages: 1 -->
<svg width="555pt" height="84pt"
 viewBox="0.00 0.00 555.00 84.00" xmlns="http://www.w3.org/2000/svg" xmlns:xlink="http://www.w3.org/1999/xlink">
<g id="graph0" class="graph" transform="scale(1 1) rotate(0) translate(4 80)">
<title>core/pwned_check.c</title>
<!-- Node1 -->
<g id="Node000001" class="node">
<title>Node1</title>
<g id="a_Node000001"><a xlink:title=" ">
<polygon fill="#999999" stroke="#666666" points="375.12,-76 269.12,-76 269.12,-56 375.12,-56 375.12,-76"/>
<text xml:space="preserve" text-anchor="middle" x="322.12" y="-62.5" font-family="Helvetica,sans-Serif" font-size="10.00">core/pwned_check.c</text>
</a>
</g>
</g>
<!-- Node2 -->
<g id="Node000002" class="node">
<title>Node2</title>
<g id="a_Node000002"><a xlink:href="pwned__check_8h.html" target="_top" xlink:title=" ">
<polygon fill="white" stroke="#666666" points="84.25,-20 0,-20 0,0 84.25,0 84.25,-20"/>
<text xml:space="preserve" text-anchor="middle" x="42.12" y="-6.5" font-family="Helvetica,sans-Serif" font-size="10.00">pwned_check.h</text>
</a>
</g>
</g>
<!-- Node1&#45;&gt;Node2 -->
<g id="edge1_Node000001_Node000002" class="edge">
<title>Node1&#45;&gt;Node2</title>
<g id="a_edge1_Node000001_Node000002"><a xlink:title=" ">
<path fill="none" stroke="#63b8ff" d="M273.03,-55.53C223.46,-45.97 147.08,-31.24 95.9,-21.37"/>
<polygon fill="#63b8ff" stroke="#63b8ff" points="96.71,-17.96 86.23,-19.51 95.38,-24.84 96.71,-17.96"/>
</a>
</g>
</g>
<!-- Node3 -->
<g id="Node000003" class="node">
<title>Node3</title>
<g id="a_Node000003"><a xlink:title=" ">
<polygon fill="#e0e0e0" stroke="#999999" points="179.5,-20 102.75,-20 102.75,0 179.5,0 179.5,-20"/>
<text xml:space="preserve" text-anchor="middle" x="141.12" y="-6.5" font-family="Helvetica,sans-Serif" font-size="10.00">openssl/evp.h</text>
</a>
</g>
</g>
<!-- Node1&#45;&gt;Node3 -->
<g id="edge2_Node000001_Node000003" class="edge">
<title>Node1&#45;&gt;Node3</title>
<g id="a_edge2_Node000001_Node000003"><a xlink:title=" ">
<path fill="none" stroke="#63b8ff" d="M290.6,-55.59C260.93,-46.74 216.29,-33.43 183.52,-23.65"/>
<polygon fill="#63b8ff" stroke="#63b8ff" points="184.93,-20.42 174.35,-20.91 182.93,-27.13 184.93,-20.42"/>
</a>
</g>
</g>
<!-- Node4 -->
<g id="Node000004" class="node">
<title>Node4</title>
<g id="a_Node000004"><a xlink:title=" ">
<polygon fill="#e0e0e0" stroke="#999999" points="274.5,-20 197.75,-20 197.75,0 274.5,0 274.5,-20"/>
<text xml:space="preserve" text-anchor="middle" x="236.12" y="-6.5" font-family="Helvetica,sans-Serif" font-size="10.00">openssl/sha.h</text>
</a>
</g>
</g>
<!-- Node1&#45;&gt;Node4 -->
<g id="edge3_Node000001_Node000004" class="edge">
<title>Node1&#45;&gt;Node4</title>
<g id="a_edge3_Node000001_Node000004"><a xlink:title=" ">
<path fill="none" stroke="#63b8ff" d="M307.14,-55.59C294.4,-47.59 275.83,-35.93 260.88,-26.54"/>
<polygon fill="#63b8ff" stroke="#63b8ff" points="262.83,-23.64 252.5,-21.28 259.11,-29.57 262.83,-23.64"/>
</a>
</g>
</g>
<!-- Node5 -->
<g id="Node000005" class="node">
<title>Node5</title>
<g id="a_Node000005"><a xlink:title=" ">
<polygon fill="#e0e0e0" stroke="#999999" points="351.5,-20 292.75,-20 292.75,0 351.5,0 351.5,-20"/>
<text xml:space="preserve" text-anchor="middle" x="322.12" y="-6.5" font-family="Helvetica,sans-Serif" font-size="10.00">curl/curl.h</text>
</a>
</g>
</g>
<!-- Node1&#45;&gt;Node5 -->
<g id="edge4_Node000001_Node000005" class="edge">
<title>Node1&#45;&gt;Node5</title>
<g id="a_edge4_Node000001_Node000005"><a xlink:title=" ">
<path fill="none" stroke="#63b8ff" d="M322.12,-55.59C322.12,-49.01 322.12,-39.96 322.12,-31.73"/>
<polygon fill="#63b8ff" stroke="#63b8ff" points="325.63,-31.81 322.13,-21.81 318.63,-31.81 325.63,-31.81"/>
</a>
</g>
</g>
<!-- Node6 -->
<g id="Node000006" class="node">
<title>Node6</title>
<g id="a_Node000006"><a xlink:title=" ">
<polygon fill="#e0e0e0" stroke="#999999" points="418.25,-20 370,-20 370,0 418.25,0 418.25,-20"/>
<text xml:space="preserve" text-anchor="middle" x="394.12" y="-6.5" font-family="Helvetica,sans-Serif" font-size="10.00">string.h</text>
</a>
</g>
</g>
<!-- Node1&#45;&gt;Node6 -->
<g id="edge5_Node000001_Node000006" class="edge">
<title>Node1&#45;&gt;Node6</title>
<g id="a_edge5_Node000001_Node000006"><a xlink:title=" ">
<path fill="none" stroke="#63b8ff" d="M334.67,-55.59C345.09,-47.77 360.17,-36.46 372.54,-27.19"/>
<polygon fill="#63b8ff" stroke="#63b8ff" points="374.62,-30.01 380.52,-21.21 370.42,-24.41 374.62,-30.01"/>
</a>
</g>
</g>
<!-- Node7 -->
<g id="Node000007" class="node">
<title>Node7</title>
<g id="a_Node000007"><a xlink:title=" ">
<polygon fill="#e0e0e0" stroke="#999999" points="483.88,-20 436.38,-20 436.38,0 483.88,0 483.88,-20"/>
<text xml:space="preserve" text-anchor="middle" x="460.12" y="-6.5" font-family="Helvetica,sans-Serif" font-size="10.00">stdlib.h</text>
</a>
</g>
</g>
<!-- Node1&#45;&gt;Node7 -->
<g id="edge6_Node000001_Node000007" class="edge">
<title>Node1&#45;&gt;Node7</title>
<g id="a_edge6_Node000001_Node000007"><a xlink:title=" ">
<path fill="none" stroke="#63b8ff" d="M346.16,-55.59C368.09,-47.01 400.75,-34.23 425.5,-24.55"/>
<polygon fill="#63b8ff" stroke="#63b8ff" points="426.45,-27.93 434.49,-21.03 423.9,-21.42 426.45,-27.93"/>
</a>
</g>
</g>
<!-- Node8 -->
<g id="Node000008" class="node">
<title>Node8</title>
<g id="a_Node000008"><a xlink:title=" ">
<polygon fill="#e0e0e0" stroke="#999999" points="546.75,-20 501.5,-20 501.5,0 546.75,0 546.75,-20"/>
<text xml:space="preserve" text-anchor="middle" x="524.12" y="-6.5" font-family="Helvetica,sans-Serif" font-size="10.00">stdio.h</text>
</a>
</g>
</g>
<!-- Node1&#45;&gt;Node8 -->
<g id="edge7_Node000001_Node000008" class="edge">
<title>Node1&#45;&gt;Node8</title>
<g id="a_edge7_Node000001_Node000008"><a xlink:title=" ">
<path fill="none" stroke="#63b8ff" d="M359.22,-55.53C391.54,-47.21 439.93,-34.6 490.06,-20.8"/>
<polygon fill="#63b8ff" stroke="#63b8ff" points="490.95,-24.19 499.66,-18.15 489.09,-17.44 490.95,-24.19"/>
</a>
</g>
</g>
</g>
</svg>
