<?xml version="1.0" encoding="UTF-8" standalone="no"?>
<!DOCTYPE svg PUBLIC "-//W3C//DTD SVG 1.1//EN"
 "http://www.w3.org/Graphics/SVG/1.1/DTD/svg11.dtd">
<!-- Generated by graphviz version 2.43.0 (0)
 -->
<!-- Title: core/pwned_check.c Pages: 1 -->
<svg width="597pt" height="82pt"
 viewBox="0.00 0.00 597.00 82.00" xmlns="http://www.w3.org/2000/svg" xmlns:xlink="http://www.w3.org/1999/xlink">
<g id="graph0" class="graph" transform="scale(1 1) rotate(0) translate(4 78)">
<title>core/pwned_check.c</title>
<!-- Node1 -->
<g id="Node000001" class="node">
<title>Node1</title>
<g id="a_Node000001"><a xlink:title=" ">
<polygon fill="#999999" stroke="#666666" points="403.5,-74 288.5,-74 288.5,-55 403.5,-55 403.5,-74"/>
<text text-anchor="middle" x="346" y="-62" font-family="Helvetica,sans-Serif" font-size="10.00">core/pwned_check.c</text>
</a>
</g>
</g>
<!-- Node2 -->
<g id="Node000002" class="node">
<title>Node2</title>
<g id="a_Node000002"><a xlink:href="pwned__check_8h.html" target="_top" xlink:title=" ">
<polygon fill="white" stroke="#666666" points="92,-19 0,-19 0,0 92,0 92,-19"/>
<text text-anchor="middle" x="46" y="-7" font-family="Helvetica,sans-Serif" font-size="10.00">pwned_check.h</text>
</a>
</g>
</g>
<!-- Node1&#45;&gt;Node2 -->
<g id="edge1_Node000001_Node000002" class="edge">
<title>Node1&#45;&gt;Node2</title>
<g id="a_edge1_Node000001_Node000002"><a xlink:title=" ">
<path fill="none" stroke="#63b8ff" d="M297.8,-54.98C244.47,-45.56 158.64,-30.4 102.28,-20.44"/>
<polygon fill="#63b8ff" stroke="#63b8ff" points="102.57,-16.94 92.11,-18.65 101.35,-23.83 102.57,-16.94"/>
</a>
</g>
</g>
<!-- Node3 -->
<g id="Node000003" class="node">
<title>Node3</title>
<g id="a_Node000003"><a xlink:title=" ">
<polygon fill="#e0e0e0" stroke="#999999" points="194,-19 110,-19 110,0 194,0 194,-19"/>
<text text-anchor="middle" x="152" y="-7" font-family="Helvetica,sans-Serif" font-size="10.00">openssl/evp.h</text>
</a>
</g>
</g>
<!-- Node1&#45;&gt;Node3 -->
<g id="edge2_Node000001_Node000003" class="edge">
<title>Node1&#45;&gt;Node3</title>
<g id="a_edge2_Node000001_Node000003"><a xlink:title=" ">
<path fill="none" stroke="#63b8ff" d="M314.83,-54.98C281.84,-45.97 229.6,-31.7 193.23,-21.76"/>
<polygon fill="#63b8ff" stroke="#63b8ff" points="193.98,-18.34 183.41,-19.08 192.14,-25.09 193.98,-18.34"/>
</a>
</g>
</g>
<!-- Node4 -->
<g id="Node000004" class="node">
<title>Node4</title>
<g id="a_Node000004"><a xlink:title=" ">
<polygon fill="#e0e0e0" stroke="#999999" points="295.5,-19 212.5,-19 212.5,0 295.5,0 295.5,-19"/>
<text text-anchor="middle" x="254" y="-7" font-family="Helvetica,sans-Serif" font-size="10.00">openssl/sha.h</text>
</a>
</g>
</g>
<!-- Node1&#45;&gt;Node4 -->
<g id="edge3_Node000001_Node000004" class="edge">
<title>Node1&#45;&gt;Node4</title>
<g id="a_edge3_Node000001_Node000004"><a xlink:title=" ">
<path fill="none" stroke="#63b8ff" d="M331.22,-54.98C316.82,-46.69 294.69,-33.94 277.81,-24.22"/>
<polygon fill="#63b8ff" stroke="#63b8ff" points="279.46,-21.13 269.05,-19.17 275.97,-27.19 279.46,-21.13"/>
</a>
</g>
</g>
<!-- Node5 -->
<g id="Node000005" class="node">
<title>Node5</title>
<g id="a_Node000005"><a xlink:title=" ">
<polygon fill="#e0e0e0" stroke="#999999" points="378.5,-19 313.5,-19 313.5,0 378.5,0 378.5,-19"/>
<text text-anchor="middle" x="346" y="-7" font-family="Helvetica,sans-Serif" font-size="10.00">curl/curl.h</text>
</a>
</g>
</g>
<!-- Node1&#45;&gt;Node5 -->
<g id="edge4_Node000001_Node000005" class="edge">
<title>Node1&#45;&gt;Node5</title>
<g id="a_edge4_Node000001_Node000005"><a xlink:title=" ">
<path fill="none" stroke="#63b8ff" d="M346,-54.75C346,-47.8 346,-37.85 346,-29.13"/>
<polygon fill="#63b8ff" stroke="#63b8ff" points="349.5,-29.09 346,-19.09 342.5,-29.09 349.5,-29.09"/>
</a>
</g>
</g>
<!-- Node6 -->
<g id="Node000006" class="node">
<title>Node6</title>
<g id="a_Node000006"><a xlink:title=" ">
<polygon fill="#e0e0e0" stroke="#999999" points="449.5,-19 396.5,-19 396.5,0 449.5,0 449.5,-19"/>
<text text-anchor="middle" x="423" y="-7" font-family="Helvetica,sans-Serif" font-size="10.00">string.h</text>
</a>
</g>
</g>
<!-- Node1&#45;&gt;Node6 -->
<g id="edge5_Node000001_Node000006" class="edge">
<title>Node1&#45;&gt;Node6</title>
<g id="a_edge5_Node000001_Node000006"><a xlink:title=" ">
<path fill="none" stroke="#63b8ff" d="M358.37,-54.98C370.09,-46.92 387.92,-34.65 401.89,-25.03"/>
<polygon fill="#63b8ff" stroke="#63b8ff" points="404.15,-27.72 410.4,-19.17 400.18,-21.96 404.15,-27.72"/>
</a>
</g>
</g>
<!-- Node7 -->
<g id="Node000007" class="node">
<title>Node7</title>
<g id="a_Node000007"><a xlink:title=" ">
<polygon fill="#e0e0e0" stroke="#999999" points="520.5,-19 467.5,-19 467.5,0 520.5,0 520.5,-19"/>
<text text-anchor="middle" x="494" y="-7" font-family="Helvetica,sans-Serif" font-size="10.00">stdlib.h</text>
</a>
</g>
</g>
<!-- Node1&#45;&gt;Node7 -->
<g id="edge6_Node000001_Node000007" class="edge">
<title>Node1&#45;&gt;Node7</title>
<g id="a_edge6_Node000001_Node000007"><a xlink:title=" ">
<path fill="none" stroke="#63b8ff" d="M369.78,-54.98C394.23,-46.23 432.53,-32.51 460.15,-22.62"/>
<polygon fill="#63b8ff" stroke="#63b8ff" points="461.55,-25.84 469.79,-19.17 459.19,-19.25 461.55,-25.84"/>
</a>
</g>
</g>
<!-- Node8 -->
<g id="Node000008" class="node">
<title>Node8</title>
<g id="a_Node000008"><a xlink:title=" ">
<polygon fill="#e0e0e0" stroke="#999999" points="589,-19 539,-19 539,0 589,0 589,-19"/>
<text text-anchor="middle" x="564" y="-7" font-family="Helvetica,sans-Serif" font-size="10.00">stdio.h</text>
</a>
</g>
</g>
<!-- Node1&#45;&gt;Node8 -->
<g id="edge7_Node000001_Node000008" class="edge">
<title>Node1&#45;&gt;Node8</title>
<g id="a_edge7_Node000001_Node000008"><a xlink:title=" ">
<path fill="none" stroke="#63b8ff" d="M381.64,-54.97C416.69,-46.55 471.99,-33.23 528.87,-19.26"/>
<polygon fill="#63b8ff" stroke="#63b8ff" points="529.88,-22.62 538.75,-16.83 528.21,-15.82 529.88,-22.62"/>
</a>
</g>
</g>
</g>
</svg>
