<?xml version="1.0" encoding="UTF-8" standalone="no"?>
<!DOCTYPE svg PUBLIC "-//W3C//DTD SVG 1.1//EN"
 "http://www.w3.org/Graphics/SVG/1.1/DTD/svg11.dtd">
<!-- Generated by graphviz version 14.0.2 (0)
 -->
<!-- Title: core/totp.c Pages: 1 -->
<svg width="484pt" height="140pt"
 viewBox="0.00 0.00 484.00 140.00" xmlns="http://www.w3.org/2000/svg" xmlns:xlink="http://www.w3.org/1999/xlink">
<g id="graph0" class="graph" transform="scale(1 1) rotate(0) translate(4 136)">
<title>core/totp.c</title>
<!-- Node1 -->
<g id="Node000001" class="node">
<title>Node1</title>
<g id="a_Node000001"><a xlink:title=" ">
<polygon fill="#999999" stroke="#666666" points="305.75,-132 243.25,-132 243.25,-112 305.75,-112 305.75,-132"/>
<text xml:space="preserve" text-anchor="middle" x="274.5" y="-118.5" font-family="Helvetica,sans-Serif" font-size="10.00">core/totp.c</text>
</a>
</g>
</g>
<!-- Node2 -->
<g id="Node000002" class="node">
<title>Node2</title>
<g id="a_Node000002"><a xlink:title=" ">
<polygon fill="#e0e0e0" stroke="#999999" points="85,-76 0,-76 0,-56 85,-56 85,-76"/>
<text xml:space="preserve" text-anchor="middle" x="42.5" y="-62.5" font-family="Helvetica,sans-Serif" font-size="10.00">openssl/hmac.h</text>
</a>
</g>
</g>
<!-- Node1&#45;&gt;Node2 -->
<g id="edge1_Node000001_Node000002" class="edge">
<title>Node1&#45;&gt;Node2</title>
<g id="a_edge1_Node000001_Node000002"><a xlink:title=" ">
<path fill="none" stroke="#63b8ff" d="M243.21,-113.72C205.01,-104.83 139.87,-89.66 94.19,-79.03"/>
<polygon fill="#63b8ff" stroke="#63b8ff" points="95.03,-75.63 84.5,-76.77 93.44,-82.45 95.03,-75.63"/>
</a>
</g>
</g>
<!-- Node3 -->
<g id="Node000003" class="node">
<title>Node3</title>
<g id="a_Node000003"><a xlink:title=" ">
<polygon fill="#e0e0e0" stroke="#999999" points="179.88,-76 103.12,-76 103.12,-56 179.88,-56 179.88,-76"/>
<text xml:space="preserve" text-anchor="middle" x="141.5" y="-62.5" font-family="Helvetica,sans-Serif" font-size="10.00">openssl/evp.h</text>
</a>
</g>
</g>
<!-- Node1&#45;&gt;Node3 -->
<g id="edge2_Node000001_Node000003" class="edge">
<title>Node1&#45;&gt;Node3</title>
<g id="a_edge2_Node000001_Node000003"><a xlink:title=" ">
<path fill="none" stroke="#63b8ff" d="M251.33,-111.59C230.29,-103.05 199,-90.35 175.2,-80.68"/>
<polygon fill="#63b8ff" stroke="#63b8ff" points="176.83,-77.57 166.25,-77.05 174.2,-84.05 176.83,-77.57"/>
</a>
</g>
</g>
<!-- Node4 -->
<g id="Node000004" class="node">
<title>Node4</title>
<g id="a_Node000004"><a xlink:title=" ">
<polygon fill="#e0e0e0" stroke="#999999" points="246.62,-76 198.38,-76 198.38,-56 246.62,-56 246.62,-76"/>
<text xml:space="preserve" text-anchor="middle" x="222.5" y="-62.5" font-family="Helvetica,sans-Serif" font-size="10.00">string.h</text>
</a>
</g>
</g>
<!-- Node1&#45;&gt;Node4 -->
<g id="edge3_Node000001_Node000004" class="edge">
<title>Node1&#45;&gt;Node4</title>
<g id="a_edge3_Node000001_Node000004"><a xlink:title=" ">
<path fill="none" stroke="#63b8ff" d="M265.44,-111.59C258.28,-104.16 248.09,-93.58 239.43,-84.58"/>
<polygon fill="#63b8ff" stroke="#63b8ff" points="241.96,-82.16 232.5,-77.39 236.92,-87.02 241.96,-82.16"/>
</a>
</g>
</g>
<!-- Node5 -->
<g id="Node000005" class="node">
<title>Node5</title>
<g id="a_Node000005"><a xlink:title=" ">
<polygon fill="#e0e0e0" stroke="#999999" points="353,-20 310,-20 310,0 353,0 353,-20"/>
<text xml:space="preserve" text-anchor="middle" x="331.5" y="-6.5" font-family="Helvetica,sans-Serif" font-size="10.00">time.h</text>
</a>
</g>
</g>
<!-- Node1&#45;&gt;Node5 -->
<g id="edge4_Node000001_Node000005" class="edge">
<title>Node1&#45;&gt;Node5</title>
<g id="a_edge4_Node000001_Node000005"><a xlink:title=" ">
<path fill="none" stroke="#63b8ff" d="M275.96,-111.71C278.28,-98.66 283.6,-74.44 293.5,-56 298.79,-46.16 306.48,-36.52 313.57,-28.71"/>
<polygon fill="#63b8ff" stroke="#63b8ff" points="316.01,-31.21 320.38,-21.56 310.94,-26.38 316.01,-31.21"/>
</a>
</g>
</g>
<!-- Node6 -->
<g id="Node000006" class="node">
<title>Node6</title>
<g id="a_Node000006"><a xlink:title=" ">
<polygon fill="#e0e0e0" stroke="#999999" points="348.12,-76 302.88,-76 302.88,-56 348.12,-56 348.12,-76"/>
<text xml:space="preserve" text-anchor="middle" x="325.5" y="-62.5" font-family="Helvetica,sans-Serif" font-size="10.00">stdio.h</text>
</a>
</g>
</g>
<!-- Node1&#45;&gt;Node6 -->
<g id="edge5_Node000001_Node000006" class="edge">
<title>Node1&#45;&gt;Node6</title>
<g id="a_edge5_Node000001_Node000006"><a xlink:title=" ">
<path fill="none" stroke="#63b8ff" d="M283.38,-111.59C290.4,-104.16 300.4,-93.58 308.89,-84.58"/>
<polygon fill="#63b8ff" stroke="#63b8ff" points="311.36,-87.07 315.68,-77.4 306.27,-82.27 311.36,-87.07"/>
</a>
</g>
</g>
<!-- Node7 -->
<g id="Node000007" class="node">
<title>Node7</title>
<g id="a_Node000007"><a xlink:title=" ">
<polygon fill="#e0e0e0" stroke="#999999" points="413.25,-76 365.75,-76 365.75,-56 413.25,-56 413.25,-76"/>
<text xml:space="preserve" text-anchor="middle" x="389.5" y="-62.5" font-family="Helvetica,sans-Serif" font-size="10.00">stdlib.h</text>
</a>
</g>
</g>
<!-- Node1&#45;&gt;Node7 -->
<g id="edge6_Node000001_Node000007" class="edge">
<title>Node1&#45;&gt;Node7</title>
<g id="a_edge6_Node000001_Node000007"><a xlink:title=" ">
<path fill="none" stroke="#63b8ff" d="M294.53,-111.59C312.31,-103.24 338.57,-90.92 358.96,-81.34"/>
<polygon fill="#63b8ff" stroke="#63b8ff" points="360.38,-84.54 367.94,-77.12 357.4,-78.21 360.38,-84.54"/>
</a>
</g>
</g>
<!-- Node8 -->
<g id="Node000008" class="node">
<title>Node8</title>
<g id="a_Node000008"><a xlink:href="totp_8h.html" target="_top" xlink:title=" ">
<polygon fill="white" stroke="#666666" points="471.88,-76 431.12,-76 431.12,-56 471.88,-56 471.88,-76"/>
<text xml:space="preserve" text-anchor="middle" x="451.5" y="-62.5" font-family="Helvetica,sans-Serif" font-size="10.00">totp.h</text>
</a>
</g>
</g>
<!-- Node1&#45;&gt;Node8 -->
<g id="edge7_Node000001_Node000008" class="edge">
<title>Node1&#45;&gt;Node8</title>
<g id="a_edge7_Node000001_Node000008"><a xlink:title=" ">
<path fill="none" stroke="#63b8ff" d="M305.7,-111.57C333.44,-103.17 375.38,-90.45 420.1,-76.72"/>
<polygon fill="#63b8ff" stroke="#63b8ff" points="420.93,-80.13 429.46,-73.85 418.88,-73.44 420.93,-80.13"/>
</a>
</g>
</g>
<!-- Node8&#45;&gt;Node5 -->
<g id="edge9_Node000008_Node000005" class="edge">
<title>Node8&#45;&gt;Node5</title>
<g id="a_edge9_Node000008_Node000005"><a xlink:title=" ">
<path fill="none" stroke="#63b8ff" d="M430.87,-55.72C412.07,-47.26 384.03,-34.64 362.52,-24.96"/>
<polygon fill="#63b8ff" stroke="#63b8ff" points="364.2,-21.88 353.64,-20.96 361.32,-28.26 364.2,-21.88"/>
</a>
</g>
</g>
<!-- Node9 -->
<g id="Node000009" class="node">
<title>Node9</title>
<g id="a_Node000009"><a xlink:title=" ">
<polygon fill="#e0e0e0" stroke="#999999" points="475.62,-20 427.38,-20 427.38,0 475.62,0 475.62,-20"/>
<text xml:space="preserve" text-anchor="middle" x="451.5" y="-6.5" font-family="Helvetica,sans-Serif" font-size="10.00">stdint.h</text>
</a>
</g>
</g>
<!-- Node8&#45;&gt;Node9 -->
<g id="edge8_Node000008_Node000009" class="edge">
<title>Node8&#45;&gt;Node9</title>
<g id="a_edge8_Node000008_Node000009"><a xlink:title=" ">
<path fill="none" stroke="#63b8ff" d="M451.5,-55.59C451.5,-49.01 451.5,-39.96 451.5,-31.73"/>
<polygon fill="#63b8ff" stroke="#63b8ff" points="455,-31.81 451.5,-21.81 448,-31.81 455,-31.81"/>
</a>
</g>
</g>
</g>
</svg>
