<svg viewBox="0 0 100 100" xmlns="http://www.w3.org/2000/svg">
  <!-- Squircle shape as the outer boundary, now FILLED with grayish color (#8b8484 from starburst) -->
  <path d="M20,0 C40,0 60,0 80,0 C94.1421356,0 100,5.85786438 100,20 C100,40 100,60 100,80 C100,94.1421356 94.1421356,100 80,100 C60,100 40,100 20,100 C5.85786438,100 0,94.1421356 0,80 C0,60 0,40 0,20 C0,5.85786438 5.85786438,0 20,0 Z" 
        fill="#8b8484" 
        stroke="#c77575" 
        stroke-width="2"/>

  <!-- Diary background, scaled and centered -->
  <g transform="translate(20, 20) scale(2.5)">
    <path d="M6.26501 20.48V21.5C6.26501 21.78 6.48501 22 6.76501 22H18.735C19.015 22 19.235 21.78 19.235 21.5V3.5C19.045 3.31 18.935 3.2 18.735 3H6.76501C6.48501 3 6.26501 3.22 6.26501 3.5V4.52" stroke="#0F0F0F" stroke-miterlimit="10" stroke-linecap="round" stroke-linejoin="round"/>
    <path d="M6.26501 14.5V16.49" stroke="#0F0F0F" stroke-miterlimit="10" stroke-linecap="round" stroke-linejoin="round"/>
    <path d="M6.26501 8.51001V10.5" stroke="#0F0F0F" stroke-miterlimit="10" stroke-linecap="round" stroke-linejoin="round"/>
    <path d="M7.76501 7.51001C8.3173 7.51001 8.76501 7.06229 8.76501 6.51001C8.76501 5.95772 8.3173 5.51001 7.76501 5.51001C7.21273 5.51001 6.76501 5.95772 6.76501 6.51001C6.76501 7.06229 7.21273 7.51001 7.76501 7.51001Z" fill="#0F0F0F"/>
    <path d="M7.76501 13.5C8.3173 13.5 8.76501 13.0523 8.76501 12.5C8.76501 11.9477 8.3173 11.5 7.76501 11.5C7.21273 11.5 6.76501 11.9477 6.76501 12.5C6.76501 13.0523 7.21273 13.5 7.76501 13.5Z" fill="#0F0F0F"/>
    <path d="M7.76501 19.49C8.3173 19.49 8.76501 19.0423 8.76501 18.49C8.76501 17.9377 8.3173 17.49 7.76501 17.49C7.21273 17.49 6.76501 17.9377 6.76501 18.49C6.76501 19.0423 7.21273 19.49 7.76501 19.49Z" fill="#0F0F0F"/>
    <path d="M4.76501 12.5H7.76501" stroke="#0F0F0F" stroke-miterlimit="10" stroke-linecap="round" stroke-linejoin="round"/>
    <path d="M4.76501 6.51001H7.76501" stroke="#0F0F0F" stroke-miterlimit="10" stroke-linecap="round" stroke-linejoin="round"/>
    <path d="M4.76501 18.49H7.76501" stroke="#0F0F0F" stroke-miterlimit="10" stroke-linecap="round" stroke-linejoin="round"/>
  </g>
  
  <!-- Starburst, scaled and centered within the diary -->
  <g transform="translate(42, 42) scale(2.5)">
    <path d="M14.584,7.939 C16.119,7.433 17.053,6.931 16.985,6.561 C16.917,6.191 15.867,6.031 14.249,6.071 C15.514,5.081 16.216,4.295 16.023,3.97 C15.834,3.645 14.789,3.849 13.281,4.428 C14.127,3.074 14.511,2.101 14.219,1.859 C13.927,1.617 13.016,2.158 11.803,3.211 C12.123,1.654 12.145,0.609 11.785,0.481 C11.428,0.353 10.761,1.167 9.988,2.561 C9.747,0.991 9.402,0 9.021,0 C8.638,0 8.294,0.99 8.054,2.561 C7.282,1.166 6.615,0.352 6.254,0.479 C5.894,0.608 5.917,1.653 6.238,3.209 C5.026,2.158 4.114,1.617 3.821,1.857 C3.528,2.097 3.913,3.073 4.758,4.427 C3.251,3.847 2.205,3.644 2.015,3.969 C1.824,4.294 2.525,5.08 3.792,6.071 C2.173,6.031 1.12,6.19 1.054,6.561 C0.987,6.929 1.921,7.433 3.454,7.939 C1.921,8.445 0.987,8.949 1.054,9.318 C1.121,9.687 2.173,9.848 3.792,9.807 C2.524,10.796 1.821,11.581 2.015,11.908 C2.205,12.234 3.251,12.031 4.756,11.45 C3.911,12.805 3.527,13.779 3.819,14.021 C4.114,14.263 5.024,13.72 6.236,12.67 C5.915,14.226 5.893,15.271 6.253,15.399 C6.612,15.528 7.281,14.713 8.054,13.317 C8.294,14.887 8.638,15.878 9.021,15.878 C9.402,15.878 9.747,14.888 9.988,13.317 C10.76,14.712 11.428,15.526 11.787,15.398 C12.147,15.27 12.125,14.225 11.803,12.669 C13.016,13.72 13.927,14.262 14.219,14.02 C14.514,13.778 14.129,12.804 13.283,11.451 C14.789,12.032 15.834,12.233 16.025,11.909 C16.216,11.583 15.513,10.798 14.25,9.808 C15.867,9.848 16.918,9.688 16.985,9.317 C17.053,8.949 16.119,8.445 14.584,7.939 Z" fill="#434343"/>
  </g>
  
  <!-- Keys, scaled and positioned within the starburst -->
  <g transform="translate(35, 35) scale(0.3)">
    <path d="M60.78,43.44c-1.49,0.81-3.35,0.26-4.15-1.22c-0.81-1.49-0.26-3.35,1.23-4.15c7.04-3.82,10.32-8.76,10.98-13.59 c0.35-2.58-0.05-5.17-1.02-7.57c-0.99-2.43-2.56-4.64-4.55-6.42c-3.87-3.46-9.3-5.28-14.97-3.87c-2.3,0.57-4.29,1.72-6.03,3.34 c-1.85,1.72-3.45,3.97-4.85,6.63c-0.79,1.5-2.64,2.07-4.13,1.29c-1.5-0.79-2.07-2.64-1.29-4.13c1.72-3.26,3.73-6.06,6.11-8.28 c2.49-2.31,5.38-3.97,8.74-4.8c7.8-1.93,15.23,0.53,20.51,5.25c2.68,2.4,4.81,5.39,6.15,8.69c1.35,3.33,1.9,6.99,1.39,10.7 C73.99,31.93,69.75,38.57,60.78,43.44L60.78,43.44z M37.32,67.61c-11.6-15.58-11.88-30.34,2.2-44.06l-10.14-5.6 C21.26,14.79,6.36,38.08,12.12,44.3l7.9,11.72l-1.63,3.4c-0.45,1.01-0.01,1.72,1.09,2.21l1.07,0.29L0,102.59l4.16,8.87l8.32-2.45 l2.14-4.16l-2.05-3.84l4.52-0.97L18.14,98l-2.36-3.6l1.55-3.01l4.51-0.57l1.47-2.85l-2.52-3.29l1.61-3.12l4.6-0.75l6.26-11.95 l1.06,0.58C36.16,70.56,37.11,69.84,37.32,67.61L37.32,67.61z M59.15,77.38l-3.06,11.42l-4.25,1.68l-0.89,3.33l3.1,2.63l-0.81,3.03 l-4.2,1.48l-0.86,3.2l3.01,2.95l-0.58,2.17l-4.13,1.87l2.76,3.25l-1.19,4.43l-7.45,4.07l-5.82-7.63l11.1-41.43l-2.69-0.72 c-0.55-0.15-0.89-0.72-0.74-1.28l1.13-4.21c-8.14-6.17-12.17-16.85-9.37-27.32c3.6-13.45,17.18-21.57,30.64-18.55 c0.06,0.72,0.05,1.45-0.05,2.18c-0.25,1.82-1.04,3.69-2.5,5.5c-0.2,0.24-0.41,0.49-0.63,0.73c-4.3-0.28-8.33,2.5-9.49,6.82 c-0.5,1.86-0.39,3.74,0.2,5.43c0.14,0.6,0.37,1.18,0.67,1.75c0.71,1.3,1.75,2.29,2.97,2.92c0.8,0.53,1.7,0.93,2.67,1.2 c4.83,1.29,9.78-1.49,11.22-6.24c1.46-1.29,2.73-2.65,3.82-4.05c2.12-2.73,3.57-5.63,4.43-8.58c5.84,6.3,8.41,15.37,6.02,24.29 c-2.8,10.47-11.65,17.71-21.77,18.98l-1.13,4.21c-0.15,0.55-0.72,0.89-1.28,0.74L59.15,77.38L59.15,77.38z" fill="#d97dbc"/>
  </g>
</svg>
