<svg xmlns="http://www.w3.org/2000/svg" width="24" height="24" viewBox="0 0 24 24" fill="none" stroke="currentColor" stroke-width="2" stroke-linecap="round" stroke-linejoin="round">
  <!-- Copy icon elements -->
  <rect x="9" y="9" width="13" height="13" rx="2" ry="2"/>
  <path d="M5 15H4a2 2 0 0 1-2-2V4a2 2 0 0 1 2-2h9a2 2 0 0 1 2 2v1"/>
  
  <!-- User icon elements, scaled and centered within the larger rectangle -->
  <g transform="translate(12, 14) scale(0.5)">
    <path d="M8 7C9.65685 7 11 5.65685 11 4C11 2.34315 9.65685 1 8 1C6.34315 1 5 2.34315 5 4C5 5.65685 6.34315 7 8 7Z" fill="currentColor"/>
    <path d="M14 12C14 10.3431 12.6569 9 11 9H5C3.34315 9 2 10.3431 2 12V15H14V12Z" fill="currentColor"/>
  </g>
</svg>
