<?xml version="1.0" encoding="UTF-8" standalone="no"?>
<!DOCTYPE svg PUBLIC "-//W3C//DTD SVG 1.1//EN"
 "http://www.w3.org/Graphics/SVG/1.1/DTD/svg11.dtd">
<!-- Generated by graphviz version 14.0.2 (0)
 -->
<!-- Title: core/database.c Pages: 1 -->
<svg width="559pt" height="140pt"
 viewBox="0.00 0.00 559.00 140.00" xmlns="http://www.w3.org/2000/svg" xmlns:xlink="http://www.w3.org/1999/xlink">
<g id="graph0" class="graph" transform="scale(1 1) rotate(0) translate(4 136)">
<title>core/database.c</title>
<!-- Node1 -->
<g id="Node000001" class="node">
<title>Node1</title>
<g id="a_Node000001"><a xlink:title=" ">
<polygon fill="#999999" stroke="#666666" points="365.88,-132 280.12,-132 280.12,-112 365.88,-112 365.88,-132"/>
<text xml:space="preserve" text-anchor="middle" x="323" y="-118.5" font-family="Helvetica,sans-Serif" font-size="10.00">core/database.c</text>
</a>
</g>
</g>
<!-- Node2 -->
<g id="Node000002" class="node">
<title>Node2</title>
<g id="a_Node000002"><a xlink:href="database_8h.html" target="_top" xlink:title=" ">
<polygon fill="white" stroke="#666666" points="64,-76 0,-76 0,-56 64,-56 64,-76"/>
<text xml:space="preserve" text-anchor="middle" x="32" y="-62.5" font-family="Helvetica,sans-Serif" font-size="10.00">database.h</text>
</a>
</g>
</g>
<!-- Node1&#45;&gt;Node2 -->
<g id="edge1_Node000001_Node000002" class="edge">
<title>Node1&#45;&gt;Node2</title>
<g id="a_edge1_Node000001_Node000002"><a xlink:title=" ">
<path fill="none" stroke="#63b8ff" d="M280,-113.77C232.35,-105.65 152.98,-91.78 75.17,-76.37"/>
<polygon fill="#63b8ff" stroke="#63b8ff" points="76.18,-73.01 65.69,-74.49 74.81,-79.87 76.18,-73.01"/>
</a>
</g>
</g>
<!-- Node4 -->
<g id="Node000004" class="node">
<title>Node4</title>
<g id="a_Node000004"><a xlink:href="key__derivation_8h.html" target="_top" xlink:title=" ">
<polygon fill="white" stroke="#666666" points="169.62,-76 82.38,-76 82.38,-56 169.62,-56 169.62,-76"/>
<text xml:space="preserve" text-anchor="middle" x="126" y="-62.5" font-family="Helvetica,sans-Serif" font-size="10.00">key_derivation.h</text>
</a>
</g>
</g>
<!-- Node1&#45;&gt;Node4 -->
<g id="edge3_Node000001_Node000004" class="edge">
<title>Node1&#45;&gt;Node4</title>
<g id="a_edge3_Node000001_Node000004"><a xlink:title=" ">
<path fill="none" stroke="#63b8ff" d="M288.69,-111.59C256.26,-102.71 207.39,-89.31 171.68,-79.52"/>
<polygon fill="#63b8ff" stroke="#63b8ff" points="172.61,-76.15 162.04,-76.88 170.76,-82.9 172.61,-76.15"/>
</a>
</g>
</g>
<!-- Node6 -->
<g id="Node000006" class="node">
<title>Node6</title>
<g id="a_Node000006"><a xlink:title=" ">
<polygon fill="#e0e0e0" stroke="#999999" points="282.38,-76 187.62,-76 187.62,-56 282.38,-56 282.38,-76"/>
<text xml:space="preserve" text-anchor="middle" x="235" y="-62.5" font-family="Helvetica,sans-Serif" font-size="10.00">sqlcipher/sqlite3.h</text>
</a>
</g>
</g>
<!-- Node1&#45;&gt;Node6 -->
<g id="edge5_Node000001_Node000006" class="edge">
<title>Node1&#45;&gt;Node6</title>
<g id="a_edge5_Node000001_Node000006"><a xlink:title=" ">
<path fill="none" stroke="#63b8ff" d="M307.67,-111.59C294.5,-103.51 275.27,-91.71 259.89,-82.27"/>
<polygon fill="#63b8ff" stroke="#63b8ff" points="262.09,-79.52 251.74,-77.27 258.43,-85.48 262.09,-79.52"/>
</a>
</g>
</g>
<!-- Node7 -->
<g id="Node000007" class="node">
<title>Node7</title>
<g id="a_Node000007"><a xlink:title=" ">
<polygon fill="#e0e0e0" stroke="#999999" points="345.62,-76 300.38,-76 300.38,-56 345.62,-56 345.62,-76"/>
<text xml:space="preserve" text-anchor="middle" x="323" y="-62.5" font-family="Helvetica,sans-Serif" font-size="10.00">stdio.h</text>
</a>
</g>
</g>
<!-- Node1&#45;&gt;Node7 -->
<g id="edge6_Node000001_Node000007" class="edge">
<title>Node1&#45;&gt;Node7</title>
<g id="a_edge6_Node000001_Node000007"><a xlink:title=" ">
<path fill="none" stroke="#63b8ff" d="M323,-111.59C323,-105.01 323,-95.96 323,-87.73"/>
<polygon fill="#63b8ff" stroke="#63b8ff" points="326.5,-87.81 323,-77.81 319.5,-87.81 326.5,-87.81"/>
</a>
</g>
</g>
<!-- Node8 -->
<g id="Node000008" class="node">
<title>Node8</title>
<g id="a_Node000008"><a xlink:title=" ">
<polygon fill="#e0e0e0" stroke="#999999" points="410.75,-76 363.25,-76 363.25,-56 410.75,-56 410.75,-76"/>
<text xml:space="preserve" text-anchor="middle" x="387" y="-62.5" font-family="Helvetica,sans-Serif" font-size="10.00">stdlib.h</text>
</a>
</g>
</g>
<!-- Node1&#45;&gt;Node8 -->
<g id="edge7_Node000001_Node000008" class="edge">
<title>Node1&#45;&gt;Node8</title>
<g id="a_edge7_Node000001_Node000008"><a xlink:title=" ">
<path fill="none" stroke="#63b8ff" d="M334.15,-111.59C343.33,-103.85 356.55,-92.69 367.48,-83.47"/>
<polygon fill="#63b8ff" stroke="#63b8ff" points="369.44,-86.4 374.82,-77.27 364.92,-81.05 369.44,-86.4"/>
</a>
</g>
</g>
<!-- Node9 -->
<g id="Node000009" class="node">
<title>Node9</title>
<g id="a_Node000009"><a xlink:title=" ">
<polygon fill="#e0e0e0" stroke="#999999" points="477.12,-76 428.88,-76 428.88,-56 477.12,-56 477.12,-76"/>
<text xml:space="preserve" text-anchor="middle" x="453" y="-62.5" font-family="Helvetica,sans-Serif" font-size="10.00">string.h</text>
</a>
</g>
</g>
<!-- Node1&#45;&gt;Node9 -->
<g id="edge8_Node000001_Node000009" class="edge">
<title>Node1&#45;&gt;Node9</title>
<g id="a_edge8_Node000001_Node000009"><a xlink:title=" ">
<path fill="none" stroke="#63b8ff" d="M345.64,-111.59C366.12,-103.09 396.52,-90.46 419.75,-80.81"/>
<polygon fill="#63b8ff" stroke="#63b8ff" points="420.89,-84.13 428.78,-77.06 418.2,-77.66 420.89,-84.13"/>
</a>
</g>
</g>
<!-- Node10 -->
<g id="Node000010" class="node">
<title>Node10</title>
<g id="a_Node000010"><a xlink:title=" ">
<polygon fill="#e0e0e0" stroke="#999999" points="550.88,-76 495.12,-76 495.12,-56 550.88,-56 550.88,-76"/>
<text xml:space="preserve" text-anchor="middle" x="523" y="-62.5" font-family="Helvetica,sans-Serif" font-size="10.00">sodium.h</text>
</a>
</g>
</g>
<!-- Node1&#45;&gt;Node10 -->
<g id="edge9_Node000001_Node000010" class="edge">
<title>Node1&#45;&gt;Node10</title>
<g id="a_edge9_Node000001_Node000010"><a xlink:title=" ">
<path fill="none" stroke="#63b8ff" d="M357.84,-111.59C393.03,-102.09 447.3,-87.44 483.93,-77.55"/>
<polygon fill="#63b8ff" stroke="#63b8ff" points="484.49,-81.02 493.24,-75.04 482.67,-74.26 484.49,-81.02"/>
</a>
</g>
</g>
<!-- Node3 -->
<g id="Node000003" class="node">
<title>Node3</title>
<g id="a_Node000003"><a xlink:title=" ">
<polygon fill="#e0e0e0" stroke="#999999" points="57.62,-20 6.38,-20 6.38,0 57.62,0 57.62,-20"/>
<text xml:space="preserve" text-anchor="middle" x="32" y="-6.5" font-family="Helvetica,sans-Serif" font-size="10.00">stddef.h</text>
</a>
</g>
</g>
<!-- Node2&#45;&gt;Node3 -->
<g id="edge2_Node000002_Node000003" class="edge">
<title>Node2&#45;&gt;Node3</title>
<g id="a_edge2_Node000002_Node000003"><a xlink:title=" ">
<path fill="none" stroke="#63b8ff" d="M32,-55.59C32,-49.01 32,-39.96 32,-31.73"/>
<polygon fill="#63b8ff" stroke="#63b8ff" points="35.5,-31.81 32,-21.81 28.5,-31.81 35.5,-31.81"/>
</a>
</g>
</g>
<!-- Node5 -->
<g id="Node000005" class="node">
<title>Node5</title>
<g id="a_Node000005"><a xlink:title=" ">
<polygon fill="#e0e0e0" stroke="#999999" points="150.12,-20 101.88,-20 101.88,0 150.12,0 150.12,-20"/>
<text xml:space="preserve" text-anchor="middle" x="126" y="-6.5" font-family="Helvetica,sans-Serif" font-size="10.00">stdint.h</text>
</a>
</g>
</g>
<!-- Node4&#45;&gt;Node5 -->
<g id="edge4_Node000004_Node000005" class="edge">
<title>Node4&#45;&gt;Node5</title>
<g id="a_edge4_Node000004_Node000005"><a xlink:title=" ">
<path fill="none" stroke="#63b8ff" d="M126,-55.59C126,-49.01 126,-39.96 126,-31.73"/>
<polygon fill="#63b8ff" stroke="#63b8ff" points="129.5,-31.81 126,-21.81 122.5,-31.81 129.5,-31.81"/>
</a>
</g>
</g>
</g>
</svg>
