<?xml version="1.0" encoding="UTF-8" standalone="no"?>
<!DOCTYPE svg PUBLIC "-//W3C//DTD SVG 1.1//EN"
 "http://www.w3.org/Graphics/SVG/1.1/DTD/svg11.dtd">
<!-- Generated by graphviz version 14.1.3 (0)
 -->
<!-- Title: core/database.c Pages: 1 -->
<svg width="591pt" height="140pt"
 viewBox="0.00 0.00 591.00 140.00" xmlns="http://www.w3.org/2000/svg" xmlns:xlink="http://www.w3.org/1999/xlink">
<g id="graph0" class="graph" transform="scale(1 1) rotate(0) translate(4 136)">
<title>core/database.c</title>
<!-- Node1 -->
<g id="Node000001" class="node">
<title>Node1</title>
<g id="a_Node000001"><a xlink:title=" ">
<polygon fill="#999999" stroke="#666666" points="355.88,-132 270.12,-132 270.12,-112 355.88,-112 355.88,-132"/>
<text xml:space="preserve" text-anchor="middle" x="313" y="-118.5" font-family="Helvetica,sans-Serif" font-size="10.00">core/database.c</text>
</a>
</g>
</g>
<!-- Node2 -->
<g id="Node000002" class="node">
<title>Node2</title>
<g id="a_Node000002"><a xlink:href="database_8h.html" target="_top" xlink:title=" ">
<polygon fill="white" stroke="#666666" points="64,-76 0,-76 0,-56 64,-56 64,-76"/>
<text xml:space="preserve" text-anchor="middle" x="32" y="-62.5" font-family="Helvetica,sans-Serif" font-size="10.00">database.h</text>
</a>
</g>
</g>
<!-- Node1&#45;&gt;Node2 -->
<g id="edge1_Node000001_Node000002" class="edge">
<title>Node1&#45;&gt;Node2</title>
<g id="a_edge1_Node000001_Node000002"><a xlink:title=" ">
<path fill="none" stroke="#63b8ff" d="M270,-113.35C224.17,-105.1 149.2,-91.35 75.13,-76.39"/>
<polygon fill="#63b8ff" stroke="#63b8ff" points="76.19,-73.03 65.69,-74.47 74.8,-79.89 76.19,-73.03"/>
</a>
</g>
</g>
<!-- Node4 -->
<g id="Node000004" class="node">
<title>Node4</title>
<g id="a_Node000004"><a xlink:href="key__derivation_8h.html" target="_top" xlink:title=" ">
<polygon fill="white" stroke="#666666" points="169.62,-76 82.38,-76 82.38,-56 169.62,-56 169.62,-76"/>
<text xml:space="preserve" text-anchor="middle" x="126" y="-62.5" font-family="Helvetica,sans-Serif" font-size="10.00">key_derivation.h</text>
</a>
</g>
</g>
<!-- Node1&#45;&gt;Node4 -->
<g id="edge3_Node000001_Node000004" class="edge">
<title>Node1&#45;&gt;Node4</title>
<g id="a_edge3_Node000001_Node000004"><a xlink:title=" ">
<path fill="none" stroke="#63b8ff" d="M280.43,-111.59C249.78,-102.74 203.66,-89.43 169.8,-79.65"/>
<polygon fill="#63b8ff" stroke="#63b8ff" points="170.86,-76.31 160.28,-76.9 168.92,-83.04 170.86,-76.31"/>
</a>
</g>
</g>
<!-- Node6 -->
<g id="Node000006" class="node">
<title>Node6</title>
<g id="a_Node000006"><a xlink:title=" ">
<polygon fill="#e0e0e0" stroke="#999999" points="240.38,-76 187.62,-76 187.62,-56 240.38,-56 240.38,-76"/>
<text xml:space="preserve" text-anchor="middle" x="214" y="-62.5" font-family="Helvetica,sans-Serif" font-size="10.00">sqlite3.h</text>
</a>
</g>
</g>
<!-- Node1&#45;&gt;Node6 -->
<g id="edge5_Node000001_Node000006" class="edge">
<title>Node1&#45;&gt;Node6</title>
<g id="a_edge5_Node000001_Node000006"><a xlink:title=" ">
<path fill="none" stroke="#63b8ff" d="M295.76,-111.59C280.66,-103.36 258.47,-91.26 241.02,-81.74"/>
<polygon fill="#63b8ff" stroke="#63b8ff" points="243.16,-78.92 232.71,-77.2 239.81,-85.07 243.16,-78.92"/>
</a>
</g>
</g>
<!-- Node7 -->
<g id="Node000007" class="node">
<title>Node7</title>
<g id="a_Node000007"><a xlink:title=" ">
<polygon fill="#e0e0e0" stroke="#999999" points="303.62,-76 258.38,-76 258.38,-56 303.62,-56 303.62,-76"/>
<text xml:space="preserve" text-anchor="middle" x="281" y="-62.5" font-family="Helvetica,sans-Serif" font-size="10.00">stdio.h</text>
</a>
</g>
</g>
<!-- Node1&#45;&gt;Node7 -->
<g id="edge6_Node000001_Node000007" class="edge">
<title>Node1&#45;&gt;Node7</title>
<g id="a_edge6_Node000001_Node000007"><a xlink:title=" ">
<path fill="none" stroke="#63b8ff" d="M307.43,-111.59C303.25,-104.55 297.4,-94.67 292.26,-86"/>
<polygon fill="#63b8ff" stroke="#63b8ff" points="295.39,-84.42 287.28,-77.6 289.37,-87.99 295.39,-84.42"/>
</a>
</g>
</g>
<!-- Node8 -->
<g id="Node000008" class="node">
<title>Node8</title>
<g id="a_Node000008"><a xlink:title=" ">
<polygon fill="#e0e0e0" stroke="#999999" points="368.75,-76 321.25,-76 321.25,-56 368.75,-56 368.75,-76"/>
<text xml:space="preserve" text-anchor="middle" x="345" y="-62.5" font-family="Helvetica,sans-Serif" font-size="10.00">stdlib.h</text>
</a>
</g>
</g>
<!-- Node1&#45;&gt;Node8 -->
<g id="edge7_Node000001_Node000008" class="edge">
<title>Node1&#45;&gt;Node8</title>
<g id="a_edge7_Node000001_Node000008"><a xlink:title=" ">
<path fill="none" stroke="#63b8ff" d="M318.57,-111.59C322.75,-104.55 328.6,-94.67 333.74,-86"/>
<polygon fill="#63b8ff" stroke="#63b8ff" points="336.63,-87.99 338.72,-77.6 330.61,-84.42 336.63,-87.99"/>
</a>
</g>
</g>
<!-- Node9 -->
<g id="Node000009" class="node">
<title>Node9</title>
<g id="a_Node000009"><a xlink:title=" ">
<polygon fill="#e0e0e0" stroke="#999999" points="435.12,-76 386.88,-76 386.88,-56 435.12,-56 435.12,-76"/>
<text xml:space="preserve" text-anchor="middle" x="411" y="-62.5" font-family="Helvetica,sans-Serif" font-size="10.00">string.h</text>
</a>
</g>
</g>
<!-- Node1&#45;&gt;Node9 -->
<g id="edge8_Node000001_Node000009" class="edge">
<title>Node1&#45;&gt;Node9</title>
<g id="a_edge8_Node000001_Node000009"><a xlink:title=" ">
<path fill="none" stroke="#63b8ff" d="M330.07,-111.59C344.88,-103.44 366.57,-91.48 383.77,-82"/>
<polygon fill="#63b8ff" stroke="#63b8ff" points="385.4,-85.1 392.47,-77.21 382.02,-78.97 385.4,-85.1"/>
</a>
</g>
</g>
<!-- Node10 -->
<g id="Node000010" class="node">
<title>Node10</title>
<g id="a_Node000010"><a xlink:title=" ">
<polygon fill="#e0e0e0" stroke="#999999" points="508.88,-76 453.12,-76 453.12,-56 508.88,-56 508.88,-76"/>
<text xml:space="preserve" text-anchor="middle" x="481" y="-62.5" font-family="Helvetica,sans-Serif" font-size="10.00">stdbool.h</text>
</a>
</g>
</g>
<!-- Node1&#45;&gt;Node10 -->
<g id="edge9_Node000001_Node000010" class="edge">
<title>Node1&#45;&gt;Node10</title>
<g id="a_edge9_Node000001_Node000010"><a xlink:title=" ">
<path fill="none" stroke="#63b8ff" d="M342.26,-111.59C369.89,-102.71 411.52,-89.33 441.97,-79.55"/>
<polygon fill="#63b8ff" stroke="#63b8ff" points="442.74,-82.97 451.19,-76.58 440.6,-76.31 442.74,-82.97"/>
</a>
</g>
</g>
<!-- Node11 -->
<g id="Node000011" class="node">
<title>Node11</title>
<g id="a_Node000011"><a xlink:title=" ">
<polygon fill="#e0e0e0" stroke="#999999" points="582.88,-76 527.12,-76 527.12,-56 582.88,-56 582.88,-76"/>
<text xml:space="preserve" text-anchor="middle" x="555" y="-62.5" font-family="Helvetica,sans-Serif" font-size="10.00">sodium.h</text>
</a>
</g>
</g>
<!-- Node1&#45;&gt;Node11 -->
<g id="edge10_Node000001_Node000011" class="edge">
<title>Node1&#45;&gt;Node11</title>
<g id="a_edge10_Node000001_Node000011"><a xlink:title=" ">
<path fill="none" stroke="#63b8ff" d="M356.26,-111.8C395.44,-103.4 455.03,-90.46 515.78,-76.48"/>
<polygon fill="#63b8ff" stroke="#63b8ff" points="516.3,-79.95 525.26,-74.29 514.73,-73.13 516.3,-79.95"/>
</a>
</g>
</g>
<!-- Node3 -->
<g id="Node000003" class="node">
<title>Node3</title>
<g id="a_Node000003"><a xlink:title=" ">
<polygon fill="#e0e0e0" stroke="#999999" points="57.62,-20 6.38,-20 6.38,0 57.62,0 57.62,-20"/>
<text xml:space="preserve" text-anchor="middle" x="32" y="-6.5" font-family="Helvetica,sans-Serif" font-size="10.00">stddef.h</text>
</a>
</g>
</g>
<!-- Node2&#45;&gt;Node3 -->
<g id="edge2_Node000002_Node000003" class="edge">
<title>Node2&#45;&gt;Node3</title>
<g id="a_edge2_Node000002_Node000003"><a xlink:title=" ">
<path fill="none" stroke="#63b8ff" d="M32,-55.59C32,-49.01 32,-39.96 32,-31.73"/>
<polygon fill="#63b8ff" stroke="#63b8ff" points="35.5,-31.81 32,-21.81 28.5,-31.81 35.5,-31.81"/>
</a>
</g>
</g>
<!-- Node5 -->
<g id="Node000005" class="node">
<title>Node5</title>
<g id="a_Node000005"><a xlink:title=" ">
<polygon fill="#e0e0e0" stroke="#999999" points="150.12,-20 101.88,-20 101.88,0 150.12,0 150.12,-20"/>
<text xml:space="preserve" text-anchor="middle" x="126" y="-6.5" font-family="Helvetica,sans-Serif" font-size="10.00">stdint.h</text>
</a>
</g>
</g>
<!-- Node4&#45;&gt;Node5 -->
<g id="edge4_Node000004_Node000005" class="edge">
<title>Node4&#45;&gt;Node5</title>
<g id="a_edge4_Node000004_Node000005"><a xlink:title=" ">
<path fill="none" stroke="#63b8ff" d="M126,-55.59C126,-49.01 126,-39.96 126,-31.73"/>
<polygon fill="#63b8ff" stroke="#63b8ff" points="129.5,-31.81 126,-21.81 122.5,-31.81 129.5,-31.81"/>
</a>
</g>
</g>
</g>
</svg>
